<svg width="437" height="394" viewBox="0 0 437 394" fill="none" xmlns="http://www.w3.org/2000/svg">
<path d="M307.642 389.594L201.669 230.93C201.639 230.541 201.494 230.165 201.247 229.834C201 229.504 200.659 229.229 200.254 229.033C199.789 228.812 199.258 228.706 198.723 228.726C198.706 228.725 198.689 228.726 198.672 228.725C198.654 228.726 198.637 228.725 198.62 228.726C197.895 228.698 197.185 228.904 196.638 229.3C196.092 229.697 195.751 230.253 195.687 230.854L83.371 389.594C83.1838 389.863 83.0621 390.16 83.0131 390.469C82.9642 390.777 82.9887 391.09 83.0855 391.39C83.1822 391.69 83.3492 391.971 83.577 392.218C83.8048 392.465 84.0888 392.671 84.4128 392.827C84.7369 392.982 85.0946 393.083 85.4656 393.123C85.8366 393.164 86.2136 393.143 86.575 393.063C86.9364 392.982 87.2752 392.844 87.572 392.654C87.8688 392.465 88.1177 392.229 88.3047 391.96L198.596 236.082L302.708 391.96C302.895 392.229 303.144 392.465 303.441 392.654C303.738 392.844 304.077 392.982 304.438 393.063C304.8 393.143 305.176 393.164 305.547 393.123C305.918 393.083 306.276 392.982 306.6 392.827C306.924 392.671 307.208 392.465 307.436 392.218C307.664 391.971 307.831 391.69 307.928 391.39C308.024 391.09 308.049 390.777 308 390.469C307.951 390.16 307.829 389.863 307.642 389.594Z" fill="#3F3D56"/>
<path d="M181.112 362.372L193.09 360.089L188.19 320.637L170.511 324.005L181.112 362.372Z" fill="#FFB6B6"/>
<path d="M190.373 343.313L173.326 346.56L167.876 337.715L167.567 337.401C165.149 334.937 163.807 331.865 163.759 328.686L149.591 297.564L148.432 297.106C147.536 296.752 146.741 296.244 146.101 295.614C145.46 294.985 144.988 294.249 144.717 293.456C144.446 292.663 144.382 291.832 144.529 291.016C144.676 290.201 145.031 289.422 145.569 288.729L144.069 285.435L101.745 285.499L101.703 285.49L49.7293 273.383L55.1866 246.368L69.8066 254.005C74.6241 253.746 157.149 249.538 164.773 264.896C171.562 278.573 181.345 301.938 188.357 319.131C188.706 319.903 189.141 320.646 189.655 321.352C190.746 322.747 191.386 324.352 191.514 326.012C191.597 326.734 191.763 327.448 192.009 328.144C194.924 335.378 190.484 343.122 190.439 343.2L190.373 343.313Z" fill="#2F2E41"/>
<path d="M177.065 359.073L180.959 358.331L194.746 350.3L204.313 353.881L204.314 353.881C208.92 353.004 213.756 353.682 217.76 355.766C221.763 357.85 224.606 361.169 225.663 364.993L225.792 365.462L181.179 373.962L177.065 359.073Z" fill="#2F2E41"/>
<path d="M0.20669 359.959C1.42454 348.951 9.18923 337.93 21.643 334.026C17.1137 345.444 17.5936 357.824 22.9979 368.976C25.1009 373.271 27.9784 377.865 26.3278 382.294C25.3008 385.05 22.6113 387.209 19.5652 388.596C16.5189 389.982 13.1062 390.695 9.73601 391.395L9.08587 391.871C3.30763 381.913 -1.01115 370.967 0.20669 359.959Z" fill="#F0F0F0"/>
<path d="M21.7759 334.23C14.707 341.249 10.4809 349.938 9.69774 359.065C9.48715 361.027 9.65035 363.005 10.1813 364.925C10.7713 366.781 11.9493 368.473 13.5927 369.823C15.0946 371.108 16.81 372.278 17.9096 373.844C18.4582 374.652 18.7948 375.548 18.8973 376.472C18.9998 377.396 18.866 378.327 18.5046 379.205C17.6725 381.412 15.9351 383.24 14.1613 384.978C12.1918 386.907 10.1093 388.886 9.33746 391.395C9.24394 391.699 8.68134 391.561 8.77471 391.257C10.1176 386.892 15.0785 384.3 17.339 380.34C18.3938 378.492 18.7844 376.369 17.6555 374.479C16.6682 372.825 14.9005 371.618 13.3662 370.328C11.7397 369.03 10.5207 367.421 9.81571 365.641C9.16873 363.75 8.91407 361.781 9.06263 359.818C9.3122 355.396 10.3976 351.034 12.2789 346.891C14.3946 342.154 17.4705 337.751 21.3738 333.875C21.6155 333.635 22.016 333.992 21.7759 334.23Z" fill="white"/>
<path d="M9.74165 356.114C7.91555 355.797 6.28457 354.951 5.14002 353.728C3.99546 352.504 3.41186 350.983 3.49341 349.435C3.49744 349.372 3.5308 349.313 3.58646 349.27C3.64213 349.227 3.71575 349.203 3.79182 349.204C3.86789 349.206 3.94047 349.231 3.99425 349.276C4.04804 349.32 4.07884 349.381 4.08016 349.444C4.00101 350.885 4.54483 352.302 5.61344 353.44C6.68206 354.577 8.20508 355.36 9.90763 355.647C10.2775 355.709 10.1094 356.176 9.74165 356.114Z" fill="white"/>
<path d="M12.7279 369.255C15.9378 367.545 18.2536 364.894 19.2136 361.829C19.3084 361.525 19.871 361.663 19.7763 361.966C18.7702 365.154 16.3534 367.91 13.0085 369.683C12.6895 369.852 12.4106 369.423 12.7279 369.255Z" fill="white"/>
<path d="M14.9565 342.6C15.6323 342.845 16.3707 342.947 17.1055 342.896C17.8403 342.846 18.5485 342.644 19.1664 342.31C19.4826 342.138 19.7611 342.567 19.4469 342.738C18.7622 343.105 17.9798 343.326 17.1681 343.384C16.3564 343.441 15.5401 343.333 14.7905 343.068C14.7174 343.048 14.6561 343.005 14.6193 342.949C14.5824 342.893 14.5727 342.827 14.5922 342.765C14.6145 342.703 14.6653 342.651 14.7335 342.621C14.8018 342.59 14.8819 342.583 14.9565 342.6Z" fill="white"/>
<path d="M60.7819 352.585C60.5881 352.697 60.3944 352.81 60.2005 352.926C57.6047 354.445 55.1617 356.136 52.8957 357.983C52.7178 358.124 52.54 358.269 52.3674 358.413C46.9653 362.912 42.616 368.205 39.5405 374.022C38.3193 376.338 37.312 378.728 36.5274 381.171C35.4441 384.544 34.5927 388.274 32.298 391.071C32.0626 391.365 31.8054 391.646 31.528 391.914L9.83641 392.493C9.78631 392.473 9.73613 392.458 9.6858 392.439L8.821 392.495C8.85087 392.367 8.88517 392.234 8.91504 392.106C8.93199 392.031 8.95377 391.957 8.97073 391.882C8.98356 391.832 8.99665 391.783 9.00481 391.737C9.00901 391.721 9.01344 391.704 9.01779 391.692C9.02595 391.646 9.03933 391.605 9.04768 391.563C9.23694 390.822 9.43282 390.08 9.63531 389.338C9.63514 389.334 9.63515 389.334 9.63983 389.33C11.1176 383.665 13.3994 378.166 16.4373 372.948C16.5305 372.793 16.6233 372.634 16.7264 372.479C18.1372 370.168 19.7732 367.955 21.618 365.865C22.6326 364.723 23.7162 363.625 24.8645 362.574C27.838 359.863 31.3063 357.557 35.1425 355.742C42.7905 352.123 51.7471 350.576 60.1422 352.438C60.3569 352.486 60.567 352.533 60.7819 352.585Z" fill="#F0F0F0"/>
<path d="M60.742 352.815C50.0093 354.885 40.3348 359.71 33.0925 366.606C31.5017 368.067 30.1982 369.728 29.2301 371.527C28.3552 373.304 28.0694 375.243 28.4023 377.143C28.6699 378.92 29.1915 380.712 28.9343 382.512C28.7862 383.431 28.4056 384.315 27.8176 385.104C27.2296 385.893 26.4473 386.57 25.5222 387.09C23.2576 388.436 20.5456 389.027 17.8693 389.527C14.8977 390.083 11.8006 390.622 9.36517 392.239C9.07009 392.435 8.72115 392.044 9.01579 391.848C13.253 389.034 19.093 389.445 23.7689 387.413C25.9507 386.465 27.8018 384.966 28.2711 382.891C28.6816 381.078 28.1457 379.23 27.856 377.433C27.4985 375.583 27.6917 373.689 28.419 371.916C29.2737 370.082 30.498 368.382 32.0393 366.89C35.4449 363.484 39.4742 360.543 43.9797 358.176C49.1038 355.451 54.7514 353.474 60.6782 352.331C61.0451 352.26 61.1065 352.745 60.742 352.815Z" fill="white"/>
<path d="M35.2671 364.272C34.0389 363.106 33.3498 361.615 33.3229 360.066C33.296 358.517 33.9331 357.01 35.1204 355.815C35.3616 355.574 35.8241 355.874 35.5826 356.116C34.4745 357.227 33.8812 358.63 33.9098 360.073C33.9384 361.515 34.587 362.902 35.7384 363.982C35.9883 364.217 35.5156 364.506 35.2671 364.272Z" fill="white"/>
<path d="M28.1237 376.257C31.9264 376.497 35.6981 375.537 38.6867 373.57C38.9826 373.375 39.3317 373.767 39.0361 373.962C35.9215 376.004 31.994 376.996 28.0375 376.739C27.6604 376.715 27.7487 376.233 28.1237 376.257Z" fill="white"/>
<path d="M49.2284 356.089C49.5904 356.623 50.1063 357.073 50.7298 357.4C51.3532 357.727 52.0646 357.92 52.8002 357.962C53.1775 357.983 53.0888 358.465 52.714 358.444C51.9016 358.395 51.1161 358.18 50.4264 357.82C49.7366 357.46 49.1635 356.966 48.7571 356.379C48.7132 356.327 48.6951 356.262 48.7064 356.199C48.7177 356.136 48.7576 356.078 48.818 356.039C48.8807 356 48.9589 355.984 49.0357 355.994C49.1126 356.003 49.1818 356.038 49.2284 356.089Z" fill="white"/>
<path d="M355.103 359.959C353.885 348.951 346.12 337.93 333.667 334.026C338.196 345.444 337.716 357.824 332.312 368.976C330.209 373.271 327.331 377.865 328.982 382.294C330.009 385.05 332.698 387.209 335.744 388.596C338.791 389.982 342.203 390.695 345.574 391.395L346.224 391.871C352.002 381.913 356.321 370.967 355.103 359.959Z" fill="#F0F0F0"/>
<path d="M333.534 334.23C340.603 341.249 344.829 349.938 345.612 359.065C345.822 361.027 345.659 363.005 345.128 364.925C344.538 366.781 343.36 368.473 341.717 369.823C340.215 371.108 338.5 372.278 337.4 373.844C336.851 374.652 336.515 375.548 336.412 376.472C336.31 377.396 336.444 378.327 336.805 379.205C337.637 381.412 339.374 383.24 341.148 384.978C343.118 386.907 345.2 388.886 345.972 391.395C346.066 391.699 346.628 391.561 346.535 391.257C345.192 386.892 340.231 384.3 337.971 380.34C336.916 378.492 336.525 376.369 337.654 374.479C338.641 372.825 340.409 371.618 341.943 370.328C343.57 369.03 344.789 367.421 345.494 365.641C346.141 363.75 346.396 361.781 346.247 359.818C345.997 355.396 344.912 351.034 343.031 346.891C340.915 342.154 337.839 337.751 333.936 333.875C333.694 333.635 333.294 333.992 333.534 334.23Z" fill="white"/>
<path d="M345.568 356.114C347.394 355.797 349.025 354.951 350.17 353.728C351.314 352.504 351.898 350.983 351.816 349.435C351.812 349.372 351.779 349.313 351.723 349.27C351.668 349.227 351.594 349.203 351.518 349.204C351.442 349.206 351.369 349.231 351.315 349.276C351.262 349.321 351.231 349.381 351.23 349.444C351.309 350.885 350.765 352.302 349.696 353.44C348.628 354.577 347.105 355.36 345.402 355.647C345.032 355.709 345.2 356.176 345.568 356.114Z" fill="white"/>
<path d="M342.582 369.255C339.372 367.545 337.056 364.894 336.096 361.829C336.001 361.525 335.439 361.663 335.533 361.966C336.539 365.154 338.956 367.91 342.301 369.683C342.62 369.852 342.899 369.423 342.582 369.255Z" fill="white"/>
<path d="M340.353 342.6C339.677 342.845 338.939 342.947 338.204 342.896C337.469 342.846 336.761 342.644 336.143 342.31C335.827 342.138 335.548 342.567 335.863 342.738C336.547 343.105 337.33 343.326 338.141 343.384C338.953 343.441 339.769 343.333 340.519 343.068C340.592 343.048 340.653 343.005 340.69 342.949C340.727 342.893 340.737 342.827 340.717 342.765C340.695 342.703 340.644 342.651 340.576 342.621C340.508 342.59 340.428 342.583 340.353 342.6Z" fill="white"/>
<path d="M294.528 352.585C294.721 352.697 294.915 352.81 295.109 352.926C297.705 354.445 300.148 356.136 302.414 357.983C302.592 358.124 302.77 358.269 302.942 358.413C308.344 362.912 312.694 368.205 315.769 374.022C316.99 376.338 317.998 378.728 318.782 381.171C319.866 384.544 320.717 388.274 323.012 391.071C323.247 391.365 323.504 391.646 323.782 391.914L345.473 392.493C345.523 392.473 345.574 392.458 345.624 392.439L346.489 392.495C346.459 392.367 346.424 392.234 346.395 392.106C346.378 392.031 346.356 391.957 346.339 391.882C346.326 391.832 346.313 391.783 346.305 391.737C346.301 391.721 346.296 391.704 346.292 391.692C346.284 391.646 346.27 391.605 346.262 391.563C346.073 390.822 345.877 390.08 345.674 389.338C345.675 389.334 345.675 389.334 345.67 389.33C344.192 383.665 341.91 378.166 338.872 372.948C338.779 372.793 338.686 372.634 338.583 372.479C337.172 370.168 335.536 367.955 333.692 365.865C332.677 364.723 331.593 363.625 330.445 362.574C327.472 359.863 324.003 357.557 320.167 355.742C312.519 352.123 303.563 350.576 295.167 352.438C294.953 352.486 294.743 352.533 294.528 352.585Z" fill="#F0F0F0"/>
<path d="M294.568 352.815C305.3 354.885 314.975 359.71 322.217 366.606C323.808 368.067 325.111 369.728 326.08 371.527C326.955 373.304 327.24 375.243 326.907 377.143C326.64 378.92 326.118 380.712 326.375 382.512C326.524 383.431 326.904 384.315 327.492 385.104C328.08 385.893 328.862 386.57 329.788 387.09C332.052 388.436 334.764 389.027 337.44 389.527C340.412 390.083 343.509 390.622 345.945 392.239C346.24 392.435 346.589 392.044 346.294 391.848C342.057 389.034 336.217 389.445 331.541 387.413C329.359 386.465 327.508 384.966 327.039 382.891C326.628 381.078 327.164 379.23 327.454 377.433C327.811 375.583 327.618 373.689 326.891 371.916C326.036 370.082 324.812 368.382 323.27 366.89C319.865 363.484 315.835 360.543 311.33 358.176C306.206 355.451 300.558 353.474 294.632 352.331C294.265 352.26 294.203 352.745 294.568 352.815Z" fill="white"/>
<path d="M320.043 364.272C321.271 363.106 321.96 361.615 321.987 360.066C322.014 358.517 321.377 357.01 320.189 355.815C319.948 355.574 319.486 355.874 319.727 356.116C320.835 357.227 321.428 358.63 321.4 360.073C321.371 361.515 320.723 362.902 319.571 363.982C319.321 364.217 319.794 364.506 320.043 364.272Z" fill="white"/>
<path d="M327.186 376.257C323.383 376.497 319.612 375.537 316.623 373.57C316.327 373.375 315.978 373.767 316.274 373.962C319.388 376.004 323.316 376.996 327.272 376.739C327.649 376.715 327.561 376.233 327.186 376.257Z" fill="white"/>
<path d="M306.081 356.089C305.719 356.623 305.203 357.073 304.58 357.4C303.957 357.727 303.245 357.92 302.51 357.962C302.132 357.983 302.221 358.465 302.596 358.444C303.408 358.395 304.194 358.18 304.883 357.82C305.573 357.46 306.146 356.966 306.553 356.379C306.597 356.327 306.615 356.262 306.603 356.199C306.592 356.136 306.552 356.078 306.492 356.039C306.429 356 306.351 355.984 306.274 355.994C306.197 356.003 306.128 356.038 306.081 356.089Z" fill="white"/>
<path d="M302.802 151.391C304.375 151.391 305.65 150.332 305.65 149.025C305.65 147.719 304.375 146.66 302.802 146.66C301.228 146.66 299.953 147.719 299.953 149.025C299.953 150.332 301.228 151.391 302.802 151.391Z" fill="#3F3D56"/>
<path d="M267.132 167.246L305.535 147.21C305.882 147.029 306.27 146.908 306.676 146.855C307.081 146.802 307.495 146.817 307.893 146.901C308.29 146.984 308.664 147.133 308.99 147.34C309.317 147.546 309.589 147.806 309.791 148.102C309.994 148.398 310.122 148.726 310.167 149.064C310.213 149.403 310.175 149.746 310.057 150.072C309.939 150.398 309.742 150.701 309.479 150.962C309.216 151.224 308.891 151.438 308.526 151.593L268.096 168.658C267.872 168.753 267.612 168.772 267.371 168.712C267.13 168.652 266.926 168.516 266.802 168.334C266.677 168.153 266.643 167.938 266.704 167.735C266.766 167.532 266.919 167.357 267.132 167.246Z" fill="#E4E4E4"/>
<path d="M190.089 210.387C189.786 210.014 189.628 209.572 189.636 209.122C189.644 208.672 189.817 208.235 190.132 207.869C190.782 207.146 191.648 206.577 192.643 206.216C194.698 205.347 196.911 204.766 199.194 204.497C200.928 204.292 202.822 204.227 204.167 203.295C205.504 202.369 206.249 200.638 207.981 200.494C209.656 200.354 210.943 201.876 212.622 201.971C214.691 202.087 216.046 200.076 218.06 199.663C219.408 199.387 220.794 199.874 222.059 200.351L229.647 203.209L233.536 204.675C234.894 205.187 236.426 205.876 236.683 207.096C237.035 208.773 234.79 209.956 232.87 210.551C219.158 214.754 204.091 214.755 190.379 210.556" fill="#6C63FF"/>
<path d="M201.52 241.279C256.582 241.279 301.219 235.984 301.219 229.452C301.219 222.92 256.582 217.625 201.52 217.625C146.458 217.625 101.821 222.92 101.821 229.452C101.821 235.984 146.458 241.279 201.52 241.279Z" fill="#3F3D56"/>
<path d="M403.766 302.782H335.401C332.255 302.782 329.704 304.9 329.704 307.513C329.704 310.126 332.255 312.244 335.401 312.244H403.766C406.913 312.244 409.463 310.126 409.463 307.513C409.463 304.9 406.913 302.782 403.766 302.782Z" fill="#3F3D56"/>
<path d="M436.898 218.434L414.319 307.508L420.199 330.306L431.302 373.331V392.67C431.303 392.697 431.301 392.723 431.296 392.749C431.292 393.176 431.198 393.6 431.017 394H422.092C421.912 393.6 421.817 393.176 421.813 392.749C421.808 392.723 421.806 392.697 421.807 392.67V374.162L411.73 335.11L409.691 327.225L405.748 311.944L404.608 307.518V307.513L405.735 303.076L406.602 299.654L427.606 216.815C427.733 216.308 427.98 215.827 428.331 215.399C428.683 214.971 429.133 214.605 429.655 214.321C430.177 214.038 430.761 213.842 431.374 213.747C431.987 213.651 432.617 213.656 433.227 213.762C433.838 213.869 434.417 214.074 434.932 214.366C435.447 214.659 435.888 215.033 436.229 215.467C436.569 215.9 436.804 216.386 436.919 216.895C437.034 217.404 437.027 217.927 436.898 218.434Z" fill="#3F3D56"/>
<path d="M340.149 307.513V392.67C340.15 392.697 340.148 392.723 340.143 392.749C340.139 393.176 340.045 393.6 339.864 394H330.939C330.758 393.6 330.664 393.176 330.66 392.749C330.655 392.723 330.653 392.697 330.654 392.67V307.513C330.654 306.467 331.154 305.464 332.044 304.725C332.935 303.986 334.142 303.57 335.401 303.57C336.661 303.57 337.868 303.986 338.758 304.725C339.649 305.464 340.149 306.467 340.149 307.513Z" fill="#3F3D56"/>
<path d="M346.796 293.32H392.372C396.905 293.32 401.252 294.815 404.457 297.477C407.663 300.138 409.463 303.748 409.463 307.512H329.704C329.704 303.748 331.505 300.138 334.71 297.477C337.915 294.815 342.263 293.32 346.796 293.32Z" fill="#3F3D56"/>
<path d="M415.16 335.11H335.401C334.142 335.11 332.935 334.695 332.044 333.955C331.154 333.216 330.654 332.213 330.654 331.168C330.654 330.122 331.154 329.119 332.044 328.38C332.935 327.64 334.142 327.225 335.401 327.225H415.16C416.42 327.225 417.627 327.64 418.518 328.38C419.408 329.119 419.908 330.122 419.908 331.168C419.908 332.213 419.408 333.216 418.518 333.955C417.627 334.695 416.42 335.11 415.16 335.11Z" fill="#3F3D56"/>
<path d="M44.16 312.387H124.61C127.756 312.387 130.307 310.269 130.307 307.656V306.222C130.307 303.609 127.756 301.491 124.61 301.491H44.16C41.0136 301.491 38.4629 303.609 38.4629 306.222V307.656C38.4629 310.269 41.0136 312.387 44.16 312.387Z" fill="#3F3D56"/>
<path d="M43.3315 307.003L41.8754 311.986L36.5328 330.237L34.2289 338.122L23.5308 374.698V390.567C23.5336 391.344 23.2558 392.104 22.7333 392.749C22.3226 393.27 21.764 393.7 21.1066 394H16.4601C15.8028 393.7 15.2442 393.27 14.8334 392.749C14.3108 392.104 14.033 391.344 14.0357 390.567V373.751L25.9237 333.118L33.5959 306.877L7.57916 204.241C7.4504 203.734 7.44314 203.212 7.55779 202.703C7.67245 202.194 7.90676 201.709 8.24735 201.275C8.58793 200.841 9.02811 200.468 9.54271 200.175C10.0573 199.883 10.6362 199.678 11.2464 199.572C11.8566 199.465 12.486 199.46 13.0987 199.556C13.7114 199.651 14.2954 199.846 14.8172 200.13C15.3391 200.413 15.7885 200.779 16.14 201.207C16.4914 201.634 16.7379 202.115 16.8653 202.622L40.9135 297.467L42.0212 301.841L43.3123 306.94L43.3315 307.003Z" fill="#3F3D56"/>
<path d="M128.496 306.94V390.567C128.499 391.345 128.221 392.104 127.699 392.749C127.288 393.27 126.729 393.7 126.072 394H121.419C120.765 393.698 120.209 393.269 119.799 392.749C119.276 392.104 118.998 391.344 119.001 390.567V306.94C119.001 305.894 119.501 304.891 120.392 304.152C121.282 303.413 122.49 302.997 123.749 302.997C125.008 302.997 126.216 303.413 127.106 304.152C127.996 304.891 128.496 305.894 128.496 306.94Z" fill="#3F3D56"/>
<path d="M130.307 306.939H38.463V304.789C38.463 302.925 38.905 301.08 39.7639 299.358C40.6228 297.636 41.8818 296.071 43.4689 294.753C45.0559 293.435 46.94 292.39 49.0136 291.676C51.0872 290.963 53.3097 290.596 55.5542 290.596H113.216C117.748 290.596 122.096 292.091 125.301 294.753C128.506 297.415 130.307 301.025 130.307 304.789L130.307 306.939Z" fill="#3F3D56"/>
<path d="M123.746 338.121H31.9026C30.6435 338.121 29.4359 337.705 28.5456 336.966C27.6553 336.226 27.1551 335.224 27.1551 334.178C27.1551 333.132 27.6553 332.13 28.5456 331.39C29.4359 330.651 30.6435 330.236 31.9026 330.236H123.746C125.006 330.236 126.213 330.651 127.104 331.39C127.994 332.13 128.494 333.132 128.494 334.178C128.494 335.224 127.994 336.226 127.104 336.966C126.213 337.705 125.006 338.121 123.746 338.121Z" fill="#3F3D56"/>
<path d="M241.78 372.511L231.802 368.548L245.509 333.913L260.236 339.762L241.78 372.511Z" fill="#9E616A"/>
<path d="M309.404 369.374L298.675 371.572L283.128 337.485L298.965 334.24L309.404 369.374Z" fill="#9E616A"/>
<path d="M268.279 221.97C269.703 223.89 271.973 225.271 274.606 225.82C277.239 226.368 280.025 226.04 282.371 224.906C282.843 224.669 283.29 224.4 283.708 224.101L315.255 239.135L313.885 223.703L284.138 211.792C282.519 210.442 280.407 209.576 278.132 209.33C275.857 209.084 273.548 209.472 271.566 210.432C270.426 211.001 269.434 211.754 268.649 212.646C267.864 213.538 267.301 214.551 266.995 215.626C266.689 216.701 266.645 217.816 266.865 218.906C267.086 219.996 267.567 221.037 268.279 221.97Z" fill="#9E616A"/>
<path d="M301.692 233.474L307.269 236.296L332.313 248.978C333.958 249.833 335.79 250.41 337.704 250.676C339.618 250.943 341.576 250.893 343.467 250.531C345.357 250.168 347.144 249.5 348.723 248.564C350.303 247.628 351.645 246.443 352.672 245.076C354.526 242.539 355.183 239.521 354.514 236.606L343.383 190.425C342.972 188.612 342.094 186.894 340.81 185.389C339.525 183.884 337.865 182.626 335.941 181.703C334.018 180.78 331.878 180.212 329.666 180.039C327.454 179.866 325.224 180.092 323.126 180.701C319.602 181.729 316.681 183.834 314.959 186.588C313.237 189.341 312.843 192.536 313.857 195.522L325.496 228.296L307.655 221.388L301.692 233.474Z" fill="#E6E6E6"/>
<path d="M288.508 359.821L271.338 331.226L271.34 331.16L273.035 278.712C273.057 278.245 273.102 277.777 273.17 277.316C273.47 275.213 274.271 273.18 275.526 271.337C276.781 269.493 278.465 267.876 280.481 266.578C282.411 265.324 284.623 264.402 286.987 263.865C289.351 263.328 291.821 263.187 294.251 263.451L343.347 268.727L345.05 262.946L345.367 262.85L392.408 248.533L392.68 248.9C398.84 257.224 403.147 273.853 404.321 278.751L404.338 278.821C404.362 278.925 404.377 278.987 404.382 279.005C406.804 287.364 396.798 301.21 386.829 303.291C365.832 307.735 347.054 304.269 325.31 300.254C317.513 298.814 309.455 297.326 300.579 296.039L300.843 300.377C301.059 303.716 301.894 307.007 303.319 310.135C304.902 313.984 306.152 317.024 303.509 323.363L302.23 326.429C302.893 327.952 303.121 329.581 302.897 331.189C302.672 332.797 302.001 334.34 300.936 335.696L300.679 336.022L312.001 359.816L288.508 359.821Z" fill="#2F2E41"/>
<path d="M260.297 347.175L239.823 345.595L247.076 326.331C248.573 313.753 252.345 301.433 258.264 289.789L268.159 270.317C268.181 269.884 268.225 269.448 268.289 269.02C268.588 266.917 269.389 264.885 270.644 263.041C271.899 261.198 273.584 259.581 275.599 258.283C277.53 257.03 279.742 256.108 282.106 255.571C284.47 255.034 286.939 254.893 289.369 255.156L338.393 260.425L340.528 245.543L387.582 240.314L387.798 240.605C396.022 251.718 401.244 260.417 404.23 267.983C404.38 268.369 404.513 268.763 404.627 269.155C407.065 277.57 400.979 286.102 391.059 288.173C365.78 293.525 335.381 293.376 295.414 287.703L276.071 325.929C274.222 329.58 271.933 333.067 269.239 336.335L260.297 347.175Z" fill="#2F2E41"/>
<path d="M331.716 154.197C344.815 154.197 355.433 145.183 355.433 134.063C355.433 122.943 344.815 113.929 331.716 113.929C318.617 113.929 307.999 122.943 307.999 134.063C307.999 145.183 318.617 154.197 331.716 154.197Z" fill="#9E616A"/>
<path d="M338.564 261.128L335.161 251.004L334.324 246.01L329.433 246.146L319.834 227.746L316.105 222.894C315.345 222.229 314.656 221.59 314.039 220.976C310.154 217.329 307.039 213.164 304.825 208.656C303.274 205.417 302.363 201.99 302.128 198.51C301.432 188.229 306.651 177.352 318.083 165.26C317.896 164.832 317.771 164.386 317.711 163.934C317.507 162.465 318.009 160.988 319.109 159.825C320.209 158.662 321.817 157.907 323.584 157.723L334.611 156.695C335.468 156.615 336.336 156.676 337.165 156.877C337.993 157.077 338.765 157.413 339.436 157.864C340.137 158.33 340.718 158.907 341.147 159.562C341.577 160.217 341.844 160.936 341.935 161.677C342.083 162.825 341.811 163.982 341.156 164.999C346.776 165.592 352.071 167.518 356.406 170.547C360.742 173.577 363.932 177.58 365.596 182.077C372.194 192.306 377.453 203.092 381.282 214.251C382.037 216.437 381.701 218.689 381.376 220.867C381.076 222.879 380.765 224.959 381.288 227.032C381.819 229.141 383.096 231.257 384.449 233.496C385.998 236.062 387.6 238.714 388.033 241.418L388.064 241.608L338.564 261.128Z" fill="#E4E4E4"/>
<path opacity="0.2" d="M305.118 208.556C307.322 213.038 310.42 217.18 314.281 220.807C314.943 221.463 315.641 222.107 316.372 222.753L320.124 227.641C333.954 219.033 345.16 185.137 345.16 185.137L329.555 182.616L305.118 208.556Z" fill="black"/>
<path d="M295.671 156.079C297.037 158.028 297.434 160.343 296.777 162.531C296.119 164.719 294.459 166.608 292.15 167.795C291.676 168.031 291.18 168.233 290.666 168.4L291.77 198.592L276.026 190.361L277.391 162.953C276.721 161.129 276.797 159.172 277.607 157.388C278.417 155.604 279.916 154.092 281.869 153.09C283.007 152.518 284.271 152.142 285.587 151.983C286.903 151.824 288.243 151.885 289.53 152.164C290.817 152.443 292.023 152.933 293.078 153.605C294.133 154.277 295.014 155.118 295.671 156.079Z" fill="#9E616A"/>
<path d="M293.154 187.195L275.84 189.239L276.585 219.014C276.628 221.138 277.324 223.217 278.608 225.055C279.891 226.892 281.72 228.427 283.919 229.512C286.605 230.825 289.732 231.377 292.829 231.085C295.926 230.793 298.825 229.673 301.089 227.894L341.965 195.243C344.841 192.978 346.563 189.883 346.775 186.596C346.988 183.309 345.675 180.079 343.107 177.57C341.837 176.322 340.277 175.297 338.521 174.559C336.765 173.82 334.847 173.382 332.883 173.27C330.919 173.158 328.948 173.375 327.087 173.908C325.226 174.441 323.512 175.28 322.049 176.373C321.645 176.673 321.261 176.991 320.898 177.325L293.907 203.11L293.154 187.195Z" fill="#E6E6E6"/>
<path d="M148.343 381.404L160.632 381.403L166.478 342.04L148.341 342.04L148.343 381.404Z" fill="#FFB6B6"/>
<path d="M78.6844 154.782C92.2309 154.782 103.213 145.663 103.213 134.413C103.213 123.164 92.2309 114.045 78.6844 114.045C65.138 114.045 54.1564 123.164 54.1564 134.413C54.1564 145.663 65.138 154.782 78.6844 154.782Z" fill="#FFB6B6"/>
<path d="M164.643 369.278H147.24L142.803 364.34L141.602 359.687L140.569 358.856C139.167 357.738 138.26 356.26 137.996 354.661C137.732 353.062 138.126 351.436 139.114 350.046L126.502 301.179C123.198 300.938 85.9452 298.172 60.0494 294.366C53.422 293.393 48.2478 290.717 44.6701 286.415C35.8791 275.844 39.6449 258.739 39.6839 258.567L39.7273 258.376L39.9596 258.355L100.447 252.717L100.528 252.749C102.535 253.538 149.777 272.162 157.497 278.573C160.983 281.468 168.761 298.668 170.502 316.954C170.814 320.23 169.691 323.566 168.606 326.792C167.59 329.811 166.54 332.932 166.747 335.883C167.068 340.436 167.371 345.212 167.649 350.079C167.694 350.854 168.397 351.657 169.078 352.433C169.788 353.244 170.46 354.009 170.502 354.811C170.916 362.582 164.799 369.113 164.738 369.178L164.643 369.278Z" fill="#2F2E41"/>
<path d="M168.605 188.665C167.288 188.366 165.907 188.31 164.561 188.502C163.215 188.694 161.935 189.129 160.813 189.775C159.691 190.422 158.753 191.266 158.066 192.246C157.379 193.226 156.959 194.32 156.836 195.45L136.456 200.739L137.306 211.808L165.96 204.002C168.259 204.048 170.499 203.392 172.255 202.159C174.01 200.925 175.16 199.2 175.486 197.309C175.812 195.419 175.292 193.495 174.024 191.901C172.756 190.308 170.828 189.157 168.605 188.665Z" fill="#FFB6B6"/>
<path d="M155.308 206.981L140.077 211.769L139.687 212.396C138.753 213.9 137.138 215.035 135.197 215.551C133.256 216.066 131.147 215.92 129.336 215.144L95.0998 225.905C95.0998 225.905 79.8108 213.199 68.9255 201.861L72.6354 182.912C73.4946 178.515 75.3209 174.287 78.0229 170.44C100.347 174.505 113.161 200.419 113.161 200.419L153.394 194.045L155.308 206.981Z" fill="#6C63FF"/>
<path d="M75.1989 153.693C69.0583 155.07 62.2885 153.239 57.4964 149.766C52.7043 146.293 49.7066 141.371 47.9794 136.288C46.7144 132.565 46.1145 128.432 48.1108 124.937C50.107 121.442 55.4795 119.084 59.6244 120.849C57.0675 118.375 58.3449 114.284 61.3312 112.167C64.3175 110.051 68.4183 109.444 72.3238 109.112C77.9919 108.631 83.8466 108.577 89.2402 110.102C94.6338 111.627 99.5344 114.961 101.222 119.48C102.946 120.146 104.888 120.319 106.743 119.972C108.598 119.624 110.262 118.775 111.474 117.558C111.786 118.956 111.535 120.4 110.76 121.667C109.984 122.935 108.727 123.955 107.184 124.569L115.448 122.344C116.869 124.842 114.378 127.934 111.194 128.734C108.009 129.534 104.572 128.66 101.549 127.504C98.5274 126.348 95.5988 124.887 92.3162 124.436C89.0337 123.985 85.1778 124.861 83.6595 127.32C82.8642 128.607 82.8227 130.115 82.361 131.511C81.8993 132.906 80.7296 134.353 78.9924 134.467C77.8949 134.539 76.8203 134.054 75.7258 134.153C74.3689 134.276 73.3304 135.297 72.969 136.39C72.6965 137.504 72.6932 138.652 72.9592 139.766L75.0584 153.091" fill="#2F2E41"/>
<path d="M44.8111 288.849C44.8065 288.849 44.8018 288.849 44.7973 288.848L44.6033 288.82L44.5472 288.664C43.8421 286.694 42.9447 284.678 42.0769 282.728C40.7988 280.028 39.7196 277.265 38.8454 274.456C38.1573 271.77 37.6802 269.05 37.4172 266.313C37.1751 264.326 36.9247 262.271 36.499 260.248C36.31 259.35 37.0263 258.499 37.7191 257.677C38.3613 256.914 38.9681 256.194 38.8407 255.512C38.7105 254.815 37.7799 254.05 36.8799 253.31C35.8934 252.498 34.8732 251.659 34.7288 250.776C32.7626 238.728 31.8474 226.578 31.9904 214.42C32.1937 197.598 33.1091 186.133 34.7113 180.34C39.0194 164.767 58.9231 161.925 62.0386 161.574C62.3704 160.84 62.8806 160.17 63.5374 159.607C64.1941 159.044 64.9835 158.599 65.8562 158.3C66.729 158.002 67.6665 157.855 68.6104 157.87C69.5542 157.885 70.4843 158.061 71.3427 158.387L85.4846 163.763C88.3532 164.858 90.9202 166.43 93.0261 168.383C95.1319 170.336 96.7315 172.628 97.7256 175.116L99.8265 180.435L100.879 216.137L95.0472 241.279L106.441 255.472C45.7146 283.159 45.0067 288.849 44.8111 288.849Z" fill="#6C63FF"/>
<path d="M141.73 377.437L145.725 377.437L161.325 372.169L169.686 377.436H169.687C174.412 377.437 178.943 378.995 182.284 381.77C185.626 384.544 187.503 388.307 187.503 392.231V392.712L141.73 392.713L141.73 377.437Z" fill="#2F2E41"/>
<path d="M173.708 214.142C172.53 213.568 171.215 213.215 169.855 213.109C168.495 213.002 167.123 213.145 165.837 213.526C164.55 213.908 163.38 214.519 162.409 215.316C161.437 216.114 160.688 217.078 160.215 218.142L138.879 218.833L136.004 227.086L166.336 228.375C168.541 228.918 170.909 228.77 172.991 227.96C175.074 227.149 176.726 225.733 177.635 223.978C178.544 222.224 178.646 220.254 177.922 218.441C177.198 216.628 175.699 215.099 173.708 214.142Z" fill="#FFB6B6"/>
<path d="M156.182 229.266L134.266 229.039L131.492 229.008L86.9021 228.541C86.9021 228.541 74.7934 218.948 64.2497 209.072L65.7275 200.195C67.1691 191.484 72.3729 183.504 80.3705 177.741C95.4715 186.12 104.229 202.706 104.229 202.706L118.913 208.162C129.246 208.546 139.316 210.995 148.266 215.301L153.095 217.624L156.182 229.266Z" fill="#6C63FF"/>
<path d="M317.233 386.164L309.941 387.659L306.94 382.208L305.306 388.609L285.965 392.572C285.038 392.763 284.062 392.702 283.179 392.398C282.297 392.095 281.555 391.566 281.06 390.887C280.566 390.209 280.346 389.417 280.432 388.627C280.518 387.837 280.906 387.091 281.538 386.497L294.351 374.474L292.633 368.694L309.118 366.17L317.233 386.164Z" fill="#2F2E41"/>
<path d="M239.98 388.033L233.026 385.676L234.464 379.803L228.605 384.178L210.162 377.926C209.278 377.626 208.532 377.1 208.034 376.423C207.535 375.747 207.311 374.956 207.392 374.166C207.473 373.376 207.857 372.628 208.486 372.032C209.116 371.436 209.958 371.022 210.891 370.851L229.771 367.397L232.481 361.885L247.595 367.904L239.98 388.033Z" fill="#2F2E41"/>
<path d="M215.763 227.349H210.066C203.94 227.344 198.067 225.32 193.736 221.723C189.404 218.126 186.968 213.25 186.961 208.163V207.9H238.868V208.163C238.861 213.25 236.424 218.126 232.093 221.723C227.761 225.32 221.888 227.344 215.763 227.349Z" fill="#E4E4E4"/>
<path d="M210.066 201.066C210.066 202.372 207.217 203.431 207.217 203.431C207.217 203.431 204.369 202.372 204.369 201.066C204.369 199.76 207.217 198.7 207.217 198.7C207.217 198.7 210.066 199.759 210.066 201.066Z" fill="#3F3D56"/>
<path d="M227.157 201.066C227.157 202.372 224.308 203.431 224.308 203.431C224.308 203.431 221.46 202.372 221.46 201.066C221.46 199.76 224.308 198.7 224.308 198.7C224.308 198.7 227.157 199.759 227.157 201.066Z" fill="#3F3D56"/>
<path d="M215.763 205.797C215.763 207.103 212.914 208.162 212.914 208.162C212.914 208.162 210.066 207.103 210.066 205.797C210.066 204.49 212.914 203.431 212.914 203.431C212.914 203.431 215.763 204.49 215.763 205.797Z" fill="#3F3D56"/>
<path d="M195.823 196.072C197.396 196.072 198.672 195.013 198.672 193.707C198.672 192.4 197.396 191.341 195.823 191.341C194.25 191.341 192.975 192.4 192.975 193.707C192.975 195.013 194.25 196.072 195.823 196.072Z" fill="#3F3D56"/>
<path d="M154.395 188.623L199.322 193.775C199.728 193.822 200.119 193.936 200.471 194.112C200.822 194.287 201.127 194.52 201.368 194.797C201.608 195.073 201.778 195.387 201.868 195.719C201.959 196.051 201.967 196.395 201.892 196.73C201.818 197.066 201.662 197.385 201.435 197.668C201.208 197.952 200.914 198.195 200.571 198.381C200.228 198.568 199.842 198.695 199.438 198.755C199.035 198.815 198.62 198.806 198.221 198.729L154.041 190.219C153.795 190.172 153.581 190.048 153.443 189.873C153.305 189.698 153.253 189.486 153.299 189.28C153.345 189.075 153.484 188.892 153.689 188.769C153.893 188.647 154.146 188.594 154.395 188.623Z" fill="#E4E4E4"/>
<path d="M208.989 71.0764V0H203.292V71.0764C195.508 71.6662 188.27 74.6507 183 79.4442C177.73 84.2377 174.807 90.4938 174.806 96.9847V104.081H194.746C194.746 106.591 195.947 108.997 198.083 110.772C200.22 112.546 203.118 113.543 206.14 113.543C209.162 113.543 212.06 112.546 214.197 110.772C216.334 108.997 217.534 106.591 217.534 104.081H237.474V96.9847C237.473 90.4939 234.551 84.2377 229.281 79.4442C224.01 74.6507 216.773 71.6662 208.989 71.0764Z" fill="#F0F0F0"/>
<path d="M282.339 53.3073V0H278.066V53.3073C272.228 53.7496 266.8 55.988 262.847 59.5831C258.894 63.1782 256.702 67.8704 256.702 72.7385V78.0609H271.657C271.657 79.943 272.557 81.748 274.16 83.0789C275.762 84.4097 277.936 85.1574 280.202 85.1574C282.469 85.1574 284.642 84.4097 286.245 83.0789C287.847 81.748 288.748 79.943 288.748 78.0609H303.703V72.7385C303.702 67.8704 301.51 63.1783 297.557 59.5832C293.605 55.9881 288.177 53.7496 282.339 53.3073Z" fill="#F0F0F0"/>
<path d="M138.013 53.3073V0H133.74V53.3073C127.902 53.7496 122.474 55.988 118.521 59.5831C114.568 63.1782 112.377 67.8704 112.376 72.7385V78.0609H127.331C127.331 79.943 128.231 81.748 129.834 83.0789C131.436 84.4097 133.61 85.1574 135.876 85.1574C138.143 85.1574 140.316 84.4097 141.919 83.0789C143.522 81.748 144.422 79.943 144.422 78.0609H159.377V72.7385C159.376 67.8704 157.184 63.1783 153.232 59.5832C149.279 55.9881 143.851 53.7496 138.013 53.3073Z" fill="#F0F0F0"/>
<path d="M395.181 125.331C391.149 121.427 389.233 116.248 386.01 111.814C382.787 107.381 377.179 103.413 371.254 104.445C367.169 105.156 364.013 108.149 362.415 111.486C360.817 114.822 360.518 118.502 360.238 122.107C360.337 114.699 354.46 107.517 346.363 105.153C338.268 102.79 328.579 105.426 323.492 111.378C321.272 109.669 318.374 108.696 315.347 108.643C312.321 108.591 309.377 109.462 307.072 111.092C302.522 114.469 301.515 120.897 304.861 125.205C308.208 129.513 315.455 131.117 320.773 128.728L322.654 130.164C321.595 133.238 323.648 136.869 327.098 138.026C329.895 138.965 333.845 138.808 334.892 141.246C335.623 142.95 334.256 144.768 332.801 146.077C331.347 147.386 329.62 148.738 329.446 150.549C329.182 153.283 332.583 155.197 335.675 155.774C343.13 157.164 351.402 154.297 355.699 148.834C355.781 148.728 355.872 148.623 355.969 148.517C358.38 145.957 360.136 143.016 361.132 139.873C362.128 136.73 362.341 133.451 361.76 130.237C361.518 128.974 361.761 128.035 362.81 127.736C367.341 126.444 380.037 129.157 383.88 131.608C387.722 134.06 390.799 137.305 394.5 139.915C398.201 142.525 402.918 144.539 407.617 143.828C411.381 143.259 414.583 140.99 416.736 138.253C418.89 135.516 420.129 132.325 421.239 129.155C412.917 133.147 401.526 131.476 395.181 125.331Z" fill="#2F2E41"/>
</svg>
