<svg width="523" height="347" viewBox="0 0 523 347" fill="none" xmlns="http://www.w3.org/2000/svg">
<path d="M172.233 347C156.451 347 140.694 346.626 124.96 345.878C102.478 344.81 79.2302 343.705 57.6225 327.844C42.507 316.749 29.1198 298.948 18.9087 276.365C12.0838 261.059 7.07944 244.453 4.07147 227.131C-1.53955 195.595 -1.34844 162.736 4.62875 131.318C6.72339 120.546 9.61099 110.071 13.2501 100.045C29.0077 56.8574 57.7485 27.8666 92.1032 20.5069C92.3869 20.4582 92.6738 20.4501 92.9588 20.4827C93.1133 20.4937 93.2673 20.5054 93.4244 20.4967L93.6265 20.4117C94.1446 20.1733 94.6769 19.9925 95.2177 19.8712C148.202 9.4315 204.214 30.5547 257.194 80.9555C298.158 119.931 352.447 140.918 423.163 145.117L424.167 145.187C443.853 146.683 462.895 157.425 479.237 176.252C495.367 194.834 507.478 219.626 514.26 247.949C515.094 251.402 515.859 254.997 516.532 258.632C517.159 262.01 517.115 265.546 516.404 268.895C515.692 272.244 514.338 275.293 512.473 277.744V277.751L512.297 277.99C511.873 278.548 511.427 279.083 510.971 279.582L510.434 280.167C505.915 285.094 502.346 288.986 498.074 292.009C495.224 294.011 492.194 295.526 489.056 296.515C471.823 302.076 454.323 307.231 437.042 311.839C403.48 320.795 369.034 328.184 334.661 333.798C280.773 342.592 226.528 347.001 172.233 347ZM92.5571 22.0123C92.4515 22.011 92.346 22.0205 92.2416 22.0407C58.2081 29.3316 29.7394 58.0378 14.138 100.798C10.5348 110.725 7.67577 121.095 5.60196 131.761C-0.320759 162.901 -0.5095 195.467 5.05161 226.724C8.03014 243.88 12.986 260.326 19.745 275.487C29.8562 297.849 43.1064 315.471 58.0634 326.448C79.4772 342.168 102.615 343.267 124.991 344.33C194.976 347.64 265.05 343.603 334.553 332.259C368.904 326.648 403.327 319.265 436.867 310.314C454.136 305.709 471.624 300.558 488.845 295C491.908 294.036 494.865 292.559 497.646 290.605C501.832 287.643 505.367 283.788 509.843 278.907L510.379 278.323C510.771 277.894 511.156 277.436 511.525 276.96L511.63 276.813C515.308 271.907 516.739 265.433 515.555 259.053V259.052C514.888 255.456 514.132 251.9 513.306 248.482C499.451 190.624 463.61 149.735 424.119 146.733L423.12 146.664C390.818 144.745 362.551 139.431 336.708 130.416C305.857 119.655 278.924 103.455 256.656 82.2685C203.877 32.0608 148.1 11.0163 95.3472 21.4065C94.8544 21.519 94.3695 21.6853 93.8975 21.9039L93.5332 22.0388C93.3262 22.051 93.1189 22.0478 92.9122 22.029C92.7904 22.0207 92.6724 22.0123 92.5571 22.0123Z" fill="#F0F0F0"/>
<path d="M163.362 113.057C161.901 111.202 160.407 100.856 158.541 99.8059C159.936 103.884 158.923 104.964 158.916 109.44C158.933 111.981 158.709 114.515 158.248 116.983H126.652V84.3468C126.652 81.4143 127.089 78.5106 127.936 75.8014C128.784 73.0921 130.027 70.6305 131.594 68.5569C133.16 66.4834 135.02 64.8386 137.067 63.7164C139.114 62.5943 141.308 62.0168 143.524 62.0168C144.37 62.0387 145.21 62.2015 146.025 62.5014C148.74 63.4718 151.216 65.3704 153.202 68.0067C155.188 70.6429 156.616 73.9242 157.342 77.5212C159.751 89.1737 163.581 108.57 163.362 113.057Z" fill="#2F2E41"/>
<path d="M128.506 153.205L128.522 127.767L117.224 129.104L121.211 145.147L119.345 185.473C118.44 185.742 117.614 186.354 116.967 187.233C116.32 188.113 115.88 189.223 115.701 190.428C115.523 191.632 115.613 192.88 115.96 194.018C116.308 195.156 116.899 196.136 117.66 196.837C118.421 197.539 119.32 197.932 120.247 197.969C121.174 198.007 122.089 197.686 122.881 197.047C123.673 196.407 124.307 195.477 124.706 194.368C125.106 193.26 125.253 192.022 125.129 190.805L128.506 153.205Z" fill="#FFB6B6"/>
<path d="M150.74 334.985L155.304 334.984L157.476 311.683H150.739L150.74 334.985Z" fill="#FFB6B6"/>
<path d="M149.194 332.005L156.41 331.435V335.526L163.27 341.796C163.608 342.106 163.864 342.551 163.998 343.066C164.132 343.581 164.138 344.14 164.016 344.66C163.893 345.18 163.648 345.635 163.317 345.958C162.985 346.281 162.584 346.455 162.172 346.455H153.582L152.102 342.408L151.523 346.455H148.285L149.194 332.005Z" fill="#2F2E41"/>
<path d="M124.348 334.985L128.913 334.984L131.084 311.683H124.348L124.348 334.985Z" fill="#FFB6B6"/>
<path d="M122.803 332.005L130.018 331.435V335.526L136.878 341.796C137.217 342.106 137.472 342.551 137.606 343.066C137.74 343.581 137.747 344.14 137.624 344.66C137.502 345.18 137.257 345.635 136.925 345.958C136.593 346.281 136.192 346.455 135.781 346.455H127.191L125.71 342.408L125.132 346.455H121.893L122.803 332.005Z" fill="#2F2E41"/>
<path d="M146.676 100.297L137.22 100.542L130.546 109.867L125.195 110.906C122.774 111.375 120.549 112.931 118.891 115.311C117.232 117.692 116.242 120.754 116.084 123.985L117.011 130.724H122.573L125.791 155.729C124.54 159.948 124.455 163.279 127.023 164.587L134.995 184.463L158.541 170.477C159.735 167.76 160.118 165.031 158.897 162.377L160.581 124.099H166.241C166.241 116.94 164.411 110.905 159.035 110.108C156.901 109.802 154.756 109.64 152.608 109.621L146.676 100.297Z" fill="#E6E6E6"/>
<path d="M158.541 170.476C158.541 170.476 135.552 175.875 127.023 164.587C127.023 164.587 126.157 166.533 124.853 169.759C124.477 170.687 123.753 171.316 123.315 172.439C122.917 173.461 121.894 174.717 121.461 175.875C121.112 176.807 121.672 178.025 121.309 179.032C116.941 191.157 111.839 208.26 112.933 219.553C113.638 226.836 115.095 243.783 116.63 261.984C116.75 263.407 115.779 265.233 115.899 266.667C116.013 268.018 117.218 268.976 117.332 270.331C117.407 271.231 116.565 272.148 116.641 273.047C116.723 274.033 117.723 274.999 117.805 275.981C119.907 301.113 121.832 324.577 121.832 324.577H132.585L134.614 270.988L132.956 251.453L136.849 211.946L142.226 249.49L142.918 270.62L148.6 325.559H158.541V272.374L159.283 269.611L158.541 266.068L159.283 262.25L158.541 258.092V170.476Z" fill="#2F2E41"/>
<path d="M149.578 93.0394C148.113 95.6146 146.03 97.4527 143.67 98.2512C141.311 99.0496 138.816 98.7608 136.597 97.4322C134.378 96.1035 132.568 93.8144 131.463 90.9417C130.358 88.0691 130.026 84.7842 130.52 81.628C131.015 78.4718 132.307 75.6326 134.183 73.578C136.059 71.5233 138.409 70.3757 140.844 70.3241C143.279 70.2725 145.654 71.32 147.58 73.2942C149.505 75.2684 150.865 78.0514 151.435 81.185C151.466 81.355 151.492 81.5241 151.517 81.6996C151.818 83.6638 151.801 85.6902 151.467 87.6449C151.133 89.5997 150.489 91.4384 149.578 93.0394Z" fill="#FFB6B6"/>
<path d="M147.343 84.9458C147.116 83.4355 146.541 82.0554 145.697 80.9951C145.78 82.4424 145.628 83.8966 145.252 85.2599C142.433 85.5903 139.601 84.8479 137.091 83.1202C135.199 81.4221 132.793 81.5693 129.99 83.1202C129.989 81.3156 130.258 79.5286 130.78 77.8613C131.301 76.194 132.066 74.679 133.03 73.403C133.994 72.1269 135.139 71.1147 136.399 70.4242C137.658 69.7337 139.009 69.3784 140.372 69.3787H142.226C144.98 69.3793 147.62 70.8273 149.567 73.4042C151.514 75.9811 152.608 79.4759 152.609 83.1202C150.897 83.9325 149.135 84.5434 147.343 84.9458Z" fill="#2F2E41"/>
<path d="M66.2312 260.086C82.7044 260.086 96.0586 242.411 96.0586 220.609C96.0586 198.806 82.7044 181.131 66.2312 181.131C49.7579 181.131 36.4037 198.806 36.4037 220.609C36.4037 242.411 49.7579 260.086 66.2312 260.086Z" fill="#F0F0F0"/>
<path d="M256.308 78.9547C272.781 78.9547 286.135 61.2801 286.135 39.4774C286.135 17.6746 272.781 0 256.308 0C239.835 0 226.48 17.6746 226.48 39.4774C226.48 61.2801 239.835 78.9547 256.308 78.9547Z" fill="#F0F0F0"/>
<path d="M493.173 266.279C509.646 266.279 523 248.604 523 226.801C523 204.999 509.646 187.324 493.173 187.324C476.699 187.324 463.345 204.999 463.345 226.801C463.345 248.604 476.699 266.279 493.173 266.279Z" fill="#F0F0F0"/>
<path d="M310.114 43.7826V133.3C310.114 135.16 309.56 136.944 308.572 138.266C307.584 139.587 306.242 140.34 304.837 140.359C304.817 140.362 304.798 140.363 304.778 140.362H296.906C290.608 140.362 284.567 137.051 280.113 131.156C275.66 125.261 273.158 117.267 273.158 108.93V43.7826C273.158 41.9096 273.72 40.1133 274.72 38.7889C275.721 37.4645 277.078 36.7205 278.493 36.7205H281.683C280.205 42.4258 300.261 44.8278 301.362 36.7205H304.778C306.193 36.7205 307.551 37.4645 308.551 38.7889C309.552 40.1133 310.114 41.9096 310.114 43.7826Z" fill="#6C63FF"/>
<path d="M306.412 151.717H276.341C274.008 151.713 271.772 150.485 270.122 148.302C268.472 146.118 267.544 143.158 267.541 140.07V77.4937C267.376 77.3368 267.242 77.13 267.149 76.8905C267.057 76.6511 267.008 76.3858 267.009 76.1168V69.8234C267.008 69.5544 267.057 69.2892 267.149 69.0498C267.242 68.8104 267.376 68.6037 267.541 68.4468V66.7577C267.376 66.6008 267.242 66.3941 267.149 66.1547C267.057 65.9153 267.008 65.6502 267.009 65.3812V59.0873C267.008 58.8184 267.057 58.5531 267.149 58.3138C267.242 58.0744 267.376 57.8677 267.541 57.7108V54.658C267.338 54.5131 267.167 54.2975 267.049 54.0344C266.93 53.7713 266.868 53.4706 266.869 53.1643V46.8709C266.868 46.5645 266.93 46.2637 267.049 46.0005C267.167 45.7374 267.338 45.5218 267.541 45.3768V37.0117C267.544 33.9239 268.472 30.9636 270.122 28.7802C271.772 26.5968 274.008 25.3687 276.341 25.3652H306.412C308.745 25.3687 310.982 26.5969 312.631 28.7803C314.281 30.9637 315.209 33.924 315.212 37.0118V55.2457C315.37 55.3769 315.501 55.5593 315.591 55.7757C315.682 55.9921 315.73 56.2354 315.73 56.4828V68.4831C315.73 68.7306 315.682 68.9739 315.591 69.1904C315.501 69.4068 315.37 69.5892 315.212 69.7205V140.07C315.209 143.158 314.281 146.118 312.631 148.302C310.982 150.485 308.745 151.713 306.412 151.717ZM276.341 26.9134C274.318 26.9164 272.379 27.9813 270.949 29.8744C269.518 31.7676 268.713 34.3344 268.711 37.0118V46.6936L268.149 46.7223C268.119 46.7237 268.092 46.7399 268.071 46.7675C268.051 46.7952 268.039 46.8322 268.038 46.8709V53.1643C268.039 53.2029 268.051 53.2399 268.071 53.2675C268.092 53.2951 268.119 53.3113 268.149 53.3128L268.711 53.3412V58.7978L268.266 58.9429C268.242 58.9508 268.22 58.9692 268.204 58.9953C268.188 59.0214 268.179 59.0538 268.178 59.0873V65.3811C268.179 65.4147 268.188 65.447 268.204 65.4731C268.22 65.4992 268.242 65.5177 268.266 65.5255L268.711 65.6707V69.5338L268.266 69.6789C268.242 69.6868 268.22 69.7052 268.204 69.7313C268.188 69.7575 268.179 69.7898 268.178 69.8233V76.1168C268.179 76.1504 268.188 76.1828 268.204 76.2089C268.22 76.2351 268.242 76.2536 268.266 76.2615L268.711 76.4066V140.07C268.713 142.748 269.518 145.314 270.949 147.208C272.379 149.101 274.318 150.166 276.341 150.169H306.412C308.435 150.165 310.374 149.101 311.805 147.207C313.235 145.314 314.04 142.747 314.042 140.07V68.395H314.56V56.5713H314.042V37.0117C314.04 34.3344 313.235 31.7676 311.805 29.8745C310.374 27.9813 308.435 26.9164 306.412 26.9133L276.341 26.9134Z" fill="#3F3D56"/>
<path d="M142.748 209.31H64.5023C63.3911 209.306 62.3263 208.72 61.5405 207.68C60.7547 206.64 60.312 205.231 60.309 203.76V153.3C60.3118 151.829 60.7545 150.42 61.5401 149.38C62.3258 148.34 63.3906 147.754 64.5017 147.75H142.747C143.858 147.754 144.923 148.339 145.709 149.379C146.495 150.419 146.938 151.828 146.941 153.299V203.76C146.938 205.23 146.495 206.64 145.709 207.68C144.924 208.72 143.859 209.306 142.748 209.31Z" fill="white"/>
<path d="M142.748 209.31H64.5023C63.3911 209.306 62.3263 208.72 61.5405 207.68C60.7547 206.64 60.312 205.231 60.309 203.76V153.3C60.3118 151.829 60.7545 150.42 61.5401 149.38C62.3258 148.34 63.3906 147.754 64.5017 147.75H142.747C143.858 147.754 144.923 148.339 145.709 149.379C146.495 150.419 146.938 151.828 146.941 153.299V203.76C146.938 205.23 146.495 206.64 145.709 207.68C144.924 208.72 143.859 209.306 142.748 209.31ZM64.5023 149.298C63.701 149.301 62.9332 149.724 62.3667 150.474C61.8001 151.224 61.4809 152.24 61.4787 153.301V203.76C61.481 204.82 61.8004 205.836 62.367 206.586C62.9337 207.336 63.7016 207.759 64.5029 207.761H142.747C143.548 207.759 144.316 207.336 144.883 206.586C145.449 205.836 145.769 204.819 145.771 203.759V153.3C145.769 152.239 145.449 151.223 144.883 150.473C144.316 149.723 143.548 149.301 142.747 149.298L64.5023 149.298Z" fill="#3F3D56"/>
<path d="M107.819 201.852C92.3869 201.852 76.2958 201.657 70.2921 201.531C69.5022 201.509 68.7499 201.08 68.196 200.334C67.642 199.589 67.3302 198.586 67.3271 197.54V155.77C67.3275 155.396 67.4398 155.037 67.6396 154.772C67.8394 154.507 68.1104 154.357 68.3933 154.356H138.854C139.137 154.356 139.408 154.505 139.608 154.769C139.808 155.034 139.921 155.392 139.922 155.767V184.107C139.909 188.733 138.527 193.168 136.071 196.46C133.616 199.753 130.283 201.641 126.788 201.718C121.193 201.815 114.567 201.852 107.819 201.852Z" fill="#6C63FF"/>
<path d="M134.671 181.503H71.0048C70.4717 181.501 69.952 181.282 69.5163 180.875C69.0805 180.469 68.75 179.895 68.5694 179.231L61.3633 152.474C61.2245 151.958 61.1812 151.405 61.2371 150.863C61.2931 150.32 61.4466 149.803 61.6848 149.355C61.9231 148.907 62.2391 148.541 62.6062 148.288C62.9734 148.035 63.3811 147.903 63.795 147.902L143.377 147.755C143.755 147.755 144.129 147.864 144.472 148.075C144.815 148.287 145.119 148.595 145.362 148.979C145.605 149.362 145.781 149.812 145.879 150.296C145.977 150.779 145.993 151.286 145.927 151.779L145.988 151.813L145.76 152.519L145.757 152.526L137.046 179.429C136.847 180.045 136.516 180.57 136.094 180.938C135.672 181.307 135.177 181.504 134.671 181.503ZM143.381 149.303L63.7972 149.45C63.5705 149.45 63.3472 149.523 63.146 149.661C62.9449 149.8 62.7718 150 62.6412 150.246C62.5107 150.491 62.4266 150.774 62.3959 151.072C62.3653 151.369 62.389 151.672 62.465 151.954L69.6709 178.71C69.7699 179.074 69.9512 179.388 70.1899 179.611C70.4287 179.834 70.7135 179.954 71.0056 179.955H134.671C134.948 179.955 135.219 179.848 135.45 179.646C135.681 179.444 135.862 179.156 135.971 178.819L144.682 151.916C144.775 151.631 144.812 151.32 144.791 151.011C144.77 150.702 144.692 150.405 144.563 150.146C144.434 149.887 144.258 149.674 144.052 149.527C143.846 149.38 143.615 149.303 143.381 149.303Z" fill="#3F3D56"/>
<path d="M103.506 187.327C106.259 187.327 108.491 184.373 108.491 180.729C108.491 177.085 106.259 174.131 103.506 174.131C100.753 174.131 98.5209 177.085 98.5209 180.729C98.5209 184.373 100.753 187.327 103.506 187.327Z" fill="white"/>
<path d="M291.828 130.046C294.582 130.046 296.814 127.092 296.814 123.448C296.814 119.804 294.582 116.85 291.828 116.85C289.075 116.85 286.843 119.804 286.843 123.448C286.843 127.092 289.075 130.046 291.828 130.046Z" fill="white"/>
<path d="M480.382 219.154L467.065 201.753C466.417 200.899 465.647 200.223 464.801 199.763C463.955 199.304 463.049 199.069 462.134 199.074H462.088C461.166 199.078 460.254 199.323 459.405 199.796C458.556 200.269 457.786 200.96 457.14 201.83C454.162 205.818 452.469 211.179 452.415 216.786C452.362 222.392 453.953 227.808 456.853 231.895C456.994 232.096 457.14 232.289 457.286 232.483C458.096 233.549 458.99 234.496 459.953 235.308C462.586 237.56 465.656 238.751 468.79 238.737H468.89C471.041 238.728 473.169 238.154 475.152 237.048C477.135 235.943 478.932 234.328 480.44 232.297C481.747 230.542 482.475 228.173 482.464 225.709C482.453 223.245 481.704 220.888 480.382 219.154ZM479.61 231.206C477.137 234.502 473.882 236.57 470.392 237.061C466.902 237.552 463.391 236.435 460.45 233.899C459.609 233.163 458.824 232.32 458.105 231.384C455.235 227.633 453.609 222.527 453.584 217.189C453.559 211.852 455.137 206.719 457.97 202.921C458.509 202.195 459.151 201.617 459.86 201.223C460.569 200.828 461.33 200.624 462.099 200.622H462.134C462.896 200.619 463.65 200.814 464.355 201.196C465.059 201.579 465.7 202.141 466.24 202.852L479.557 220.26C480.66 221.704 481.284 223.667 481.294 225.719C481.304 227.771 480.698 229.744 479.61 231.206Z" fill="#3F3D56"/>
<path d="M436.688 162.043L423.371 144.634C422.06 142.913 420.287 141.95 418.44 141.956H418.399C417.477 141.961 416.564 142.207 415.714 142.682C414.863 143.156 414.093 143.849 413.446 144.719C410.984 148.028 409.388 152.294 408.891 156.89C408.394 161.487 409.023 166.174 410.685 170.263L410.691 170.271C411.377 171.944 412.228 173.488 413.223 174.861C413.335 175.032 413.463 175.202 413.592 175.372C416.65 179.39 420.787 181.639 425.096 181.627H425.201C427.353 181.615 429.481 181.039 431.464 179.932C433.447 178.825 435.244 177.21 436.752 175.179C437.4 174.311 437.912 173.282 438.259 172.152C438.606 171.022 438.782 169.813 438.776 168.593C438.77 167.373 438.582 166.167 438.224 165.043C437.866 163.919 437.344 162.9 436.688 162.043ZM435.916 174.095C434.516 175.98 432.848 177.479 431.008 178.506C429.168 179.533 427.192 180.067 425.195 180.079H425.096C422.097 180.077 419.165 178.902 416.67 176.701C414.174 174.5 412.226 171.372 411.07 167.709C409.914 164.047 409.603 160.013 410.174 156.117C410.746 152.221 412.175 148.635 414.282 145.811C415.372 144.352 416.856 143.525 418.406 143.512C419.956 143.499 421.448 144.301 422.552 145.741L435.869 163.142C436.971 164.588 437.594 166.552 437.603 168.606C437.612 170.659 437.005 172.633 435.916 174.095Z" fill="#3F3D56"/>
<path d="M481.233 224.624L466.551 205.432C465.589 204.177 464.289 203.478 462.937 203.489C461.586 203.5 460.293 204.22 459.342 205.492C458.152 207.082 457.211 208.967 456.572 211.039C455.934 213.112 455.61 215.33 455.619 217.568C455.629 219.806 455.972 222.019 456.628 224.082C457.284 226.144 458.241 228.015 459.445 229.588C460.648 231.161 462.073 232.404 463.639 233.247C465.206 234.09 466.882 234.516 468.573 234.501C470.264 234.486 471.936 234.03 473.493 233.159C475.051 232.288 476.464 231.019 477.651 229.425L481.233 224.624Z" fill="#6C63FF"/>
<path d="M437.542 167.51L422.86 148.318C421.897 147.063 420.597 146.364 419.246 146.375C417.894 146.386 416.601 147.106 415.65 148.378C414.461 149.968 413.52 151.853 412.881 153.926C412.242 155.998 411.918 158.216 411.928 160.454C411.938 162.692 412.28 164.905 412.937 166.968C413.593 169.03 414.55 170.901 415.753 172.474C416.956 174.047 418.382 175.29 419.948 176.133C421.514 176.976 423.191 177.402 424.882 177.387C426.572 177.372 428.244 176.916 429.802 176.045C431.36 175.174 432.772 173.905 433.959 172.311L437.542 167.51Z" fill="#6C63FF"/>
<path d="M465.1 236.578L464.749 237.801C463.099 236.973 461.501 236.142 459.953 235.308C432.535 220.501 419.446 203.169 410.691 170.271L410.685 170.264C410.27 168.716 409.866 167.131 409.474 165.511L410.399 165.116C410.708 166.675 411.159 168.177 411.744 169.59C412.223 171.394 412.717 173.151 413.223 174.862C421.452 202.627 433.588 218.496 456.853 231.895C458.023 232.568 459.222 233.237 460.45 233.9C461.876 235.129 463.448 236.035 465.1 236.578Z" fill="#3F3D56"/>
<path d="M423.127 180.218L422.304 181.319L452.68 221.027L453.503 219.926L423.127 180.218Z" fill="#3F3D56"/>
<path d="M165.957 147.316L165.973 121.878L154.675 123.214L158.662 139.258L144.189 168.296C143.284 168.565 142.457 169.177 141.81 170.056C141.163 170.936 140.724 172.046 140.545 173.25C140.366 174.455 140.457 175.703 140.804 176.841C141.152 177.979 141.742 178.958 142.504 179.66C143.265 180.362 144.164 180.755 145.091 180.792C146.018 180.829 146.933 180.509 147.725 179.869C148.517 179.23 149.151 178.299 149.55 177.191C149.949 176.083 150.096 174.845 149.973 173.628L165.957 147.316Z" fill="#FFB6B6"/>
</svg>
