<svg width="419" height="439" viewBox="0 0 419 439" fill="none" xmlns="http://www.w3.org/2000/svg">
<path d="M375.775 415H366.212L361.663 383L375.777 383.001L375.775 415Z" fill="#FFB8B8"/>
<path d="M359.478 413H378.423V423H347.549C347.549 420.348 348.806 417.804 351.043 415.929C353.28 414.054 356.314 413 359.478 413Z" fill="#2F2E41"/>
<path d="M414.589 413.178L404.607 414L396.065 382.213L410.797 381L414.589 413.178Z" fill="#FFB8B8"/>
<path d="M397.442 412.249L416.513 410.665L417.696 420.79L386.618 423.371C386.462 422.041 386.619 420.699 387.079 419.42C387.539 418.142 388.293 416.952 389.298 415.92C390.303 414.887 391.54 414.031 392.937 413.401C394.335 412.771 395.866 412.38 397.442 412.249Z" fill="#2F2E41"/>
<path d="M406.942 207.928C415.694 210.626 417.236 239.853 417.236 239.853C406.939 234.907 394.582 243 394.582 243C394.582 243 392.008 235.356 388.919 225.465C387.986 222.682 387.875 219.739 388.595 216.909C389.315 214.079 390.843 211.454 393.037 209.279C393.037 209.279 398.189 205.228 406.942 207.928Z" fill="#6C63FF"/>
<path d="M41.5221 371.147L37.7194 355.901C30.977 352.996 24.0789 350.48 17.0578 348.364L16.5778 355.45L14.6312 347.644C5.92377 345.113 0 344 0 344C0 344 7.99961 374.933 24.7837 398.581L44.3388 402.073L29.147 404.3C31.2583 406.883 33.5272 409.328 35.9403 411.621C60.3537 434.658 87.546 445.228 96.6754 435.229C105.805 425.229 93.4147 398.448 69.0014 375.413C61.433 368.271 51.9257 362.54 42.4084 358.028L41.5221 371.147Z" fill="#F2F2F2"/>
<path d="M78.1869 353.953L82.7026 338.937C78.3905 332.921 73.746 327.156 68.7911 321.668L64.7609 327.468L67.0729 319.78C60.8791 313.056 56.3558 309 56.3558 309C56.3558 309 47.4414 339.613 49.793 368.61L64.8191 381.845L50.6212 375.782C51.118 379.095 51.8206 382.373 52.7248 385.597C61.9483 418.073 79.9255 441.357 92.8777 437.603C105.83 433.849 108.853 404.48 99.6297 372.005C96.7706 361.937 91.5238 352.058 85.6467 343.215L78.1869 353.953Z" fill="#F2F2F2"/>
<path d="M302.562 104.322H300.181V38.2451C300.181 33.2227 299.204 28.2494 297.307 23.6093C295.409 18.9692 292.628 14.7531 289.121 11.2017C285.615 7.65034 281.453 4.83323 276.872 2.91123C272.291 0.989235 267.381 0 262.422 0H124.205C114.191 0 104.587 4.02938 97.5056 11.2017C90.4244 18.3741 86.4463 28.1019 86.4463 38.2451V400.755C86.4463 405.777 87.423 410.751 89.3205 415.391C91.2181 420.031 93.9994 424.247 97.5056 427.798C101.012 431.35 105.174 434.167 109.755 436.089C114.336 438.011 119.246 439 124.205 439H262.422C272.436 439 282.04 434.97 289.121 427.798C296.202 420.626 300.18 410.898 300.18 400.755V151.357H302.562L302.562 104.322Z" fill="#E6E6E6"/>
<path d="M263.827 10H245.817C246.646 12.0599 246.962 14.2949 246.738 16.508C246.514 18.7211 245.757 20.8444 244.534 22.6908C243.31 24.5372 241.658 26.05 239.722 27.096C237.787 28.142 235.627 28.6891 233.434 28.689H154.386C152.193 28.6889 150.033 28.1417 148.098 27.0956C146.162 26.0495 144.51 24.5367 143.287 22.6903C142.064 20.8439 141.307 18.7207 141.083 16.5077C140.859 14.2947 141.175 12.0599 142.003 10H125.181C117.716 10 110.556 13.0083 105.276 18.3632C99.9974 23.7181 97.0316 30.9809 97.0316 38.5539V400.446C97.0316 408.019 99.9974 415.282 105.276 420.637C110.556 425.992 117.716 429 125.181 429H263.827C271.293 429 278.453 425.992 283.732 420.637C289.011 415.282 291.977 408.019 291.977 400.446V38.5533C291.977 30.9804 289.011 23.7178 283.732 18.363C278.453 13.0083 271.293 10 263.827 10Z" fill="white"/>
<path d="M176.419 154.501C176.418 151.955 177.071 149.454 178.31 147.25C179.549 145.045 181.332 143.215 183.478 141.944C181.333 140.671 178.899 140 176.421 140C173.944 140 171.51 140.67 169.365 141.942C167.219 143.215 165.437 145.045 164.198 147.25C162.96 149.454 162.307 151.955 162.307 154.5C162.307 157.045 162.96 159.546 164.198 161.75C165.437 163.955 167.219 165.785 169.365 167.058C171.51 168.33 173.944 169 176.421 169C178.899 169 181.333 168.329 183.478 167.056C181.332 165.785 179.549 163.955 178.31 161.751C177.071 159.547 176.418 157.046 176.419 154.501Z" fill="#CCCCCC"/>
<path d="M194.061 154.501C194.06 151.955 194.713 149.454 195.952 147.25C197.191 145.045 198.974 143.215 201.12 141.944C198.975 140.671 196.541 140 194.064 140C191.586 140 189.152 140.67 187.007 141.942C184.861 143.215 183.079 145.045 181.84 147.25C180.602 149.454 179.949 151.955 179.949 154.5C179.949 157.045 180.602 159.546 181.84 161.75C183.079 163.955 184.861 165.785 187.007 167.058C189.152 168.33 191.586 169 194.064 169C196.541 169 198.975 168.329 201.12 167.056C198.974 165.785 197.191 163.955 195.952 161.751C194.713 159.547 194.061 157.046 194.061 154.501Z" fill="#CCCCCC"/>
<path d="M211.705 169C219.5 169 225.819 162.508 225.819 154.5C225.819 146.492 219.5 140 211.705 140C203.911 140 197.592 146.492 197.592 154.5C197.592 162.508 203.911 169 211.705 169Z" fill="#6C63FF"/>
<path d="M235.213 199H152.913C152.13 198.999 151.379 198.681 150.824 198.116C150.27 197.551 149.959 196.784 149.958 195.985V112.015C149.959 111.216 150.27 110.449 150.824 109.884C151.379 109.319 152.13 109.001 152.913 109H235.213C235.997 109.001 236.748 109.319 237.302 109.884C237.856 110.449 238.168 111.216 238.168 112.015V195.985C238.168 196.784 237.856 197.551 237.302 198.116C236.748 198.681 235.997 198.999 235.213 199ZM152.913 110.207C152.443 110.207 151.992 110.398 151.66 110.737C151.328 111.076 151.141 111.536 151.14 112.016V195.985C151.141 196.465 151.328 196.925 151.66 197.264C151.992 197.603 152.443 197.794 152.913 197.794H235.213C235.683 197.794 236.134 197.603 236.466 197.264C236.799 196.925 236.986 196.465 236.986 195.985V112.016C236.986 111.536 236.799 111.076 236.466 110.737C236.134 110.398 235.683 110.207 235.213 110.207H152.913Z" fill="#CCCCCC"/>
<path d="M254.046 263H127.023V264H254.046V263Z" fill="#CCCCCC"/>
<path d="M130.993 256C133.185 256 134.962 254.209 134.962 252C134.962 249.791 133.185 248 130.993 248C128.8 248 127.023 249.791 127.023 252C127.023 254.209 128.8 256 130.993 256Z" fill="#6C63FF"/>
<path d="M254.046 304H127.023V306H254.046V304Z" fill="#CCCCCC"/>
<path d="M130.993 297C133.185 297 134.962 295.209 134.962 293C134.962 290.791 133.185 289 130.993 289C128.8 289 127.023 290.791 127.023 293C127.023 295.209 128.8 297 130.993 297Z" fill="#6C63FF"/>
<path d="M251.453 350H211.652C210.965 349.999 210.305 349.728 209.819 349.245C209.333 348.762 209.06 348.108 209.059 347.425V333.575C209.06 332.892 209.333 332.238 209.819 331.755C210.305 331.272 210.965 331.001 211.652 331H251.453C252.141 331.001 252.8 331.272 253.286 331.755C253.772 332.238 254.046 332.892 254.046 333.575V347.425C254.046 348.108 253.772 348.762 253.286 349.245C252.8 349.728 252.141 349.999 251.453 350Z" fill="#6C63FF"/>
<path d="M144.224 256C146.416 256 148.194 254.209 148.194 252C148.194 249.791 146.416 248 144.224 248C142.032 248 140.255 249.791 140.255 252C140.255 254.209 142.032 256 144.224 256Z" fill="#6C63FF"/>
<path d="M157.456 256C159.648 256 161.425 254.209 161.425 252C161.425 249.791 159.648 248 157.456 248C155.264 248 153.486 249.791 153.486 252C153.486 254.209 155.264 256 157.456 256Z" fill="#6C63FF"/>
<path d="M144.224 297C146.416 297 148.194 295.209 148.194 293C148.194 290.791 146.416 289 144.224 289C142.032 289 140.255 290.791 140.255 293C140.255 295.209 142.032 297 144.224 297Z" fill="#6C63FF"/>
<path d="M157.456 297C159.648 297 161.425 295.209 161.425 293C161.425 290.791 159.648 289 157.456 289C155.264 289 153.486 290.791 153.486 293C153.486 295.209 155.264 297 157.456 297Z" fill="#6C63FF"/>
<path d="M318.71 248.651C319.109 248.804 319.493 248.984 319.858 249.188L356.36 236.133L357.663 228.075L372.248 228L371.387 246.481L323.208 257.158C323.107 257.439 322.985 257.714 322.844 257.982C322.147 259.228 321.027 260.273 319.624 260.987C318.221 261.7 316.597 262.051 314.957 261.994C313.317 261.937 311.734 261.475 310.406 260.667C309.078 259.858 308.065 258.739 307.493 257.449C306.922 256.16 306.818 254.758 307.195 253.419C307.571 252.08 308.412 250.864 309.61 249.924C310.808 248.984 312.311 248.362 313.93 248.135C315.55 247.909 317.212 248.088 318.71 248.651Z" fill="#FFB8B8"/>
<path d="M380.628 194C391.59 194 400.476 186.389 400.476 177C400.476 167.611 391.59 160 380.628 160C369.667 160 360.781 167.611 360.781 177C360.781 186.389 369.667 194 380.628 194Z" fill="#FFB8B8"/>
<path d="M365.58 411C364.725 411.002 363.897 410.748 363.242 410.282C362.587 409.816 362.146 409.169 361.998 408.455C356.851 384.203 340.026 304.905 339.623 302.709C339.614 302.658 339.61 302.607 339.611 302.556V296.644C339.61 296.428 339.689 296.218 339.837 296.043L342.06 293.401C342.166 293.274 342.304 293.169 342.465 293.094C342.626 293.02 342.804 292.977 342.988 292.971C355.66 292.466 397.161 290.989 399.166 293.115C401.179 295.251 400.468 301.725 400.305 303.001L400.313 303.134L418.958 404.336C419.104 405.143 418.869 405.966 418.305 406.628C417.741 407.29 416.893 407.736 415.944 407.871L404.299 409.499C403.431 409.618 402.543 409.468 401.795 409.077C401.047 408.686 400.489 408.08 400.222 407.37C396.62 397.602 384.543 364.741 380.357 352.026C380.331 351.946 380.272 351.876 380.189 351.83C380.107 351.784 380.008 351.766 379.91 351.777C379.813 351.789 379.724 351.83 379.66 351.894C379.596 351.957 379.561 352.038 379.562 352.122C379.771 364.243 380.277 395.167 380.451 405.848L380.47 406.998C380.478 407.777 380.141 408.53 379.526 409.108C378.912 409.687 378.064 410.048 377.15 410.121L365.92 410.987C365.806 410.996 365.692 411 365.58 411Z" fill="#2F2E41"/>
<path d="M368.119 200.568C364.638 202.316 362.555 205.529 361.36 208.798C359.147 214.851 357.815 221.109 357.393 227.434L356.13 246.372L340.493 296.577C354.046 306.266 361.863 304.064 380.107 296.139C398.351 288.214 400.436 298.781 400.436 298.781L404.084 256.063L409.297 209.382C408.127 208.192 406.803 207.116 405.349 206.175C400.531 203.01 394.926 200.81 388.955 199.74C382.985 198.671 376.805 198.761 370.881 200.003L368.119 200.568Z" fill="#6C63FF"/>
<path d="M362.605 258.976C363.028 259.11 363.437 259.272 363.83 259.461L400.023 244.159L400.624 235.869L415.553 235L416.354 253.897L367.986 267.408C367.591 268.838 366.69 270.134 365.402 271.121C364.114 272.109 362.501 272.742 360.777 272.936C359.053 273.131 357.299 272.877 355.75 272.209C354.201 271.541 352.929 270.491 352.104 269.198C351.278 267.904 350.939 266.43 351.13 264.969C351.321 263.509 352.034 262.132 353.174 261.023C354.314 259.913 355.827 259.123 357.512 258.757C359.196 258.392 360.973 258.468 362.605 258.976Z" fill="#FFB8B8"/>
<path d="M398.386 181.596C395.916 179.879 392.544 183 392.544 183L390.568 167.549C390.568 167.549 378.213 168.834 370.306 167.12C362.4 165.406 361.164 173.344 361.164 173.344C360.757 170.137 360.674 166.906 360.917 163.687C361.411 159.824 367.836 155.961 379.202 153.386C390.568 150.81 396.497 161.97 396.497 161.97C404.405 165.403 400.857 183.313 398.386 181.596Z" fill="#2F2E41"/>
</svg>
