<svg width="402" height="421" viewBox="0 0 402 421" fill="none" xmlns="http://www.w3.org/2000/svg">
<path d="M393.06 421V370.656C393.06 370.656 413.175 406.348 393.06 421Z" fill="#F1F1F1"/>
<path d="M394.302 420.991L356.278 386.945C356.278 386.945 396.839 396.63 394.302 420.991Z" fill="#F1F1F1"/>
<path d="M192.809 89.6229H190.685V32.8554C190.685 24.1416 187.136 15.7847 180.818 9.62314C174.501 3.46155 165.932 5.53727e-06 156.998 0H33.6866C29.2628 -1.00529e-05 24.8823 0.84981 20.7953 2.50094C16.7083 4.15207 12.9947 6.57219 9.86659 9.62309C6.73851 12.674 4.25717 16.2959 2.56426 20.2821C0.871344 24.2683 7.49623e-06 28.5407 0 32.8554V344.286C-7.56965e-06 353 3.54909 361.357 9.86653 367.518C16.184 373.68 24.7522 377.141 33.6865 377.141H156.998C165.932 377.141 174.501 373.68 180.818 367.518C187.136 361.357 190.685 353 190.685 344.286V130.031H192.809V89.6229Z" fill="#3F3D56"/>
<path d="M158.357 8.54787H142.261C143.001 10.3179 143.284 12.2383 143.084 14.1399C142.884 16.0415 142.208 17.866 141.114 19.4526C140.021 21.0392 138.545 22.3392 136.815 23.2381C135.085 24.1371 133.155 24.6073 131.195 24.6074H60.5517C58.5917 24.6073 56.6619 24.1371 54.9322 23.2381C53.2024 22.3392 51.7259 21.0392 50.6327 19.4526C49.5395 17.866 48.8631 16.0415 48.6631 14.1399C48.4631 12.2383 48.7456 10.3179 49.4858 8.54785H34.4519C31.1483 8.54784 27.877 9.18249 24.8249 10.4155C21.7727 11.6486 18.9994 13.4559 16.6634 15.7343C14.3274 18.0127 12.4744 20.7175 11.2101 23.6943C9.94587 26.6712 9.29517 29.8618 9.29517 33.0839V344.057C9.29516 347.28 9.94585 350.47 11.2101 353.447C12.4743 356.424 14.3274 359.129 16.6634 361.407C18.9994 363.685 21.7727 365.493 24.8248 366.726C27.877 367.959 31.1482 368.594 34.4518 368.594H158.357C165.029 368.594 171.428 366.009 176.146 361.407C180.864 356.806 183.514 350.565 183.514 344.058V33.084C183.514 29.8618 182.863 26.6712 181.599 23.6944C180.335 20.7175 178.482 18.0127 176.146 15.7343C173.81 13.4559 171.037 11.6486 167.984 10.4156C164.932 9.18251 161.661 8.54787 158.357 8.54787Z" fill="white"/>
<path d="M96.4048 240.57C129.683 240.57 156.66 214.258 156.66 181.801C156.66 149.344 129.683 123.032 96.4048 123.032C63.1266 123.032 36.1494 149.344 36.1494 181.801C36.1494 214.258 63.1266 240.57 96.4048 240.57Z" fill="#6C63FF"/>
<path d="M114.26 185.817L99.2756 200.87C98.9495 201.19 98.5599 201.442 98.1305 201.611C97.7011 201.78 97.241 201.861 96.7782 201.851H96.7284C96.2646 201.861 95.8036 201.779 95.3731 201.61C94.9426 201.442 94.5516 201.19 94.2237 200.87L79.2468 185.817C79.197 185.761 79.1398 185.712 79.0897 185.663C78.492 185.038 78.1729 184.207 78.2023 183.353C78.2318 182.498 78.6074 181.69 79.2468 181.105C79.9308 180.478 80.8341 180.129 81.7727 180.129C82.7114 180.129 83.6147 180.478 84.2987 181.105L93.175 190.152V166.825C93.2163 165.926 93.6114 165.078 94.2779 164.456C94.9445 163.835 95.8311 163.488 96.7533 163.488C97.6755 163.488 98.5622 163.835 99.2287 164.456C99.8952 165.078 100.29 165.926 100.332 166.825V190.152L109.201 181.105C109.886 180.478 110.791 180.129 111.73 180.129C112.67 180.129 113.575 180.478 114.26 181.105C114.31 181.154 114.36 181.203 114.417 181.258C115.013 181.884 115.331 182.715 115.302 183.569C115.272 184.423 114.898 185.231 114.26 185.817Z" fill="white"/>
<path d="M305.149 411.463L296.401 411.462L292.24 378.553L305.151 378.554L305.149 411.463Z" fill="#9F616A"/>
<path d="M307.38 419.734L279.174 419.732V419.385C279.174 416.545 280.331 413.821 282.389 411.813C284.448 409.805 287.241 408.677 290.152 408.677L307.381 408.677L307.38 419.734Z" fill="#2F2E41"/>
<path d="M238.693 411.182L230.242 408.978L234.937 376.137L247.409 379.39L238.693 411.182Z" fill="#9F616A"/>
<path d="M238.658 419.734L211.409 412.627L211.501 412.291C212.253 409.547 214.092 407.207 216.613 405.786C219.133 404.365 222.13 403.979 224.943 404.712L241.586 409.053L238.658 419.734Z" fill="#2F2E41"/>
<path d="M310.182 227.033L317.509 235.335L308.033 404.059H287.791L277.586 274.232L245.943 407.541L224.9 402.507L244.034 233.188L310.182 227.033Z" fill="#2F2E41"/>
<path d="M248.926 118.102L269.08 108.243L300.074 108.774L326.745 122.085L311.571 196.003L318.126 234.543C292.79 240.845 266.264 241.058 240.825 235.164L240.622 235.117C240.622 235.117 255.687 182.98 249.274 167.069L248.926 118.102Z" fill="#CBCBCB"/>
<path d="M307.232 78.7066C307.21 72.8071 304.789 67.1572 300.5 62.9971C296.211 58.837 290.404 56.5067 284.356 56.5176C278.307 56.5285 272.509 58.8798 268.236 63.0553C263.963 67.2308 261.563 72.8894 261.563 78.7891C261.563 84.6887 263.963 90.3473 268.236 94.5228C272.509 98.6983 278.307 101.05 284.356 101.061C290.404 101.071 296.211 98.7411 300.5 94.581C304.789 90.4209 307.21 84.7711 307.232 78.8715C307.233 78.8165 307.233 78.7616 307.232 78.7066Z" fill="#9F616A"/>
<path d="M274.172 65.9808C275.355 64.895 276.913 64.2821 278.537 64.2636C280.977 64.1863 284.632 65.0313 286.188 66.9656C287.438 68.5203 287.498 70.6592 287.503 72.6351L287.516 78.0882C287.52 79.7016 287.54 81.3837 288.291 82.821C289.043 84.2582 290.768 85.3498 292.344 84.8599C294.214 84.2787 295.036 81.8552 296.946 81.4194C298.381 81.0921 299.855 82.1148 300.482 83.4154C301.012 84.7636 301.188 86.2196 300.993 87.6508C300.812 90.5062 296.613 91.639 296.019 94.4404C295.675 96.0609 294.471 99.2935 296.019 98.616C303.154 97.9201 306.286 93.8552 309.552 90.0287L316.917 81.3986C317.759 80.5417 318.405 79.5214 318.814 78.4043C318.997 77.6218 319.063 76.8176 319.009 76.0168C318.969 73.8718 318.909 71.7273 318.83 69.5834C318.761 67.7102 318.277 65.3468 316.396 64.9619C315.418 64.7617 314.124 65.1108 313.607 64.2765C313.413 63.8583 313.381 63.3857 313.518 62.9466C313.933 60.8056 314.634 58.5664 313.911 56.5046C312.822 53.3951 309.07 52.1192 305.755 51.5325C302.44 50.9458 298.718 50.4411 296.638 47.8566C296.081 46.9984 295.477 46.1703 294.828 45.3757C293.873 44.5292 292.701 43.9523 291.435 43.7068C287.32 42.691 282.973 43.0673 279.105 44.7741C277.502 45.4878 275.891 46.4489 274.132 46.3401C272.305 46.2272 270.744 44.9729 268.94 44.6678C266.026 44.1749 263.24 46.3041 261.804 48.8257C260.025 51.9501 259.862 56.2289 262.375 58.8296C263.629 60.1271 265.5 61.0183 266.021 62.7275C266.233 63.4232 266.184 64.1726 266.371 64.8749C266.59 65.5741 267.006 66.1988 267.573 66.677C268.14 67.1552 268.833 67.4675 269.574 67.5777C271.356 67.8607 272.863 67.0646 274.172 65.9808Z" fill="#2F2E41"/>
<path d="M246.144 171.995C246.578 173.082 247.25 174.063 248.115 174.869C248.979 175.674 250.014 176.285 251.147 176.659C252.28 177.032 253.482 177.159 254.671 177.03C255.859 176.9 257.004 176.519 258.025 175.911L298.948 197.011L300.273 187.288L260.508 164.417C259.349 162.813 257.626 161.679 255.666 161.23C253.706 160.781 251.646 161.05 249.875 161.984C248.104 162.918 246.747 164.453 246.059 166.298C245.371 168.143 245.402 170.171 246.144 171.995Z" fill="#9F616A"/>
<path d="M300.679 173.677C300.012 174.644 299.135 175.458 298.111 176.06C297.087 176.661 295.94 177.037 294.751 177.159C293.562 177.282 292.36 177.149 291.229 176.769C290.098 176.39 289.067 175.773 288.207 174.962L243.542 186.817L243.931 174.473L288.362 163.217C289.854 161.898 291.79 161.16 293.802 161.14C295.815 161.121 297.766 161.822 299.284 163.111C300.802 164.401 301.782 166.188 302.04 168.135C302.297 170.083 301.812 172.054 300.679 173.677Z" fill="#9F616A"/>
<path d="M318.037 122.617L326.745 122.085C326.745 122.085 336.942 135.207 331.286 149.446C331.286 149.446 332.266 200.596 309.683 198.495C287.1 196.394 279.964 196.394 279.964 196.394L286.743 177.952L301.908 173.386C301.908 173.386 297.234 153.277 306.081 144.911L318.037 122.617Z" fill="#CBCBCB"/>
<path d="M255.151 122.168L253.92 116.014C253.92 116.014 235.768 115.598 232.179 142.426C232.179 142.426 215.856 182.576 231.856 187.745C247.855 192.915 265.455 187.745 265.455 187.745L264.129 170.039L246.524 166.535C246.524 166.535 255.619 155.06 250.667 145.106L255.151 122.168Z" fill="#CBCBCB"/>
</svg>
