<svg width="348" height="421" viewBox="0 0 348 421" fill="none" xmlns="http://www.w3.org/2000/svg">
<path d="M6.1128 101.653H238.675C240.296 101.652 241.849 101.037 242.995 99.944C244.141 98.8511 244.786 97.3693 244.788 95.8237V5.82972C244.786 4.28413 244.141 2.80236 242.995 1.70947C241.849 0.616572 240.296 0.00179168 238.675 0H6.1128C4.49216 0.00176778 2.9384 0.616539 1.79243 1.70944C0.646462 2.80234 0.00184535 4.28413 -1.07718e-05 5.82972V95.8237C0.00184535 97.3693 0.646462 98.8511 1.79243 99.944C2.9384 101.037 4.49216 101.652 6.1128 101.653Z" fill="#E4E4E4"/>
<path d="M28.2569 144.824H216.531C218.476 144.824 220.342 144.087 221.717 142.775C223.093 141.463 223.866 139.684 223.866 137.828C223.866 135.973 223.093 134.194 221.717 132.882C220.342 131.57 218.476 130.833 216.531 130.833H28.2569C18.7971 130.707 18.7025 144.951 28.2569 144.824Z" fill="#E4E4E4"/>
<path d="M87.5686 264.29H157.219C159.164 264.29 161.03 263.553 162.406 262.241C163.781 260.929 164.554 259.149 164.554 257.294C164.554 255.439 163.781 253.659 162.406 252.347C161.03 251.035 159.164 250.298 157.219 250.298H87.5686C78.1089 250.173 78.0142 264.417 87.5686 264.29Z" fill="#3F3D56"/>
<path d="M28.2569 176.887H216.531C218.476 176.887 220.342 176.15 221.717 174.838C223.093 173.527 223.866 171.747 223.866 169.892C223.866 168.036 223.093 166.257 221.717 164.945C220.342 163.633 218.476 162.896 216.531 162.896H28.2569C18.7971 162.77 18.7025 177.014 28.2569 176.887Z" fill="#E4E4E4"/>
<path d="M28.257 208.951H216.531C217.495 208.952 218.449 208.772 219.34 208.421C220.231 208.07 221.041 207.555 221.723 206.905C222.405 206.255 222.946 205.484 223.315 204.634C223.684 203.785 223.874 202.875 223.874 201.955C223.874 201.036 223.684 200.126 223.315 199.276C222.946 198.427 222.405 197.656 221.723 197.006C221.041 196.356 220.231 195.841 219.34 195.49C218.449 195.139 217.495 194.959 216.531 194.96H28.257C18.7972 194.834 18.7026 209.078 28.257 208.951Z" fill="#E4E4E4"/>
<path d="M265.54 290.224C267.156 290.226 268.705 290.839 269.847 291.929C270.99 293.018 271.632 294.495 271.634 296.036V415.188C271.632 416.729 270.99 418.206 269.847 419.296C268.705 420.385 267.156 420.998 265.54 421H250.55C248.934 420.998 247.385 420.385 246.243 419.296C245.101 418.206 244.458 416.729 244.456 415.188V296.036C244.458 294.495 245.101 293.018 246.243 291.929C247.385 290.839 248.934 290.226 250.55 290.224H265.54Z" fill="#6C63FF"/>
<path d="M295.189 290.224C296.805 290.226 298.354 290.839 299.496 291.929C300.639 293.018 301.281 294.495 301.283 296.036V415.188C301.281 416.729 300.639 418.206 299.496 419.296C298.354 420.385 296.805 420.998 295.189 421H280.199C278.583 420.998 277.034 420.385 275.892 419.296C274.749 418.206 274.107 416.729 274.105 415.188V296.036C274.107 294.495 274.749 293.018 275.892 291.929C277.034 290.839 278.583 290.226 280.199 290.224H295.189Z" fill="#6C63FF"/>
<path d="M273.317 165.392C244.71 165.392 221.52 143.275 221.52 115.993C221.52 88.7106 244.71 66.594 273.317 66.594C301.924 66.594 325.115 88.7106 325.115 115.993C325.115 143.275 301.924 165.392 273.317 165.392Z" fill="#6C63FF"/>
<path d="M236.151 136.73C232.794 136.641 228.615 136.53 225.396 134.287C224.437 133.592 223.65 132.705 223.088 131.689C222.527 130.673 222.205 129.552 222.146 128.405C222.087 127.589 222.228 126.772 222.555 126.017C222.883 125.262 223.39 124.59 224.035 124.053C225.716 122.698 228.172 122.38 230.818 123.121L228.076 104.015L230.089 103.752L233.312 126.214L231.631 125.479C229.683 124.626 227.008 124.193 225.346 125.532C224.938 125.882 224.62 126.317 224.417 126.804C224.214 127.29 224.131 127.815 224.176 128.337C224.225 129.19 224.466 130.024 224.884 130.781C225.301 131.538 225.884 132.2 226.594 132.722C229.099 134.467 232.43 134.693 236.208 134.793L236.151 136.73Z" fill="#2F2E41"/>
<path d="M207.184 105.663H218.124V107.6H207.184V105.663Z" fill="#2F2E41"/>
<path d="M241.716 105.663H252.656V107.6H241.716V105.663Z" fill="#2F2E41"/>
<path d="M228.031 333.067H290.849C295.126 333.068 299.353 332.194 303.246 330.506C307.14 328.818 310.609 326.354 313.42 323.28C316.232 320.207 318.32 316.594 319.546 312.687C320.771 308.779 321.105 304.666 320.524 300.625L305.519 196.16C305.299 194.662 304.519 193.29 303.324 192.295C302.129 191.301 300.598 190.751 299.011 190.746H285.48C285.497 190.568 285.505 190.397 285.505 190.23V185.387C285.503 183.726 284.81 182.134 283.579 180.96C282.348 179.785 280.678 179.125 278.937 179.123H266.749C265.008 179.125 263.338 179.785 262.107 180.96C260.875 182.134 260.183 183.726 260.181 185.387V190.23C260.181 190.397 260.189 190.568 260.206 190.746H246.674C245.088 190.751 243.557 191.301 242.362 192.295C241.166 193.29 240.387 194.662 240.166 196.16L221.524 325.954C221.396 326.84 221.47 327.741 221.738 328.598C222.007 329.455 222.465 330.247 223.082 330.921C223.698 331.595 224.459 332.135 225.312 332.506C226.166 332.876 227.093 333.067 228.031 333.067Z" fill="#2F2E41"/>
<path d="M275.926 166.933L311.753 153.671C317.611 151.502 323.502 149.4 329.33 147.157C331.826 146.327 334.126 145.035 336.096 143.354C337.811 141.622 338.98 139.465 339.469 137.129C340.711 132.12 340.487 126.643 340.398 121.532C340.329 115.94 339.847 110.359 338.954 104.832C337.232 94.5052 333.865 84.3675 328.137 75.4055C318.09 59.6835 300.779 47.8548 280.867 48.7988C271.648 49.2358 262.376 52.3906 255.527 58.4016C254.813 59.2159 254.011 59.9569 253.135 60.6124C252.526 60.8301 251.864 60.8726 251.23 60.7344C250.394 60.6831 249.558 60.644 248.721 60.617C245.816 60.5001 242.906 60.6165 240.021 60.965C234.832 61.6431 229.684 63.3552 225.67 66.6481C222.247 69.4562 219.462 73.4203 219.175 77.8257C219.037 79.848 219.388 81.8736 220.2 83.7463C221.013 85.6189 222.265 87.2885 223.862 88.6262C228.136 92.0618 234.235 90.8542 239.362 90.5952L258.145 89.6461L267.661 89.1653C269.621 89.0663 269.615 91.9724 267.661 92.0711L242.367 93.3491C238.302 93.5545 234.113 94.0578 230.045 93.8254C226.919 93.6904 223.934 92.5452 221.581 90.5782C219.432 88.6955 217.832 86.3139 216.935 83.6656C216.039 81.0172 215.877 78.1925 216.466 75.4668C217.77 69.522 222.409 64.6042 227.848 61.6786C235.248 57.6979 244.086 57.3165 252.366 57.9049L251.289 58.3305C260.655 48.7431 275.003 44.6951 288.472 46.1117C302.693 47.6074 315.341 55.1738 324.429 65.5202C334.562 77.0557 340.083 91.4397 342.23 106.231C343.347 114.216 343.715 122.281 343.329 130.329C343.178 133.843 342.87 137.461 341.448 140.743C340.01 143.993 337.409 146.652 334.11 148.246C330.426 150.124 326.348 151.37 322.462 152.809L309.263 157.695L283.335 167.292L276.736 169.735C274.907 170.412 274.114 167.604 275.926 166.933Z" fill="#2F2E41"/>
<path d="M332.258 68.1856C335.371 68.1856 338.415 67.3051 341.004 65.6554C343.592 64.0057 345.61 61.6609 346.802 58.9176C347.993 56.1742 348.305 53.1555 347.698 50.2432C347.09 47.3309 345.591 44.6558 343.389 42.5561C341.188 40.4565 338.383 39.0266 335.329 38.4473C332.275 37.868 329.11 38.1653 326.233 39.3017C323.357 40.438 320.898 42.3623 319.168 44.8312C317.438 47.3002 316.515 50.2029 316.515 53.1722C316.52 57.1526 318.18 60.9688 321.131 63.7834C324.083 66.5979 328.084 68.1811 332.258 68.1856ZM332.258 41.0646C334.769 41.0646 337.223 41.7747 339.311 43.1051C341.399 44.4355 343.026 46.3265 343.987 48.5388C344.948 50.7512 345.199 53.1856 344.709 55.5343C344.219 57.8829 343.01 60.0403 341.235 61.7336C339.459 63.4269 337.197 64.58 334.734 65.0471C332.272 65.5143 329.719 65.2746 327.399 64.3582C325.079 63.4418 323.097 61.8899 321.702 59.8988C320.307 57.9078 319.562 55.5669 319.562 53.1722C319.566 49.9622 320.905 46.8847 323.285 44.6149C325.665 42.3451 328.892 41.0683 332.258 41.0646Z" fill="#2F2E41"/>
<path d="M151.56 248.2C151.089 246.726 151.251 245.134 152.009 243.774C152.767 242.413 154.061 241.395 155.605 240.943L267.913 208.188C270.483 207.438 273.229 207.432 275.802 208.171C278.376 208.909 280.662 210.359 282.372 212.337C284.082 214.315 285.138 216.731 285.408 219.282C285.677 221.832 285.148 224.401 283.886 226.664C282.445 229.281 280.098 231.341 277.244 232.493C276.793 232.677 276.331 232.837 275.862 232.974L163.553 265.729C162.788 265.952 161.984 266.03 161.187 265.957C160.391 265.884 159.617 265.662 158.911 265.303C158.204 264.945 157.578 264.458 157.069 263.869C156.56 263.28 156.178 262.601 155.944 261.871L151.56 248.2Z" fill="#6C63FF"/>
<path d="M245.273 252.386C246.133 252.166 246.961 251.848 247.74 251.437L279.002 241.793C293.886 235.875 288.933 220.203 284.864 205.231L284.673 204.529L252.77 199.275L228.74 209.518C226.184 210.61 224.161 212.592 223.085 215.058C222.009 217.525 221.961 220.289 222.951 222.788L232.159 245.979C233.123 248.407 234.999 250.407 237.422 251.591C239.845 252.775 242.643 253.058 245.273 252.386Z" fill="#2F2E41"/>
</svg>
