<svg width="476" height="402" viewBox="0 0 476 402" fill="none" xmlns="http://www.w3.org/2000/svg">
<path d="M460.466 95.884L429.811 202.162L391.803 333.953L254.302 298.789L289.365 141.958L308.361 56.9851L460.466 95.884Z" fill="#E6E6E6"/>
<path d="M408.112 21.7833L388.643 16.8043L334.441 228.748L353.91 233.727L408.112 21.7833Z" fill="#6C63FF"/>
<path d="M430.09 174.103L387.474 325.402L262.142 293.35L303.443 113.88C315.401 114.162 327.395 116.518 338.679 120.803C349.962 125.087 360.292 131.207 369.026 138.782C387.364 154.313 409.488 165.806 430.09 174.103Z" fill="#3F3D56"/>
<path d="M327.72 166.182L309.855 161.613L306.102 176.291L323.967 180.86L327.72 166.182Z" fill="#E6E6E6"/>
<path d="M347.559 139.302L329.694 134.733L325.94 149.411L343.805 153.98L347.559 139.302Z" fill="#E6E6E6"/>
<path d="M380.611 169.876L368.498 157.462L354.841 166.53L366.954 178.943L380.611 169.876Z" fill="#E6E6E6"/>
<path d="M406.238 204.137L394.125 191.723L380.468 200.791L392.581 213.204L406.238 204.137Z" fill="#E6E6E6"/>
<path d="M347.645 205.129L335.532 192.716L321.875 201.783L333.988 214.197L347.645 205.129Z" fill="#E6E6E6"/>
<path d="M406.892 148.22C408.908 148.736 410.885 147.811 411.309 146.155C411.733 144.498 410.442 142.738 408.426 142.222C406.409 141.706 404.432 142.631 404.008 144.288C403.584 145.944 404.875 147.705 406.892 148.22Z" fill="#3F3D56"/>
<path d="M337.778 109.243C339.794 109.759 341.772 108.834 342.195 107.177C342.619 105.521 341.328 103.76 339.312 103.245C337.296 102.729 335.318 103.654 334.895 105.31C334.471 106.967 335.762 108.727 337.778 109.243Z" fill="#3F3D56"/>
<path d="M405.206 104.119C407.222 104.635 409.2 103.71 409.623 102.054C410.047 100.397 408.756 98.6365 406.74 98.1209C404.724 97.6053 402.746 98.5302 402.322 100.187C401.899 101.843 403.19 103.604 405.206 104.119Z" fill="#3F3D56"/>
<path d="M86.9982 19H44.6247C43.1348 19 41.7058 19.5195 40.6523 20.4443C39.5987 21.3691 39.0068 22.6233 39.0068 23.9311V40.2566C39.0068 41.5644 39.5987 42.8187 40.6523 43.7434C41.7058 44.6682 43.1348 45.1877 44.6247 45.1877H51.6466V69.6488H79.9763V45.1877H86.9982C88.4882 45.1877 89.9171 44.6682 90.9707 43.7434C92.0242 42.8187 92.6161 41.5644 92.6161 40.2566V23.9311C92.6161 22.6233 92.0242 21.3691 90.9707 20.4443C89.9171 19.5195 88.4882 19 86.9982 19Z" fill="#6C63FF"/>
<path d="M129.44 168.41C103.489 135.079 90.2224 95.3935 91.5407 55.0389C91.5643 54.1078 91.2199 53.1982 90.5662 52.4646C89.9125 51.731 88.9896 51.2186 87.9543 51.0144V43.9603H43.2023V50.9164H42.5857C41.9545 50.9171 41.3302 51.032 40.7519 51.254C40.1736 51.476 39.6536 51.8002 39.2245 52.2064C38.7953 52.6127 38.4662 53.0923 38.2576 53.6152C38.049 54.1381 37.9655 54.6931 38.0123 55.2456C41.5379 98.3843 29.6327 137.07 2.29662 171.303C0.723568 173.271 -0.0800783 175.633 0.0063014 178.035L4.8997 310.899C5.01731 313.863 6.43434 316.672 8.85501 318.74C11.2757 320.809 14.5129 321.976 17.8911 322H119.114C122.53 321.976 125.801 320.781 128.229 318.671C130.657 316.561 132.051 313.702 132.113 310.703L133.999 181.703C134.054 176.968 132.464 172.331 129.44 168.41Z" fill="#3F3D56"/>
<path opacity="0.2" d="M78.1649 24.3194C78.1649 27.141 76.8879 29.847 74.6149 31.8422C72.3419 33.8373 69.259 34.9582 66.0445 34.9582C62.83 34.9582 59.7471 33.8373 57.4741 31.8422C55.2011 29.847 53.9241 27.141 53.9241 24.3194" fill="black"/>
<path d="M113.416 212.544H101.159C99.9886 205.878 96.1395 199.801 90.3077 195.41C84.4758 191.02 77.0464 188.606 69.3634 188.606C61.6803 188.606 54.2509 191.02 48.4191 195.41C42.5873 199.801 38.7381 205.878 37.5679 212.544H25.3098C24.0056 212.544 22.7169 212.791 21.5319 213.269C20.3469 213.747 19.2937 214.445 18.4445 215.314C17.5953 216.182 16.9702 217.202 16.612 218.303C16.2538 219.404 16.171 220.559 16.3693 221.691L29.6835 297.654H106.135L122.307 221.947C122.552 220.8 122.506 219.62 122.172 218.491C121.839 217.361 121.226 216.311 120.377 215.413C119.528 214.515 118.464 213.793 117.261 213.297C116.058 212.801 114.745 212.544 113.416 212.544Z" fill="#6C63FF"/>
<path d="M214.5 402C308.665 402 385 323.874 385 227.5C385 131.126 308.665 53 214.5 53C120.335 53 44 131.126 44 227.5C44 323.874 120.335 402 214.5 402Z" fill="#6C63FF"/>
<path opacity="0.2" d="M214.5 354.868C185.708 354.868 157.808 344.651 135.551 325.957C113.295 307.263 98.061 281.249 92.4442 252.348C86.8274 223.447 91.1756 193.447 104.748 167.46C118.32 141.472 140.277 121.105 166.877 109.829C193.477 98.5522 223.075 97.0641 250.626 105.618C278.178 114.172 301.98 132.239 317.975 156.74C333.971 181.241 341.171 210.66 338.349 239.985C335.527 269.31 322.857 296.727 302.499 317.563C290.969 329.427 277.255 338.833 262.15 345.237C247.045 351.64 230.849 354.914 214.5 354.868ZM214.5 107.987C150.111 107.987 97.7267 161.6 97.7267 227.5C97.7267 293.399 150.111 347.013 214.5 347.013C278.889 347.013 331.273 293.399 331.273 227.5C331.273 161.6 278.889 107.987 214.5 107.987Z" fill="black"/>
<path d="M214.5 350.941C281.112 350.941 335.111 295.674 335.111 227.5C335.111 159.326 281.112 104.059 214.5 104.059C147.889 104.059 93.8892 159.326 93.8892 227.5C93.8892 295.674 147.889 350.941 214.5 350.941Z" fill="#3F3D56"/>
<path d="M124.804 178.141C123.89 176.308 123.337 174.308 123.178 172.255C123.019 170.203 123.257 168.139 123.878 166.181C124.499 164.223 125.491 162.409 126.797 160.844C128.104 159.278 129.698 157.991 131.491 157.057C133.283 156.123 135.238 155.56 137.244 155.399C139.249 155.238 141.266 155.484 143.178 156.122C145.091 156.759 146.862 157.777 148.39 159.115C149.918 160.454 151.174 162.087 152.085 163.923L186.16 232.407C187.075 234.24 187.628 236.241 187.787 238.293C187.946 240.345 187.708 242.409 187.087 244.367C186.466 246.325 185.474 248.139 184.167 249.705C182.861 251.27 181.266 252.557 179.474 253.491C177.681 254.425 175.726 254.989 173.721 255.149C171.716 255.31 169.699 255.064 167.786 254.427C165.874 253.789 164.103 252.772 162.575 251.433C161.046 250.094 159.791 248.461 158.88 246.625L124.804 178.141Z" fill="#FF6584"/>
<path opacity="0.2" d="M128.605 185.78L127.032 182.619C134.881 176.377 144.098 171.787 154.313 168.401L155.885 171.562C144.83 173.918 135.425 178.278 128.605 185.78Z" fill="black"/>
<path opacity="0.2" d="M135.944 200.53L134.372 197.369C142.221 191.128 151.437 186.537 161.652 183.151L163.225 186.312C152.169 188.668 142.764 193.029 135.944 200.53Z" fill="black"/>
<path opacity="0.2" d="M143.284 215.281L141.711 212.12C149.56 205.878 158.777 201.288 168.991 197.902L170.564 201.062C159.509 203.418 150.103 207.779 143.284 215.281Z" fill="black"/>
<path opacity="0.2" d="M150.623 230.031L149.05 226.87C156.899 220.628 166.116 216.038 176.331 212.652L177.904 215.813C166.848 218.169 157.443 222.529 150.623 230.031Z" fill="black"/>
<path opacity="0.2" d="M157.963 244.781L156.39 241.621C164.239 235.379 173.456 230.788 183.67 227.402L185.243 230.563C174.188 232.919 164.782 237.28 157.963 244.781Z" fill="black"/>
<path d="M99.2397 203.779C98.3253 201.946 97.7728 199.946 97.6141 197.894C97.4553 195.841 97.6932 193.777 98.3143 191.819C98.9354 189.861 99.9274 188.048 101.234 186.483C102.54 184.917 104.135 183.631 105.927 182.697C107.719 181.762 109.674 181.199 111.679 181.038C113.685 180.878 115.701 181.123 117.614 181.761C119.526 182.398 121.297 183.415 122.825 184.754C124.354 186.092 125.609 187.726 126.52 189.561L160.596 258.045C162.433 261.747 162.759 266.044 161.503 269.992C160.246 273.939 157.51 277.215 153.894 279.099C150.279 280.984 146.081 281.322 142.223 280.04C138.364 278.758 135.16 275.961 133.315 272.263L99.2397 203.779Z" fill="#FF6584"/>
<path opacity="0.2" d="M103.04 211.418L101.468 208.257C109.317 202.015 118.534 197.425 128.748 194.039L130.321 197.199C119.266 199.556 109.86 203.916 103.04 211.418Z" fill="black"/>
<path opacity="0.2" d="M110.38 226.168L108.807 223.007C116.656 216.766 125.873 212.175 136.087 208.789L137.66 211.95C126.605 214.306 117.199 218.666 110.38 226.168Z" fill="black"/>
<path opacity="0.2" d="M117.719 240.919L116.146 237.758C123.995 231.516 133.212 226.926 143.427 223.539L145 226.7C133.944 229.056 124.539 233.417 117.719 240.919Z" fill="black"/>
<path opacity="0.2" d="M125.059 255.669L123.486 252.508C131.335 246.266 140.552 241.676 150.766 238.29L152.339 241.451C141.284 243.807 131.878 248.167 125.059 255.669Z" fill="black"/>
<path opacity="0.2" d="M132.398 270.419L130.825 267.259C138.674 261.017 147.891 256.426 158.106 253.04L159.678 256.201C148.623 258.557 139.218 262.918 132.398 270.419Z" fill="black"/>
<path d="M295.09 231.428L295.198 231.428C298.868 231.459 302.462 230.358 305.512 228.267C308.561 226.177 310.924 223.194 312.293 219.708C315.107 212.428 316.525 204.661 316.47 196.831C316.279 163.693 289.937 136.506 257.56 136.048C243.771 135.85 230.34 140.539 219.544 149.318C208.747 158.098 201.249 170.429 198.32 184.22C195.391 198.012 197.213 212.415 203.475 224.989C209.737 237.563 220.056 247.534 232.68 253.212C236.017 254.724 239.722 255.168 243.309 254.487C246.897 253.807 250.2 252.032 252.784 249.396C258.329 243.692 264.921 239.168 272.182 236.084C279.443 233 287.229 231.417 295.09 231.428Z" fill="#E6E6E6"/>
<path d="M264.389 212.912C275.289 212.912 284.125 203.868 284.125 192.712C284.125 181.556 275.289 172.513 264.389 172.513C253.489 172.513 244.653 181.556 244.653 192.712C244.653 203.868 253.489 212.912 264.389 212.912Z" fill="#F9A825"/>
<path d="M221.495 190.441C222.779 190.441 223.82 189.375 223.82 188.061C223.82 186.747 222.779 185.682 221.495 185.682C220.211 185.682 219.17 186.747 219.17 188.061C219.17 189.375 220.211 190.441 221.495 190.441Z" fill="#3F3D56"/>
<path d="M144.743 192.685C146.027 192.685 147.068 191.62 147.068 190.306C147.068 188.991 146.027 187.926 144.743 187.926C143.458 187.926 142.417 188.991 142.417 190.306C142.417 191.62 143.458 192.685 144.743 192.685Z" fill="#3F3D56"/>
<path d="M233.886 165.78C235.17 165.78 236.211 164.714 236.211 163.4C236.211 162.086 235.17 161.021 233.886 161.021C232.602 161.021 231.561 162.086 231.561 163.4C231.561 164.714 232.602 165.78 233.886 165.78Z" fill="#3F3D56"/>
<path d="M233.82 234.368C235.104 234.368 236.145 233.303 236.145 231.989C236.145 230.675 235.104 229.609 233.82 229.609C232.536 229.609 231.495 230.675 231.495 231.989C231.495 233.303 232.536 234.368 233.82 234.368Z" fill="#3F3D56"/>
<path d="M279.872 160.865C281.156 160.865 282.197 159.8 282.197 158.486C282.197 157.171 281.156 156.106 279.872 156.106C278.588 156.106 277.547 157.171 277.547 158.486C277.547 159.8 278.588 160.865 279.872 160.865Z" fill="#3F3D56"/>
<path d="M129.656 225.952C130.94 225.952 131.981 224.887 131.981 223.572C131.981 222.258 130.94 221.193 129.656 221.193C128.372 221.193 127.331 222.258 127.331 223.572C127.331 224.887 128.372 225.952 129.656 225.952Z" fill="#3F3D56"/>
<path d="M146.651 260.179C147.936 260.179 148.976 259.113 148.976 257.799C148.976 256.485 147.936 255.419 146.651 255.419C145.367 255.419 144.326 256.485 144.326 257.799C144.326 259.113 145.367 260.179 146.651 260.179Z" fill="#3F3D56"/>
<path d="M253.424 271.265C258.269 271.265 262.196 267.246 262.196 262.288C262.196 257.33 258.269 253.31 253.424 253.31C248.58 253.31 244.653 257.33 244.653 262.288C244.653 267.246 248.58 271.265 253.424 271.265Z" fill="#FF6584"/>
<path opacity="0.2" d="M260.003 262.849C260.003 264.635 259.31 266.347 258.076 267.61C256.843 268.873 255.169 269.582 253.424 269.582C251.68 269.582 250.006 268.873 248.773 267.61C247.539 266.347 246.846 264.635 246.846 262.849" fill="black"/>
<path opacity="0.2" d="M246.846 261.727C246.846 259.941 247.539 258.228 248.773 256.966C250.006 255.703 251.68 254.994 253.424 254.994C255.169 254.994 256.843 255.703 258.076 256.966C259.31 258.228 260.003 259.941 260.003 261.727" fill="black"/>
<path d="M250.135 260.043C250.438 260.043 250.683 259.667 250.683 259.202C250.683 258.737 250.438 258.36 250.135 258.36C249.832 258.36 249.587 258.737 249.587 259.202C249.587 259.667 249.832 260.043 250.135 260.043Z" fill="#FF6584"/>
<path d="M253.424 258.921C253.727 258.921 253.973 258.544 253.973 258.08C253.973 257.615 253.727 257.238 253.424 257.238C253.122 257.238 252.876 257.615 252.876 258.08C252.876 258.544 253.122 258.921 253.424 258.921Z" fill="#FF6584"/>
<path d="M253.424 266.215C253.727 266.215 253.973 265.839 253.973 265.374C253.973 264.909 253.727 264.532 253.424 264.532C253.122 264.532 252.876 264.909 252.876 265.374C252.876 265.839 253.122 266.215 253.424 266.215Z" fill="#FF6584"/>
<path d="M256.714 261.727C257.017 261.727 257.262 261.35 257.262 260.885C257.262 260.42 257.017 260.043 256.714 260.043C256.411 260.043 256.166 260.42 256.166 260.885C256.166 261.35 256.411 261.727 256.714 261.727Z" fill="#FF6584"/>
<path d="M256.166 267.899C256.468 267.899 256.714 267.522 256.714 267.057C256.714 266.592 256.468 266.215 256.166 266.215C255.863 266.215 255.617 266.592 255.617 267.057C255.617 267.522 255.863 267.899 256.166 267.899Z" fill="#FF6584"/>
<path d="M249.587 265.093C249.89 265.093 250.135 264.716 250.135 264.252C250.135 263.787 249.89 263.41 249.587 263.41C249.284 263.41 249.039 263.787 249.039 264.252C249.039 264.716 249.284 265.093 249.587 265.093Z" fill="#FF6584"/>
<path d="M270.968 247.138C275.812 247.138 279.74 243.119 279.74 238.161C279.74 233.203 275.812 229.183 270.968 229.183C266.123 229.183 262.196 233.203 262.196 238.161C262.196 243.119 266.123 247.138 270.968 247.138Z" fill="#FF6584"/>
<path opacity="0.2" d="M277.547 238.722C277.547 240.508 276.853 242.22 275.62 243.483C274.386 244.746 272.713 245.455 270.968 245.455C269.223 245.455 267.55 244.746 266.316 243.483C265.082 242.22 264.389 240.508 264.389 238.722" fill="black"/>
<path opacity="0.2" d="M264.389 237.6C264.389 235.814 265.082 234.101 266.316 232.839C267.55 231.576 269.223 230.867 270.968 230.867C272.713 230.867 274.386 231.576 275.62 232.839C276.853 234.101 277.547 235.814 277.547 237.6" fill="black"/>
<path d="M267.678 235.916C267.981 235.916 268.227 235.54 268.227 235.075C268.227 234.61 267.981 234.233 267.678 234.233C267.376 234.233 267.13 234.61 267.13 235.075C267.13 235.54 267.376 235.916 267.678 235.916Z" fill="#FF6584"/>
<path d="M270.968 234.794C271.271 234.794 271.516 234.417 271.516 233.953C271.516 233.488 271.271 233.111 270.968 233.111C270.665 233.111 270.42 233.488 270.42 233.953C270.42 234.417 270.665 234.794 270.968 234.794Z" fill="#FF6584"/>
<path d="M270.968 242.088C271.271 242.088 271.516 241.712 271.516 241.247C271.516 240.782 271.271 240.405 270.968 240.405C270.665 240.405 270.42 240.782 270.42 241.247C270.42 241.712 270.665 242.088 270.968 242.088Z" fill="#FF6584"/>
<path d="M274.257 237.6C274.56 237.6 274.805 237.223 274.805 236.758C274.805 236.293 274.56 235.916 274.257 235.916C273.954 235.916 273.709 236.293 273.709 236.758C273.709 237.223 273.954 237.6 274.257 237.6Z" fill="#FF6584"/>
<path d="M273.709 243.772C274.012 243.772 274.257 243.395 274.257 242.93C274.257 242.465 274.012 242.088 273.709 242.088C273.406 242.088 273.161 242.465 273.161 242.93C273.161 243.395 273.406 243.772 273.709 243.772Z" fill="#FF6584"/>
<path d="M267.13 240.966C267.433 240.966 267.678 240.589 267.678 240.125C267.678 239.66 267.433 239.283 267.13 239.283C266.827 239.283 266.582 239.66 266.582 240.125C266.582 240.589 266.827 240.966 267.13 240.966Z" fill="#FF6584"/>
<path d="M288.511 259.482C293.356 259.482 297.283 255.463 297.283 250.505C297.283 245.547 293.356 241.527 288.511 241.527C283.667 241.527 279.74 245.547 279.74 250.505C279.74 255.463 283.667 259.482 288.511 259.482Z" fill="#6C63FF"/>
<path opacity="0.2" d="M295.09 251.066C295.09 252.852 294.397 254.564 293.163 255.827C291.929 257.09 290.256 257.799 288.511 257.799C286.766 257.799 285.093 257.09 283.859 255.827C282.626 254.564 281.932 252.852 281.932 251.066" fill="black"/>
<path opacity="0.2" d="M281.932 249.944C281.932 248.158 282.626 246.445 283.859 245.183C285.093 243.92 286.766 243.211 288.511 243.211C290.256 243.211 291.929 243.92 293.163 245.183C294.397 246.445 295.09 248.158 295.09 249.944" fill="black"/>
<path d="M285.222 248.26C285.525 248.26 285.77 247.884 285.77 247.419C285.77 246.954 285.525 246.577 285.222 246.577C284.919 246.577 284.674 246.954 284.674 247.419C284.674 247.884 284.919 248.26 285.222 248.26Z" fill="#6C63FF"/>
<path d="M288.511 247.138C288.814 247.138 289.059 246.761 289.059 246.297C289.059 245.832 288.814 245.455 288.511 245.455C288.208 245.455 287.963 245.832 287.963 246.297C287.963 246.761 288.208 247.138 288.511 247.138Z" fill="#6C63FF"/>
<path d="M288.511 254.432C288.814 254.432 289.059 254.056 289.059 253.591C289.059 253.126 288.814 252.749 288.511 252.749C288.208 252.749 287.963 253.126 287.963 253.591C287.963 254.056 288.208 254.432 288.511 254.432Z" fill="#6C63FF"/>
<path d="M291.801 249.944C292.103 249.944 292.349 249.567 292.349 249.102C292.349 248.637 292.103 248.26 291.801 248.26C291.498 248.26 291.252 248.637 291.252 249.102C291.252 249.567 291.498 249.944 291.801 249.944Z" fill="#6C63FF"/>
<path d="M291.252 256.116C291.555 256.116 291.801 255.739 291.801 255.274C291.801 254.809 291.555 254.432 291.252 254.432C290.95 254.432 290.704 254.809 290.704 255.274C290.704 255.739 290.95 256.116 291.252 256.116Z" fill="#6C63FF"/>
<path d="M284.674 253.31C284.976 253.31 285.222 252.933 285.222 252.469C285.222 252.004 284.976 251.627 284.674 251.627C284.371 251.627 284.125 252.004 284.125 252.469C284.125 252.933 284.371 253.31 284.674 253.31Z" fill="#6C63FF"/>
<path d="M244.653 260.605C249.497 260.605 253.424 256.585 253.424 251.627C253.424 246.669 249.497 242.65 244.653 242.65C239.808 242.65 235.881 246.669 235.881 251.627C235.881 256.585 239.808 260.605 244.653 260.605Z" fill="#6C63FF"/>
<path opacity="0.2" d="M251.232 252.188C251.232 253.974 250.538 255.686 249.305 256.949C248.071 258.212 246.398 258.921 244.653 258.921C242.908 258.921 241.235 258.212 240.001 256.949C238.767 255.686 238.074 253.974 238.074 252.188" fill="black"/>
<path opacity="0.2" d="M238.074 251.066C238.074 249.28 238.767 247.568 240.001 246.305C241.235 245.042 242.908 244.333 244.653 244.333C246.398 244.333 248.071 245.042 249.305 246.305C250.538 247.568 251.232 249.28 251.232 251.066" fill="black"/>
<path d="M241.363 249.383C241.666 249.383 241.912 249.006 241.912 248.541C241.912 248.076 241.666 247.699 241.363 247.699C241.061 247.699 240.815 248.076 240.815 248.541C240.815 249.006 241.061 249.383 241.363 249.383Z" fill="#6C63FF"/>
<path d="M244.653 248.26C244.956 248.26 245.201 247.884 245.201 247.419C245.201 246.954 244.956 246.577 244.653 246.577C244.35 246.577 244.104 246.954 244.104 247.419C244.104 247.884 244.35 248.26 244.653 248.26Z" fill="#6C63FF"/>
<path d="M244.653 255.555C244.956 255.555 245.201 255.178 245.201 254.713C245.201 254.248 244.956 253.871 244.653 253.871C244.35 253.871 244.104 254.248 244.104 254.713C244.104 255.178 244.35 255.555 244.653 255.555Z" fill="#6C63FF"/>
<path d="M247.942 251.066C248.245 251.066 248.49 250.689 248.49 250.224C248.49 249.759 248.245 249.383 247.942 249.383C247.639 249.383 247.394 249.759 247.394 250.224C247.394 250.689 247.639 251.066 247.942 251.066Z" fill="#6C63FF"/>
<path d="M247.394 257.238C247.697 257.238 247.942 256.861 247.942 256.396C247.942 255.931 247.697 255.555 247.394 255.555C247.091 255.555 246.846 255.931 246.846 256.396C246.846 256.861 247.091 257.238 247.394 257.238Z" fill="#6C63FF"/>
<path d="M240.815 254.432C241.118 254.432 241.363 254.056 241.363 253.591C241.363 253.126 241.118 252.749 240.815 252.749C240.512 252.749 240.267 253.126 240.267 253.591C240.267 254.056 240.512 254.432 240.815 254.432Z" fill="#6C63FF"/>
<path d="M264.389 264.532C269.234 264.532 273.161 260.513 273.161 255.555C273.161 250.597 269.234 246.577 264.389 246.577C259.545 246.577 255.617 250.597 255.617 255.555C255.617 260.513 259.545 264.532 264.389 264.532Z" fill="#6C63FF"/>
<path opacity="0.2" d="M270.968 256.116C270.968 257 270.798 257.876 270.467 258.692C270.136 259.509 269.652 260.252 269.041 260.877C268.43 261.502 267.705 261.998 266.907 262.336C266.108 262.675 265.253 262.849 264.389 262.849C263.525 262.849 262.67 262.675 261.872 262.336C261.073 261.998 260.348 261.502 259.737 260.877C259.126 260.252 258.642 259.509 258.311 258.692C257.98 257.876 257.81 257 257.81 256.116" fill="black"/>
<path opacity="0.2" d="M257.81 254.994C257.81 254.109 257.98 253.234 258.311 252.417C258.642 251.6 259.126 250.858 259.737 250.233C260.348 249.607 261.073 249.111 261.872 248.773C262.67 248.435 263.525 248.26 264.389 248.26C265.253 248.26 266.108 248.435 266.907 248.773C267.705 249.111 268.43 249.607 269.041 250.233C269.652 250.858 270.136 251.6 270.467 252.417C270.798 253.234 270.968 254.109 270.968 254.994" fill="black"/>
<path d="M261.1 253.31C261.402 253.31 261.648 252.933 261.648 252.469C261.648 252.004 261.402 251.627 261.1 251.627C260.797 251.627 260.551 252.004 260.551 252.469C260.551 252.933 260.797 253.31 261.1 253.31Z" fill="#6C63FF"/>
<path d="M264.389 252.188C264.692 252.188 264.937 251.811 264.937 251.346C264.937 250.882 264.692 250.505 264.389 250.505C264.086 250.505 263.841 250.882 263.841 251.346C263.841 251.811 264.086 252.188 264.389 252.188Z" fill="#6C63FF"/>
<path d="M264.389 259.482C264.692 259.482 264.937 259.105 264.937 258.641C264.937 258.176 264.692 257.799 264.389 257.799C264.086 257.799 263.841 258.176 263.841 258.641C263.841 259.105 264.086 259.482 264.389 259.482Z" fill="#6C63FF"/>
<path d="M267.678 254.994C267.981 254.994 268.227 254.617 268.227 254.152C268.227 253.687 267.981 253.31 267.678 253.31C267.376 253.31 267.13 253.687 267.13 254.152C267.13 254.617 267.376 254.994 267.678 254.994Z" fill="#6C63FF"/>
<path d="M267.13 261.166C267.433 261.166 267.678 260.789 267.678 260.324C267.678 259.859 267.433 259.482 267.13 259.482C266.827 259.482 266.582 259.859 266.582 260.324C266.582 260.789 266.827 261.166 267.13 261.166Z" fill="#6C63FF"/>
<path d="M260.551 258.36C260.854 258.36 261.1 257.983 261.1 257.518C261.1 257.054 260.854 256.677 260.551 256.677C260.249 256.677 260.003 257.054 260.003 257.518C260.003 257.983 260.249 258.36 260.551 258.36Z" fill="#6C63FF"/>
<path d="M278.095 274.071C282.939 274.071 286.867 270.051 286.867 265.093C286.867 260.135 282.939 256.116 278.095 256.116C273.25 256.116 269.323 260.135 269.323 265.093C269.323 270.051 273.25 274.071 278.095 274.071Z" fill="#FF6584"/>
<path opacity="0.2" d="M284.674 265.654C284.674 267.44 283.981 269.153 282.747 270.415C281.513 271.678 279.84 272.387 278.095 272.387C276.35 272.387 274.677 271.678 273.443 270.415C272.209 269.153 271.516 267.44 271.516 265.654" fill="black"/>
<path opacity="0.2" d="M271.516 264.532C271.516 262.746 272.209 261.034 273.443 259.771C274.677 258.508 276.35 257.799 278.095 257.799C279.84 257.799 281.513 258.508 282.747 259.771C283.981 261.034 284.674 262.746 284.674 264.532" fill="black"/>
<path d="M274.805 262.849C275.108 262.849 275.354 262.472 275.354 262.007C275.354 261.542 275.108 261.166 274.805 261.166C274.503 261.166 274.257 261.542 274.257 262.007C274.257 262.472 274.503 262.849 274.805 262.849Z" fill="#FF6584"/>
<path d="M278.095 261.727C278.398 261.727 278.643 261.35 278.643 260.885C278.643 260.42 278.398 260.043 278.095 260.043C277.792 260.043 277.547 260.42 277.547 260.885C277.547 261.35 277.792 261.727 278.095 261.727Z" fill="#FF6584"/>
<path d="M278.095 269.021C278.398 269.021 278.643 268.644 278.643 268.179C278.643 267.714 278.398 267.338 278.095 267.338C277.792 267.338 277.547 267.714 277.547 268.179C277.547 268.644 277.792 269.021 278.095 269.021Z" fill="#FF6584"/>
<path d="M281.384 264.532C281.687 264.532 281.932 264.155 281.932 263.691C281.932 263.226 281.687 262.849 281.384 262.849C281.081 262.849 280.836 263.226 280.836 263.691C280.836 264.155 281.081 264.532 281.384 264.532Z" fill="#FF6584"/>
<path d="M280.836 270.704C281.139 270.704 281.384 270.327 281.384 269.863C281.384 269.398 281.139 269.021 280.836 269.021C280.533 269.021 280.288 269.398 280.288 269.863C280.288 270.327 280.533 270.704 280.836 270.704Z" fill="#FF6584"/>
<path d="M274.257 267.899C274.56 267.899 274.805 267.522 274.805 267.057C274.805 266.592 274.56 266.215 274.257 266.215C273.954 266.215 273.709 266.592 273.709 267.057C273.709 267.522 273.954 267.899 274.257 267.899Z" fill="#FF6584"/>
<path d="M165.291 233.246C166.575 233.246 167.616 232.181 167.616 230.867C167.616 229.552 166.575 228.487 165.291 228.487C164.007 228.487 162.966 229.552 162.966 230.867C162.966 232.181 164.007 233.246 165.291 233.246Z" fill="#3F3D56"/>
<path d="M228.49 317.239L172.651 301.391L174.79 293.259L230.629 309.108L228.49 317.239Z" fill="#F9A825"/>
<path d="M220.304 314.522C201.182 318.268 181.54 318.268 162.418 314.522V306.092C181.583 309.343 201.14 309.343 220.304 306.092V314.522Z" fill="#F9A825"/>
<path d="M226.255 289.233C207.133 292.98 187.491 292.98 168.369 289.233V280.804C187.534 284.055 207.091 284.055 226.255 280.804V289.233Z" fill="#F9A825"/>
<path d="M246.272 299.349C227.15 303.095 207.508 303.095 188.386 299.349V290.919C207.55 294.17 227.107 294.17 246.272 290.919V299.349Z" fill="#F9A825"/>
<path d="M251.141 308.902C232.019 312.649 212.376 312.649 193.255 308.902V300.473C212.419 303.723 231.976 303.723 251.141 300.473V308.902Z" fill="#F9A825"/>
<path d="M268.116 321.386L211.006 331.204L209.682 322.887L266.791 313.069L268.116 321.386Z" fill="#F9A825"/>
<path d="M259.585 322.466C243.752 334.147 225.907 342.666 206.987 347.574L203.598 339.914C222.353 334.54 240.121 326.058 256.197 314.807L259.585 322.466Z" fill="#F9A825"/>
<path d="M254.827 296.907C238.994 308.588 221.149 317.106 202.229 322.014L198.84 314.355C217.595 308.98 235.363 300.499 251.439 289.247L254.827 296.907Z" fill="#F9A825"/>
<path d="M277.082 297.416C261.248 309.097 243.403 317.615 224.483 322.524L221.095 314.864C239.849 309.489 257.617 301.008 273.693 289.757L277.082 297.416Z" fill="#F9A825"/>
<path d="M285.346 303.985C269.513 315.666 251.668 324.184 232.748 329.093L229.359 321.433C248.114 316.058 265.881 307.577 281.958 296.325L285.346 303.985Z" fill="#F9A825"/>
<path d="M216.145 287.537H213.404V290.342H216.145V287.537Z" fill="#00BF71"/>
<path d="M224.368 336.352H221.627V339.158H224.368V336.352Z" fill="#00BF71"/>
<path d="M180.51 287.537H177.768V290.342H180.51V287.537Z" fill="#00BF71"/>
<path d="M244.104 322.325H241.363V325.13H244.104V322.325Z" fill="#00BF71"/>
<path d="M245.749 306.053H243.008V308.859H245.749V306.053Z" fill="#00BF71"/>
<path d="M200.531 298.372L197.355 296.167L196.124 298.024L199.299 300.229L200.531 298.372Z" fill="#00BF71"/>
<path d="M232.876 304.544L229.701 302.339L228.469 304.196L231.645 306.401L232.876 304.544Z" fill="#00BF71"/>
<path d="M193.404 315.205L190.228 312.999L188.997 314.857L192.172 317.062L193.404 315.205Z" fill="#00BF71"/>
<path d="M213.508 315.041L215.662 311.791L213.848 310.531L211.693 313.781L213.508 315.041Z" fill="#00BF71"/>
<path d="M228.31 318.969L230.465 315.719L228.65 314.459L226.495 317.709L228.31 318.969Z" fill="#00BF71"/>
<path d="M267.786 305.502L269.941 302.252L268.126 300.992L265.972 304.242L267.786 305.502Z" fill="#00BF71"/>
</svg>
