<svg width="561" height="473" viewBox="0 0 561 473" fill="none" xmlns="http://www.w3.org/2000/svg">
<path d="M313.486 172C319.285 172 323.986 167.075 323.986 161C323.986 154.925 319.285 150 313.486 150C307.687 150 302.986 154.925 302.986 161C302.986 167.075 307.687 172 313.486 172Z" fill="#6C63FF"/>
<path d="M313.51 165C313.277 165 313.05 164.924 312.863 164.782L312.851 164.773L310.413 162.88C310.299 162.793 310.204 162.684 310.133 162.559C310.061 162.434 310.014 162.296 309.996 162.153C309.977 162.009 309.986 161.864 310.023 161.724C310.059 161.585 310.123 161.454 310.209 161.339C310.296 161.224 310.404 161.128 310.528 161.056C310.651 160.984 310.787 160.937 310.929 160.918C311.07 160.899 311.213 160.909 311.351 160.947C311.489 160.984 311.618 161.049 311.73 161.137L313.31 162.365L317.043 157.43C317.129 157.316 317.237 157.219 317.36 157.147C317.484 157.075 317.62 157.028 317.761 157.009C317.902 156.991 318.045 157 318.182 157.037C318.32 157.075 318.449 157.139 318.562 157.227C318.789 157.404 318.939 157.666 318.977 157.955C319.014 158.244 318.937 158.536 318.763 158.767L314.372 164.571C314.271 164.705 314.14 164.813 313.991 164.888C313.841 164.962 313.677 165 313.51 165Z" fill="white"/>
<path d="M313.486 203C319.285 203 323.986 198.299 323.986 192.5C323.986 186.701 319.285 182 313.486 182C307.687 182 302.986 186.701 302.986 192.5C302.986 198.299 307.687 203 313.486 203Z" fill="#6C63FF"/>
<path d="M313.51 197C313.277 197 313.05 196.914 312.863 196.755L312.851 196.745L310.413 194.616C310.299 194.517 310.204 194.394 310.133 194.253C310.061 194.113 310.014 193.958 309.996 193.797C309.977 193.635 309.986 193.472 310.023 193.315C310.059 193.158 310.123 193.01 310.209 192.881C310.296 192.752 310.404 192.644 310.528 192.563C310.651 192.482 310.787 192.429 310.929 192.408C311.07 192.387 311.213 192.398 311.351 192.44C311.489 192.482 311.618 192.555 311.73 192.654L313.31 194.035L317.043 188.484C317.129 188.355 317.237 188.247 317.36 188.166C317.484 188.085 317.62 188.032 317.761 188.011C317.902 187.989 318.045 188 318.182 188.042C318.32 188.084 318.449 188.156 318.562 188.255C318.789 188.455 318.939 188.75 318.977 189.074C319.014 189.399 318.937 189.728 318.763 189.988L314.372 196.518C314.271 196.668 314.14 196.79 313.991 196.874C313.841 196.957 313.677 197.001 313.51 197Z" fill="white"/>
<path d="M319.486 240C325.285 240 329.986 235.299 329.986 229.5C329.986 223.701 325.285 219 319.486 219C313.687 219 308.986 223.701 308.986 229.5C308.986 235.299 313.687 240 319.486 240Z" fill="#6C63FF"/>
<path d="M318.51 234C318.277 234 318.05 233.914 317.863 233.755L317.851 233.745L315.413 231.616C315.299 231.517 315.204 231.394 315.133 231.253C315.061 231.113 315.014 230.958 314.996 230.797C314.977 230.635 314.986 230.472 315.023 230.315C315.059 230.158 315.123 230.01 315.209 229.881C315.296 229.752 315.404 229.644 315.528 229.563C315.651 229.482 315.787 229.429 315.929 229.408C316.07 229.387 316.213 229.398 316.351 229.44C316.489 229.482 316.618 229.555 316.73 229.654L318.31 231.035L322.043 225.484C322.129 225.355 322.237 225.247 322.36 225.166C322.484 225.085 322.62 225.032 322.761 225.011C322.902 224.989 323.045 225 323.182 225.042C323.32 225.084 323.449 225.156 323.562 225.255C323.789 225.455 323.939 225.75 323.977 226.074C324.014 226.399 323.937 226.728 323.763 226.988L319.372 233.518C319.271 233.668 319.14 233.79 318.991 233.874C318.841 233.957 318.677 234.001 318.51 234Z" fill="white"/>
<path d="M422.45 320C422.339 320 422.27 319.997 422.245 319.996L408.995 319.997V318.006H422.293C422.601 318.018 428.883 318.198 434.671 311.043C443.296 300.378 450.38 273.977 435.141 208.767C414.652 121.083 431.741 43.619 440.039 14.3841C440.448 12.9378 440.521 11.4143 440.253 9.93422C439.985 8.4541 439.382 7.05785 438.493 5.85578C437.604 4.6537 436.453 3.67874 435.13 3.00794C433.808 2.33714 432.351 1.98889 430.873 1.99067H232.984C231.48 1.99273 229.997 2.35619 228.656 3.05157C227.315 3.74695 226.154 4.75465 225.267 5.99288C221.752 10.9199 216.928 20.3853 213.909 37.5002L211.986 37.1483C215.07 19.6616 220.051 9.9178 223.687 4.82258C224.755 3.33057 226.154 2.11632 227.769 1.27839C229.385 0.440463 231.171 0.00247826 232.984 5.41779e-06H430.873C432.654 -0.00174011 434.41 0.418326 436.003 1.22702C437.597 2.03571 438.984 3.21086 440.055 4.65964C441.126 6.10842 441.852 7.79113 442.175 9.57482C442.498 11.3585 442.409 13.1943 441.916 14.9372C433.661 44.0204 416.66 121.082 437.042 208.306C452.495 274.433 445.066 301.406 436.114 312.389C430.208 319.633 423.702 320 422.45 320Z" fill="#E6E6E6"/>
<path d="M387.45 357C387.339 357 387.27 356.997 387.245 356.996L373.995 356.997V355H387.293C387.603 355.01 393.883 355.193 399.671 348.015C408.296 337.316 415.38 310.833 400.141 245.419C379.652 157.461 396.741 79.7553 405.039 50.4291C405.448 48.9782 405.521 47.45 405.253 45.9653C404.985 44.4805 404.382 43.0799 403.493 41.8741C402.604 40.6683 401.453 39.6903 400.13 39.0174C398.808 38.3445 397.351 37.9951 395.873 37.9969H197.984C196.48 37.999 194.997 38.3636 193.656 39.0611C192.315 39.7587 191.154 40.7695 190.267 42.0116C186.752 46.9541 181.928 56.449 178.909 73.6174L176.986 73.2644C180.07 55.7231 185.051 45.9488 188.687 40.8376C189.755 39.341 191.154 38.1229 192.77 37.2824C194.385 36.4418 196.172 36.0025 197.984 36H395.873C397.654 35.9983 399.41 36.4196 401.003 37.2309C402.597 38.0421 403.984 39.2209 405.055 40.6742C406.126 42.1275 406.852 43.8155 407.175 45.6048C407.498 47.394 407.409 49.2356 406.916 50.9839C398.661 80.158 381.66 157.461 402.042 244.957C417.495 311.291 410.066 338.348 401.114 349.365C395.208 356.632 388.702 357 387.45 357Z" fill="#CCCCCC"/>
<path d="M366.035 281.309C345.631 194.085 362.65 117.017 370.916 87.9401C371.409 86.1972 371.496 84.3617 371.173 82.5783C370.849 80.795 370.122 79.1126 369.051 77.664C367.979 76.2153 366.591 75.0399 364.997 74.2305C363.402 73.4211 361.645 72.9999 359.864 73H161.787C159.974 73.0018 158.186 73.4391 156.57 74.2763C154.953 75.1135 153.554 76.327 152.485 77.8183C144.489 89.0109 127.898 126.127 146.429 228.826C156.339 283.768 156.191 321.227 152.953 345.904C151.137 359.799 148.335 369.636 145.796 376.27L145.525 376.972C144.99 378.315 144.711 379.748 144.703 381.197C144.684 382.832 145.006 384.453 145.648 385.953C146.29 387.452 147.236 388.797 148.425 389.897C149.201 390.636 150.078 391.256 151.03 391.737C151.821 392.147 152.657 392.459 153.52 392.665C154.4 392.884 155.302 392.993 156.208 392.992H351.227C351.252 392.992 351.317 393 351.433 393C352.682 393 359.198 392.632 365.107 385.388C374.064 374.404 381.501 347.435 366.035 281.309ZM363.66 384.041C357.867 391.201 351.581 391.017 351.277 391.009H156.208C154.646 391.009 153.108 390.619 151.728 389.874C150.349 389.128 149.17 388.051 148.294 386.734C147.523 385.596 147.006 384.301 146.777 382.939C146.549 381.577 146.615 380.18 146.971 378.846C147.064 378.458 147.185 378.078 147.332 377.709C150.233 370.121 152.383 362.258 153.75 354.236C158.385 328.513 159.248 288.821 148.351 228.466C129.961 126.529 146.223 89.9729 154.062 78.9894C154.952 77.753 156.114 76.7469 157.456 76.0523C158.798 75.3577 160.282 74.9941 161.787 74.9909H359.864C361.341 74.9899 362.799 75.3385 364.122 76.0092C365.445 76.68 366.596 77.6545 367.486 78.856C368.375 80.0574 368.978 81.4528 369.247 82.932C369.516 84.4113 369.443 85.9339 369.035 87.3797C360.727 116.616 343.626 194.085 364.137 281.769C379.389 346.975 372.297 373.375 363.66 384.041Z" fill="#3F3D56"/>
<path d="M272.144 168H169.828C167.748 168 165.754 167.157 164.283 165.657C162.812 164.157 161.986 162.122 161.986 160C161.986 157.878 162.812 155.843 164.283 154.343C165.754 152.843 167.748 152 169.828 152H272.144C274.223 152 276.218 152.843 277.689 154.343C279.16 155.843 279.986 157.878 279.986 160C279.986 162.122 279.16 164.157 277.689 165.657C276.218 167.157 274.223 168 272.144 168Z" fill="#CCCCCC"/>
<path d="M272.144 202H169.828C167.748 202 165.754 201.157 164.283 199.657C162.812 198.157 161.986 196.122 161.986 194C161.986 191.878 162.812 189.843 164.283 188.343C165.754 186.843 167.748 186 169.828 186H272.144C274.223 186 276.218 186.843 277.689 188.343C279.16 189.843 279.986 191.878 279.986 194C279.986 196.122 279.16 198.157 277.689 199.657C276.218 201.157 274.223 202 272.144 202Z" fill="#CCCCCC"/>
<path d="M280.144 237H177.828C175.748 237 173.754 236.157 172.283 234.657C170.812 233.157 169.986 231.122 169.986 229C169.986 226.878 170.812 224.843 172.283 223.343C173.754 221.843 175.748 221 177.828 221H280.144C282.223 221 284.218 221.843 285.689 223.343C287.16 224.843 287.986 226.878 287.986 229C287.986 231.122 287.16 233.157 285.689 234.657C284.218 236.157 282.223 237 280.144 237Z" fill="#CCCCCC"/>
<path d="M286.144 274H183.828C181.748 274 179.754 273.157 178.283 271.657C176.812 270.157 175.986 268.122 175.986 266C175.986 263.878 176.812 261.843 178.283 260.343C179.754 258.843 181.748 258 183.828 258H286.144C288.223 258 290.218 258.843 291.689 260.343C293.16 261.843 293.986 263.878 293.986 266C293.986 268.122 293.16 270.157 291.689 271.657C290.218 273.157 288.223 274 286.144 274Z" fill="#CCCCCC"/>
<path d="M286.162 106H212.817C211.789 106.001 210.771 105.795 209.821 105.393C208.871 104.992 208.008 104.403 207.28 103.66C206.553 102.917 205.976 102.035 205.582 101.063C205.189 100.092 204.986 99.0513 204.986 98C204.986 96.9487 205.189 95.9078 205.582 94.9367C205.976 93.9655 206.553 93.0832 207.28 92.3403C208.008 91.5973 208.871 91.0082 209.821 90.6066C210.771 90.2051 211.789 89.9989 212.817 90H286.162C288.237 90 290.227 90.8429 291.694 92.3432C293.162 93.8434 293.986 95.8783 293.986 98C293.986 100.122 293.162 102.157 291.694 103.657C290.227 105.157 288.237 106 286.162 106Z" fill="#6C63FF"/>
<path d="M325.986 277C332.061 277 336.986 272.075 336.986 266C336.986 259.925 332.061 255 325.986 255C319.911 255 314.986 259.925 314.986 266C314.986 272.075 319.911 277 325.986 277Z" fill="#CCCCCC"/>
<path d="M291.144 310H188.828C186.748 310 184.754 309.157 183.283 307.657C181.812 306.157 180.986 304.122 180.986 302C180.986 299.878 181.812 297.843 183.283 296.343C184.754 294.843 186.748 294 188.828 294H291.144C293.223 294 295.218 294.843 296.689 296.343C298.16 297.843 298.986 299.878 298.986 302C298.986 304.122 298.16 306.157 296.689 307.657C295.218 309.157 293.223 310 291.144 310Z" fill="#CCCCCC"/>
<path d="M330.986 313C337.061 313 341.986 308.075 341.986 302C341.986 295.925 337.061 291 330.986 291C324.911 291 319.986 295.925 319.986 302C319.986 308.075 324.911 313 330.986 313Z" fill="#CCCCCC"/>
<path d="M1.24956 374.234C1.93968 379.029 6.47749 382.344 11.3851 381.637C16.2926 380.931 19.7115 376.471 19.0214 371.676C18.3313 366.881 13.7935 363.567 8.88591 364.273C3.97834 364.979 0.559436 369.439 1.24956 374.234Z" fill="#FF6584"/>
<path d="M1.24956 374.019C1.93968 378.814 6.47749 382.128 11.3851 381.422C16.2926 380.716 19.7115 376.256 19.0214 371.461C18.3313 366.666 13.7935 363.351 8.88591 364.058C3.97834 364.764 0.559436 369.224 1.24956 374.019Z" fill="#FF6584"/>
<path d="M530.501 463.47C531.137 458.667 527.669 454.246 522.753 453.595C517.838 452.944 513.338 456.309 512.702 461.112C512.065 465.914 515.534 470.335 520.449 470.986C525.365 471.637 529.865 468.272 530.501 463.47Z" fill="#FF6584"/>
<path d="M81.2355 427.24C81.9256 432.035 86.4635 435.35 91.371 434.643C96.2786 433.937 99.6975 429.477 99.0074 424.682C98.3173 419.887 93.7794 416.573 88.8719 417.279C83.9643 417.985 80.5454 422.445 81.2355 427.24Z" fill="#FF6584"/>
<path d="M81.2355 427.025C81.9256 431.82 86.4635 435.134 91.371 434.428C96.2786 433.722 99.6975 429.262 99.0074 424.467C98.3173 419.672 93.7794 416.357 88.8719 417.064C83.9643 417.77 80.5454 422.23 81.2355 427.025Z" fill="#FF6584"/>
<path d="M467.889 390.757C468.525 385.955 465.056 381.534 460.141 380.882C455.226 380.231 450.726 383.597 450.09 388.399C449.453 393.202 452.922 397.623 457.837 398.274C462.752 398.925 467.253 395.56 467.889 390.757Z" fill="#FF6584"/>
<path d="M278.834 431.989C283.671 432.259 287.816 428.464 288.092 423.514C288.368 418.563 284.671 414.332 279.834 414.062C274.997 413.792 270.852 417.586 270.576 422.537C270.3 427.487 273.997 431.719 278.834 431.989Z" fill="#FF6584"/>
<path opacity="0.2" d="M10.5173 379.547C8.74979 379.801 6.95593 379.359 5.53034 378.318C4.10476 377.277 3.16424 375.721 2.91568 373.994C2.66712 372.267 3.13089 370.51 4.20496 369.109C5.27903 367.708 6.87542 366.778 8.64294 366.523" fill="black"/>
<path opacity="0.2" d="M10.5173 379.331C8.74979 379.586 6.95593 379.144 5.53034 378.102C4.10476 377.061 3.16424 375.506 2.91568 373.779C2.66712 372.052 3.13089 370.295 4.20496 368.894C5.27903 367.492 6.87542 366.562 8.64294 366.308" fill="black"/>
<path opacity="0.2" d="M523.022 455.843C524.792 456.077 526.399 456.989 527.488 458.378C528.578 459.767 529.062 461.519 528.832 463.249C528.603 464.978 527.68 466.544 526.266 467.601C524.853 468.658 523.064 469.121 521.294 468.886" fill="black"/>
<path opacity="0.2" d="M90.5033 432.553C88.7357 432.807 86.9419 432.365 85.5163 431.324C84.0907 430.282 83.1502 428.727 82.9016 427C82.6531 425.273 83.1169 423.516 84.1909 422.115C85.265 420.714 86.8614 419.784 88.6289 419.529" fill="black"/>
<path opacity="0.2" d="M90.5033 432.337C88.7357 432.592 86.9419 432.15 85.5163 431.108C84.0907 430.067 83.1502 428.512 82.9016 426.785C82.6531 425.058 83.1169 423.301 84.1909 421.899C85.265 420.498 86.8614 419.568 88.6289 419.314" fill="black"/>
<path opacity="0.2" d="M460.409 383.13C462.18 383.365 463.786 384.277 464.876 385.665C465.966 387.054 466.449 388.806 466.22 390.536C465.991 392.266 465.068 393.832 463.654 394.889C462.241 395.946 460.452 396.408 458.681 396.174" fill="black"/>
<path opacity="0.2" d="M285.872 423.952C285.772 425.735 284.985 427.406 283.683 428.598C282.38 429.79 280.67 430.405 278.928 430.308C277.186 430.211 275.555 429.41 274.393 428.08C273.232 426.751 272.635 425.002 272.734 423.219" fill="black"/>
<path opacity="0.2" d="M9.75371 366.364C11.5212 366.109 13.3151 366.551 14.7407 367.593C16.1663 368.634 17.1068 370.189 17.3553 371.916C17.6039 373.643 17.1401 375.4 16.0661 376.802C14.992 378.203 13.3956 379.133 11.6281 379.387" fill="black"/>
<path opacity="0.2" d="M9.75371 366.148C11.5212 365.894 13.3151 366.336 14.7407 367.377C16.1663 368.419 17.1068 369.974 17.3553 371.701C17.6039 373.428 17.1401 375.185 16.0661 376.586C14.992 377.987 13.3956 378.917 11.6281 379.172" fill="black"/>
<path opacity="0.2" d="M520.181 468.739C518.411 468.504 516.804 467.592 515.714 466.203C514.625 464.814 514.141 463.062 514.37 461.333C514.599 459.603 515.522 458.037 516.936 456.98C518.35 455.923 520.139 455.461 521.909 455.695" fill="black"/>
<path opacity="0.2" d="M89.7396 419.369C91.5071 419.115 93.301 419.557 94.7266 420.598C96.1522 421.64 97.0927 423.195 97.3412 424.922C97.5898 426.649 97.126 428.406 96.052 429.807C94.9779 431.208 93.3815 432.138 91.614 432.393" fill="black"/>
<path opacity="0.2" d="M89.7396 419.154C91.5071 418.9 93.301 419.342 94.7266 420.383C96.1522 421.424 97.0927 422.98 97.3412 424.707C97.5898 426.434 97.126 428.191 96.052 429.592C94.9779 430.993 93.3815 431.923 91.614 432.177" fill="black"/>
<path opacity="0.2" d="M457.569 396.026C455.799 395.792 454.192 394.88 453.102 393.491C452.013 392.102 451.529 390.35 451.758 388.62C451.987 386.891 452.91 385.325 454.324 384.268C455.738 383.21 457.527 382.748 459.297 382.983" fill="black"/>
<path opacity="0.2" d="M272.797 422.099C272.896 420.316 273.684 418.645 274.986 417.453C276.288 416.261 277.998 415.645 279.74 415.743C281.482 415.84 283.114 416.641 284.275 417.971C285.437 419.3 286.033 421.049 285.934 422.832" fill="black"/>
<path d="M11.8884 369.38C11.9315 369.679 12.3395 369.869 12.7996 369.802C13.2597 369.736 13.5977 369.44 13.5545 369.14C13.5114 368.84 13.1035 368.651 12.6434 368.717C12.1833 368.783 11.8453 369.08 11.8884 369.38Z" fill="#FF6584"/>
<path d="M11.8884 369.164C11.9315 369.464 12.3395 369.653 12.7996 369.587C13.2597 369.521 13.5977 369.224 13.5545 368.925C13.5114 368.625 13.1035 368.436 12.6434 368.502C12.1833 368.568 11.8453 368.865 11.8884 369.164Z" fill="#FF6584"/>
<path d="M518.944 465.257C518.984 464.957 518.643 464.664 518.182 464.603C517.721 464.542 517.315 464.735 517.276 465.036C517.236 465.336 517.577 465.629 518.038 465.69C518.499 465.751 518.905 465.557 518.944 465.257Z" fill="#FF6584"/>
<path d="M91.8743 422.386C91.9174 422.685 92.3254 422.875 92.7855 422.808C93.2456 422.742 93.5836 422.445 93.5404 422.146C93.4973 421.846 93.0894 421.657 92.6293 421.723C92.1692 421.789 91.8312 422.086 91.8743 422.386Z" fill="#FF6584"/>
<path d="M91.8743 422.17C91.9174 422.47 92.3254 422.659 92.7855 422.593C93.2456 422.527 93.5836 422.23 93.5404 421.93C93.4973 421.631 93.0894 421.441 92.6293 421.508C92.1692 421.574 91.8312 421.871 91.8743 422.17Z" fill="#FF6584"/>
<path d="M456.332 392.544C456.372 392.244 456.031 391.951 455.57 391.89C455.109 391.829 454.703 392.023 454.664 392.323C454.624 392.623 454.965 392.916 455.426 392.977C455.887 393.038 456.293 392.844 456.332 392.544Z" fill="#FF6584"/>
<path d="M276.175 420.601C276.477 420.618 276.743 420.256 276.769 419.792C276.795 419.327 276.571 418.938 276.269 418.921C275.966 418.904 275.7 419.266 275.674 419.731C275.649 420.195 275.873 420.585 276.175 420.601Z" fill="#FF6584"/>
<path d="M13.4677 372.476C13.5108 372.775 13.9188 372.965 14.3789 372.898C14.839 372.832 15.177 372.535 15.1338 372.236C15.0907 371.936 14.6828 371.747 14.2227 371.813C13.7626 371.879 13.4246 372.176 13.4677 372.476Z" fill="#FF6584"/>
<path d="M13.4677 372.26C13.5108 372.56 13.9188 372.749 14.3789 372.683C14.839 372.617 15.177 372.32 15.1338 372.02C15.0907 371.721 14.6828 371.531 14.2227 371.598C13.7626 371.664 13.4246 371.961 13.4677 372.26Z" fill="#FF6584"/>
<path d="M518.264 461.849C518.304 461.548 517.962 461.256 517.502 461.195C517.041 461.133 516.635 461.327 516.595 461.627C516.555 461.928 516.897 462.22 517.358 462.281C517.818 462.343 518.224 462.149 518.264 461.849Z" fill="#FF6584"/>
<path d="M93.4536 425.481C93.4967 425.781 93.9047 425.97 94.3648 425.904C94.8249 425.838 95.1629 425.541 95.1197 425.242C95.0766 424.942 94.6687 424.753 94.2086 424.819C93.7485 424.885 93.4105 425.182 93.4536 425.481Z" fill="#FF6584"/>
<path d="M93.4536 425.266C93.4967 425.566 93.9047 425.755 94.3648 425.689C94.8249 425.623 95.1629 425.326 95.1197 425.026C95.0766 424.727 94.6687 424.537 94.2086 424.604C93.7485 424.67 93.4105 424.966 93.4536 425.266Z" fill="#FF6584"/>
<path d="M455.652 389.136C455.692 388.836 455.35 388.543 454.89 388.482C454.429 388.421 454.023 388.615 453.983 388.915C453.943 389.215 454.285 389.508 454.746 389.569C455.206 389.63 455.612 389.436 455.652 389.136Z" fill="#FF6584"/>
<path d="M279.522 419.664C279.824 419.681 280.09 419.319 280.116 418.854C280.142 418.39 279.918 418 279.615 417.984C279.313 417.967 279.047 418.329 279.021 418.793C278.995 419.257 279.219 419.647 279.522 419.664Z" fill="#FF6584"/>
<path d="M6.24792 373.515C6.29106 373.814 6.69899 374.004 7.15908 373.937C7.61916 373.871 7.95717 373.575 7.91404 373.275C7.8709 372.975 7.46297 372.786 7.00288 372.852C6.5428 372.918 6.20479 373.215 6.24792 373.515Z" fill="#FF6584"/>
<path d="M6.24792 373.299C6.29106 373.599 6.69899 373.788 7.15908 373.722C7.61916 373.656 7.95717 373.359 7.91404 373.06C7.8709 372.76 7.46297 372.571 7.00288 372.637C6.5428 372.703 6.20479 373 6.24792 373.299Z" fill="#FF6584"/>
<path d="M525.495 462.806C525.535 462.506 525.193 462.213 524.733 462.152C524.272 462.091 523.866 462.285 523.826 462.585C523.787 462.886 524.128 463.178 524.589 463.239C525.049 463.3 525.455 463.107 525.495 462.806Z" fill="#FF6584"/>
<path d="M86.2338 426.521C86.277 426.82 86.6849 427.01 87.145 426.943C87.6051 426.877 87.9431 426.58 87.8999 426.281C87.8568 425.981 87.4489 425.792 86.9888 425.858C86.5287 425.924 86.1907 426.221 86.2338 426.521Z" fill="#FF6584"/>
<path d="M86.2338 426.305C86.277 426.605 86.6849 426.794 87.145 426.728C87.6051 426.662 87.9431 426.365 87.8999 426.065C87.8568 425.766 87.4489 425.577 86.9888 425.643C86.5287 425.709 86.1907 426.006 86.2338 426.305Z" fill="#FF6584"/>
<path d="M462.883 390.094C462.923 389.794 462.581 389.501 462.121 389.44C461.66 389.379 461.254 389.573 461.214 389.873C461.174 390.173 461.516 390.466 461.977 390.527C462.437 390.588 462.843 390.394 462.883 390.094Z" fill="#FF6584"/>
<path d="M279.116 426.947C279.418 426.964 279.684 426.601 279.71 426.137C279.736 425.673 279.512 425.283 279.209 425.266C278.907 425.249 278.641 425.612 278.615 426.076C278.589 426.54 278.813 426.93 279.116 426.947Z" fill="#FF6584"/>
<path d="M2.25122 377.413C2.29435 377.713 2.70229 377.902 3.16237 377.836C3.62246 377.77 3.96046 377.473 3.91733 377.173C3.8742 376.874 3.46626 376.684 3.00618 376.751C2.54609 376.817 2.20809 377.114 2.25122 377.413Z" fill="#FF6584"/>
<path d="M2.25122 377.198C2.29435 377.498 2.70229 377.687 3.16237 377.621C3.62246 377.554 3.96046 377.258 3.91733 376.958C3.8742 376.658 3.46626 376.469 3.00618 376.535C2.54609 376.602 2.20809 376.898 2.25122 377.198Z" fill="#FF6584"/>
<path d="M530.399 460.138C530.439 459.838 530.098 459.545 529.637 459.484C529.176 459.423 528.77 459.617 528.731 459.917C528.691 460.217 529.032 460.51 529.493 460.571C529.954 460.632 530.359 460.438 530.399 460.138Z" fill="#FF6584"/>
<path d="M536.446 461.492C536.486 461.192 536.144 460.899 535.683 460.838C535.223 460.777 534.817 460.971 534.777 461.271C534.737 461.571 535.079 461.864 535.539 461.925C536 461.986 536.406 461.792 536.446 461.492Z" fill="#FF6584"/>
<path d="M6.81195 369.556C6.85508 369.856 7.26302 370.045 7.7231 369.979C8.18319 369.913 8.52119 369.616 8.47806 369.317C8.43493 369.017 8.02699 368.828 7.56691 368.894C7.10682 368.96 6.76882 369.257 6.81195 369.556Z" fill="#FF6584"/>
<path d="M6.81195 369.341C6.85508 369.641 7.26302 369.83 7.7231 369.764C8.18319 369.698 8.52119 369.401 8.47806 369.101C8.43493 368.802 8.02699 368.612 7.56691 368.679C7.10682 368.745 6.76882 369.041 6.81195 369.341Z" fill="#FF6584"/>
<path d="M523.879 466.463C523.918 466.163 523.577 465.87 523.116 465.809C522.655 465.748 522.25 465.942 522.21 466.242C522.17 466.542 522.511 466.835 522.972 466.896C523.433 466.957 523.839 466.764 523.879 466.463Z" fill="#FF6584"/>
<path d="M86.7979 422.562C86.841 422.862 87.249 423.051 87.7091 422.985C88.1692 422.919 88.5072 422.622 88.464 422.323C88.4209 422.023 88.013 421.834 87.5529 421.9C87.0928 421.966 86.7548 422.263 86.7979 422.562Z" fill="#FF6584"/>
<path d="M86.7979 422.347C86.841 422.647 87.249 422.836 87.7091 422.77C88.1692 422.704 88.5072 422.407 88.464 422.107C88.4209 421.808 88.013 421.618 87.5529 421.684C87.0928 421.751 86.7548 422.047 86.7979 422.347Z" fill="#FF6584"/>
<path d="M461.266 393.751C461.306 393.451 460.965 393.158 460.504 393.097C460.043 393.036 459.637 393.23 459.598 393.53C459.558 393.83 459.899 394.123 460.36 394.184C460.821 394.245 461.227 394.051 461.266 393.751Z" fill="#FF6584"/>
<path d="M275.346 425.613C275.649 425.63 275.915 425.267 275.941 424.803C275.966 424.339 275.742 423.949 275.44 423.932C275.138 423.915 274.872 424.278 274.846 424.742C274.82 425.206 275.044 425.596 275.346 425.613Z" fill="#FF6584"/>
<path d="M69.8381 373.455C70.5282 378.25 75.0661 381.565 79.9736 380.859C84.8812 380.152 88.3001 375.693 87.61 370.898C86.9199 366.102 82.3821 362.788 77.4745 363.494C72.5669 364.201 69.148 368.66 69.8381 373.455Z" fill="#6C63FF"/>
<path d="M69.8381 373.24C70.5282 378.035 75.0661 381.35 79.9736 380.643C84.8812 379.937 88.3001 375.477 87.61 370.682C86.9199 365.887 82.3821 362.573 77.4745 363.279C72.5669 363.985 69.148 368.445 69.8381 373.24Z" fill="#6C63FF"/>
<path d="M464.272 445.617C464.908 440.815 461.44 436.393 456.524 435.742C451.609 435.091 447.109 438.457 446.473 443.259C445.836 448.062 449.305 452.483 454.22 453.134C459.136 453.785 463.636 450.42 464.272 445.617Z" fill="#6C63FF"/>
<path d="M223.858 432.548C228.695 432.817 232.84 429.023 233.116 424.072C233.392 419.122 229.695 414.89 224.858 414.62C220.021 414.351 215.876 418.145 215.6 423.095C215.324 428.046 219.021 432.278 223.858 432.548Z" fill="#6C63FF"/>
<path opacity="0.2" d="M79.1059 378.768C77.3384 379.023 75.5445 378.581 74.1189 377.539C72.6934 376.498 71.7528 374.943 71.5043 373.216C71.2557 371.489 71.7195 369.731 72.7936 368.33C73.8676 366.929 75.464 365.999 77.2316 365.745" fill="black"/>
<path opacity="0.2" d="M79.1059 378.553C77.3384 378.807 75.5445 378.365 74.1189 377.324C72.6934 376.283 71.7528 374.727 71.5043 373C71.2557 371.273 71.7195 369.516 72.7936 368.115C73.8676 366.714 75.464 365.784 77.2316 365.529" fill="black"/>
<path opacity="0.2" d="M456.793 437.99C458.563 438.224 460.17 439.136 461.259 440.525C462.349 441.914 462.833 443.666 462.603 445.396C462.374 447.126 461.451 448.691 460.037 449.749C458.624 450.806 456.835 451.268 455.065 451.033" fill="black"/>
<path opacity="0.2" d="M230.895 424.51C230.796 426.293 230.009 427.965 228.706 429.157C227.404 430.349 225.694 430.964 223.952 430.867C222.21 430.77 220.579 429.968 219.417 428.639C218.256 427.309 217.659 425.561 217.758 423.778" fill="black"/>
<path opacity="0.2" d="M78.3422 365.585C80.1098 365.331 81.9036 365.773 83.3292 366.814C84.7548 367.855 85.6953 369.41 85.9439 371.137C86.1925 372.864 85.7287 374.622 84.6546 376.023C83.5805 377.424 81.9841 378.354 80.2166 378.608" fill="black"/>
<path opacity="0.2" d="M78.3422 365.37C80.1098 365.115 81.9036 365.557 83.3292 366.599C84.7548 367.64 85.6953 369.195 85.9439 370.922C86.1925 372.649 85.7287 374.406 84.6546 375.808C83.5805 377.209 81.9841 378.139 80.2166 378.393" fill="black"/>
<path opacity="0.2" d="M453.952 450.886C452.182 450.652 450.575 449.74 449.485 448.351C448.396 446.962 447.912 445.21 448.141 443.48C448.371 441.75 449.294 440.185 450.707 439.127C452.121 438.07 453.91 437.608 455.68 437.842" fill="black"/>
<path opacity="0.2" d="M217.821 422.657C217.92 420.874 218.708 419.203 220.01 418.011C221.312 416.819 223.022 416.204 224.764 416.301C226.506 416.398 228.138 417.2 229.299 418.529C230.461 419.859 231.057 421.607 230.958 423.39" fill="black"/>
<path d="M80.477 368.601C80.5201 368.901 80.9281 369.09 81.3881 369.024C81.8482 368.957 82.1862 368.661 82.1431 368.361C82.1 368.061 81.692 367.872 81.2319 367.938C80.7719 368.005 80.4339 368.301 80.477 368.601Z" fill="#6C63FF"/>
<path d="M80.477 368.386C80.5201 368.685 80.9281 368.875 81.3881 368.808C81.8482 368.742 82.1862 368.445 82.1431 368.146C82.1 367.846 81.692 367.657 81.2319 367.723C80.7719 367.789 80.4339 368.086 80.477 368.386Z" fill="#6C63FF"/>
<path d="M452.715 447.404C452.755 447.104 452.414 446.811 451.953 446.75C451.492 446.689 451.087 446.883 451.047 447.183C451.007 447.483 451.348 447.776 451.809 447.837C452.27 447.898 452.676 447.704 452.715 447.404Z" fill="#6C63FF"/>
<path d="M82.0563 371.697C82.0995 371.997 82.5074 372.186 82.9675 372.12C83.4276 372.053 83.7656 371.757 83.7224 371.457C83.6793 371.157 83.2714 370.968 82.8113 371.034C82.3512 371.101 82.0132 371.397 82.0563 371.697Z" fill="#6C63FF"/>
<path d="M82.0563 371.482C82.0995 371.781 82.5074 371.971 82.9675 371.904C83.4276 371.838 83.7656 371.541 83.7224 371.242C83.6793 370.942 83.2714 370.753 82.8113 370.819C82.3512 370.885 82.0132 371.182 82.0563 371.482Z" fill="#6C63FF"/>
<path d="M452.035 443.996C452.075 443.696 451.733 443.403 451.273 443.342C450.812 443.281 450.406 443.475 450.366 443.775C450.326 444.075 450.668 444.368 451.129 444.429C451.589 444.49 451.995 444.296 452.035 443.996Z" fill="#6C63FF"/>
<path d="M74.8365 372.736C74.8796 373.036 75.2876 373.225 75.7476 373.159C76.2077 373.093 76.5457 372.796 76.5026 372.496C76.4595 372.197 76.0515 372.007 75.5914 372.074C75.1314 372.14 74.7934 372.436 74.8365 372.736Z" fill="#6C63FF"/>
<path d="M74.8365 372.521C74.8796 372.82 75.2876 373.01 75.7476 372.943C76.2077 372.877 76.5457 372.581 76.5026 372.281C76.4595 371.981 76.0515 371.792 75.5914 371.858C75.1314 371.924 74.7934 372.221 74.8365 372.521Z" fill="#6C63FF"/>
<path d="M459.266 444.954C459.306 444.654 458.964 444.361 458.504 444.3C458.043 444.239 457.637 444.433 457.597 444.733C457.558 445.033 457.899 445.326 458.36 445.387C458.82 445.448 459.226 445.254 459.266 444.954Z" fill="#6C63FF"/>
<path d="M79.7481 375.352C79.7912 375.652 80.1992 375.841 80.6593 375.775C81.1193 375.709 81.4574 375.412 81.4142 375.113C81.3711 374.813 80.9632 374.624 80.5031 374.69C80.043 374.756 79.705 375.053 79.7481 375.352Z" fill="#6C63FF"/>
<path d="M79.7481 375.137C79.7912 375.437 80.1992 375.626 80.6593 375.56C81.1193 375.494 81.4574 375.197 81.4142 374.897C81.3711 374.598 80.9632 374.408 80.5031 374.475C80.043 374.541 79.705 374.837 79.7481 375.137Z" fill="#6C63FF"/>
<path d="M455.248 441.103C455.288 440.803 454.947 440.51 454.486 440.449C454.025 440.388 453.619 440.582 453.579 440.882C453.54 441.182 453.881 441.475 454.342 441.536C454.803 441.597 455.208 441.404 455.248 441.103Z" fill="#6C63FF"/>
<path d="M227.674 423.207C227.976 423.224 228.242 422.861 228.268 422.397C228.294 421.933 228.07 421.543 227.767 421.526C227.465 421.509 227.199 421.872 227.173 422.336C227.147 422.8 227.371 423.19 227.674 423.207Z" fill="#6C63FF"/>
<path d="M395.433 403.318C395.61 404.415 397.288 405.108 399.18 404.865C401.072 404.623 402.462 403.537 402.284 402.44C402.107 401.343 400.429 400.651 398.537 400.893C396.645 401.135 395.256 402.221 395.433 403.318Z" fill="#6C63FF"/>
<path d="M73.5609 375.689C73.604 375.989 74.0119 376.178 74.472 376.112C74.9321 376.046 75.2701 375.749 75.227 375.449C75.1838 375.15 74.7759 374.96 74.3158 375.026C73.8557 375.093 73.5177 375.389 73.5609 375.689Z" fill="#6C63FF"/>
<path d="M73.5609 375.474C73.604 375.773 74.0119 375.963 74.472 375.896C74.9321 375.83 75.2701 375.534 75.227 375.234C75.1838 374.934 74.7759 374.745 74.3158 374.811C73.8557 374.877 73.5177 375.174 73.5609 375.474Z" fill="#6C63FF"/>
<path d="M461.295 442.457C461.334 442.157 460.993 441.865 460.532 441.803C460.072 441.742 459.666 441.936 459.626 442.236C459.586 442.537 459.928 442.829 460.388 442.89C460.849 442.951 461.255 442.758 461.295 442.457Z" fill="#6C63FF"/>
<path d="M226.782 429.339C227.085 429.356 227.351 428.993 227.377 428.529C227.403 428.065 227.179 427.675 226.876 427.658C226.574 427.641 226.308 428.004 226.282 428.468C226.256 428.932 226.48 429.322 226.782 429.339Z" fill="#6C63FF"/>
<path d="M75.4006 368.778C75.4437 369.077 75.8516 369.267 76.3117 369.2C76.7718 369.134 77.1098 368.838 77.0667 368.538C77.0236 368.238 76.6156 368.049 76.1555 368.115C75.6954 368.181 75.3574 368.478 75.4006 368.778Z" fill="#6C63FF"/>
<path d="M75.4006 368.562C75.4437 368.862 75.8516 369.051 76.3117 368.985C76.7718 368.919 77.1098 368.622 77.0667 368.323C77.0236 368.023 76.6156 367.834 76.1555 367.9C75.6954 367.966 75.3574 368.263 75.4006 368.562Z" fill="#6C63FF"/>
<path d="M457.65 448.611C457.689 448.311 457.348 448.018 456.887 447.957C456.426 447.896 456.021 448.09 455.981 448.39C455.941 448.69 456.282 448.983 456.743 449.044C457.204 449.105 457.61 448.911 457.65 448.611Z" fill="#6C63FF"/>
<path d="M539.12 150.386L539.227 150.386C542.897 150.417 546.492 149.316 549.541 147.226C552.591 145.135 554.954 142.152 556.322 138.667C559.136 131.386 560.555 123.619 560.499 115.79C560.308 82.6509 533.966 55.4644 501.589 55.006C487.801 54.8084 474.37 59.4969 463.573 68.2766C452.776 77.0562 445.278 89.3869 442.349 103.178C439.421 116.97 441.242 131.373 447.504 143.947C453.767 156.522 464.085 166.493 476.71 172.17C480.046 173.682 483.751 174.126 487.339 173.446C490.926 172.765 494.229 170.99 496.814 168.355C502.358 162.651 508.951 158.126 516.212 155.042C523.473 151.958 531.258 150.376 539.12 150.386Z" fill="#E6E6E6"/>
<path d="M508.419 131.87C519.319 131.87 528.155 122.826 528.155 111.67C528.155 100.515 519.319 91.4711 508.419 91.4711C497.518 91.4711 488.682 100.515 488.682 111.67C488.682 122.826 497.518 131.87 508.419 131.87Z" fill="#F9A825"/>
<path d="M465.524 109.399C466.808 109.399 467.849 108.334 467.849 107.019C467.849 105.705 466.808 104.64 465.524 104.64C464.24 104.64 463.199 105.705 463.199 107.019C463.199 108.334 464.24 109.399 465.524 109.399Z" fill="#3F3D56"/>
<path d="M477.916 84.7379C479.2 84.7379 480.241 83.6726 480.241 82.3584C480.241 81.0442 479.2 79.9788 477.916 79.9788C476.632 79.9788 475.591 81.0442 475.591 82.3584C475.591 83.6726 476.632 84.7379 477.916 84.7379Z" fill="#3F3D56"/>
<path d="M523.901 79.8233C525.185 79.8233 526.226 78.7579 526.226 77.4437C526.226 76.1295 525.185 75.0641 523.901 75.0641C522.617 75.0641 521.576 76.1295 521.576 77.4437C521.576 78.7579 522.617 79.8233 523.901 79.8233Z" fill="#3F3D56"/>
<path d="M84.638 61.6666L81.7092 111.773L78.0797 173.907L20.0665 172.111L20.3247 99.1898L20.4636 59.6799L84.638 61.6666Z" fill="#E6E6E6"/>
<path d="M57.2271 34.1126L49.0128 33.8583L45.9409 133.089L54.1551 133.343L57.2271 34.1126Z" fill="#6C63FF"/>
<path d="M79.3608 99.3263L75.6005 170.556L22.7221 168.919L23.487 85.353C28.2888 84.2805 33.287 84.1226 38.1702 84.8891C43.0533 85.6556 47.7168 87.33 51.87 89.8081C60.5574 94.8456 70.4033 97.7172 79.3608 99.3263Z" fill="#3F3D56"/>
<path d="M37.7709 106.071L30.2335 105.837L30.0208 112.709L37.5582 112.942L37.7709 106.071Z" fill="#E6E6E6"/>
<path d="M43.3396 92.1874L35.8022 91.9541L35.5894 98.826L43.1268 99.0594L43.3396 92.1874Z" fill="#E6E6E6"/>
<path d="M59.2239 102.41L53.2966 98.1285L48.6357 103.509L54.563 107.79L59.2239 102.41Z" fill="#E6E6E6"/>
<path d="M72.4652 115.007L66.5378 110.726L61.8769 116.107L67.8043 120.388L72.4652 115.007Z" fill="#E6E6E6"/>
<path d="M49.1451 121.313L43.2178 117.032L38.5569 122.412L44.4842 126.694L49.1451 121.313Z" fill="#E6E6E6"/>
<path d="M67.8242 90.194C68.6748 90.2203 69.3839 89.613 69.4079 88.8375C69.4319 88.062 68.7618 87.4119 67.9112 87.3856C67.0605 87.3593 66.3515 87.9666 66.3275 88.7421C66.3035 89.5176 66.9736 90.1677 67.8242 90.194Z" fill="#3F3D56"/>
<path d="M36.7971 79.8631C37.6477 79.8895 38.3567 79.2821 38.3807 78.5066C38.4047 77.7311 37.7346 77.0811 36.884 77.0547C36.0334 77.0284 35.3243 77.6357 35.3003 78.4113C35.2763 79.1868 35.9464 79.8368 36.7971 79.8631Z" fill="#3F3D56"/>
<path d="M63.2844 70.8443C64.135 70.8706 64.8441 70.2633 64.8681 69.4878C64.8921 68.7123 64.222 68.0622 63.3714 68.0359C62.5207 68.0096 61.8117 68.6169 61.7877 69.3924C61.7637 70.1679 62.4338 70.818 63.2844 70.8443Z" fill="#3F3D56"/>
<path d="M20.9332 243.564C19.5235 242.077 18.4116 240.326 17.661 238.409C16.9103 236.492 16.5358 234.448 16.5587 232.394C16.5815 230.34 17.0014 228.316 17.7943 226.438C18.5873 224.559 19.7376 222.863 21.1797 221.447C22.6217 220.031 24.3272 218.921 26.1985 218.183C28.0699 217.444 30.0705 217.091 32.0859 217.143C34.1013 217.195 36.092 217.652 37.9442 218.486C39.7964 219.321 41.4738 220.518 42.8805 222.008L95.4489 277.575C96.8586 279.062 97.9706 280.814 98.7212 282.731C99.4718 284.648 99.8464 286.691 99.8235 288.745C99.8006 290.8 99.3807 292.824 98.5878 294.702C97.7949 296.581 96.6446 298.276 95.2025 299.693C93.7605 301.109 92.055 302.218 90.1836 302.957C88.3123 303.695 86.3117 304.049 84.2963 303.996C82.2809 303.944 80.2902 303.488 78.438 302.653C76.5858 301.819 74.9084 300.622 73.5017 299.132L20.9332 243.564Z" fill="#FF6584"/>
<path opacity="0.2" d="M26.7966 249.762L24.3704 247.198C30.0576 238.938 37.5348 231.859 46.3176 225.641L48.7439 228.206C38.8565 233.684 31.1317 240.598 26.7966 249.762Z" fill="black"/>
<path opacity="0.2" d="M38.119 261.731L35.6927 259.166C41.3799 250.907 48.8572 243.827 57.6399 237.609L60.0662 240.174C50.1788 245.652 42.4541 252.566 38.119 261.731Z" fill="black"/>
<path opacity="0.2" d="M49.4415 273.699L47.0153 271.135C52.7025 262.875 60.1797 255.796 68.9625 249.578L71.3888 252.142C61.5014 257.621 53.7766 264.535 49.4415 273.699Z" fill="black"/>
<path opacity="0.2" d="M60.7639 285.668L58.3377 283.103C64.0249 274.843 71.5021 267.764 80.2849 261.546L82.7111 264.111C72.8238 269.589 65.099 276.503 60.7639 285.668Z" fill="black"/>
<path opacity="0.2" d="M72.0863 297.636L69.6601 295.071C75.3473 286.812 82.8246 279.733 91.6074 273.515L94.0336 276.079C84.1462 281.557 76.4214 288.471 72.0863 297.636Z" fill="black"/>
<path d="M509.485 211H488.298C487.553 211 486.839 211.257 486.312 211.715C485.785 212.173 485.489 212.794 485.489 213.441V221.523C485.489 222.17 485.785 222.791 486.312 223.249C486.839 223.707 487.553 223.964 488.298 223.964H491.809V236.074H505.974V223.964H509.485C510.23 223.964 510.945 223.707 511.471 223.249C511.998 222.791 512.294 222.17 512.294 221.523V213.441C512.294 212.794 511.998 212.173 511.471 211.715C510.945 211.257 510.23 211 509.485 211Z" fill="#6C63FF"/>
<path d="M530.706 284.966C517.73 268.465 511.097 248.819 511.756 228.841C511.768 228.38 511.596 227.93 511.269 227.567C510.942 227.203 510.481 226.95 509.963 226.849V223.357H487.587V226.8H487.279C486.963 226.801 486.651 226.857 486.362 226.967C486.073 227.077 485.813 227.238 485.598 227.439C485.384 227.64 485.219 227.877 485.115 228.136C485.011 228.395 484.969 228.67 484.992 228.943C486.755 250.299 480.802 269.451 467.134 286.398C466.348 287.372 465.946 288.541 465.989 289.73L468.436 355.505C468.495 356.972 469.203 358.362 470.413 359.386C471.624 360.41 473.242 360.988 474.932 361H525.543C527.251 360.988 528.887 360.397 530.101 359.352C531.315 358.307 532.011 356.892 532.042 355.408L532.985 291.546C533.013 289.202 532.218 286.907 530.706 284.966Z" fill="#3F3D56"/>
<path opacity="0.2" d="M505.068 213.633C505.068 215.03 504.43 216.37 503.293 217.358C502.157 218.345 500.616 218.9 499.008 218.9C497.401 218.9 495.86 218.345 494.723 217.358C493.587 216.37 492.948 215.03 492.948 213.633" fill="black"/>
<path d="M522.694 306.814H516.565C515.98 303.514 514.056 300.505 511.14 298.332C508.224 296.158 504.509 294.964 500.668 294.964C496.826 294.964 493.111 296.158 490.196 298.332C487.28 300.505 485.355 303.514 484.77 306.814H478.641C477.989 306.814 477.344 306.936 476.752 307.173C476.159 307.41 475.633 307.755 475.208 308.185C474.784 308.615 474.471 309.12 474.292 309.665C474.113 310.21 474.072 310.782 474.171 311.342L480.828 348.947H519.053L527.139 311.469C527.262 310.901 527.239 310.317 527.072 309.758C526.905 309.199 526.599 308.678 526.174 308.234C525.75 307.79 525.218 307.432 524.617 307.186C524.015 306.941 523.359 306.814 522.694 306.814Z" fill="#6C63FF"/>
</svg>
