<svg width="354" height="328" viewBox="0 0 354 328" fill="none" xmlns="http://www.w3.org/2000/svg">
<path d="M52.2351 303.243C121.141 336.085 232.86 336.086 301.766 303.244C370.672 270.401 370.672 217.154 301.766 184.312C232.86 151.47 121.14 151.47 52.2341 184.311C-16.6719 217.153 -16.6719 270.401 52.2351 303.243Z" fill="#F5F5F5"/>
<path d="M285.282 275.766C294.256 280.043 308.804 280.043 317.778 275.766C326.752 271.49 326.752 264.555 317.778 260.278C308.804 256.002 294.256 256.002 285.282 260.278C276.309 264.555 276.309 271.489 285.282 275.766Z" fill="#EBEBEB"/>
<path d="M46.9539 269.593L55.0779 264.903C55.0779 264.903 61.7799 259.977 65.0989 250.832C67.6099 243.912 67.2639 238.647 65.4629 236.009C63.2479 232.762 57.5169 233.329 57.2889 240.175C56.8409 253.654 52.9079 262.98 46.9539 269.593Z" fill="#3F3D56"/>
<path opacity="0.2" d="M46.9539 269.593L55.0779 264.903C55.0779 264.903 61.7799 259.977 65.0989 250.832C67.6099 243.912 67.2639 238.647 65.4629 236.009C63.2479 232.762 57.5169 233.329 57.2889 240.175C56.8409 253.654 52.9079 262.98 46.9539 269.593Z" fill="black"/>
<path d="M46.9549 270.093C46.7959 270.093 46.6409 270.018 46.5429 269.877C46.3859 269.65 46.4419 269.339 46.6689 269.182C65.4659 256.175 61.8249 238.054 61.7859 237.872C61.7279 237.602 61.8999 237.336 62.1689 237.278C62.4409 237.218 62.7049 237.391 62.7629 237.661C62.8039 237.849 66.6019 256.604 47.2379 270.004C47.1519 270.065 47.0529 270.093 46.9549 270.093Z" fill="white"/>
<path d="M30.706 278.974C30.706 278.974 27.878 276.671 28.562 273.554C29.247 270.436 31.071 268.195 27.935 264.173C24.799 260.15 23.989 254.792 27.677 251.886C30.528 249.639 34.977 252.824 36.584 246.87C37.756 242.53 37.356 232.921 42.893 229.724C48.429 226.528 51.867 231.34 51.017 237.858C50.257 243.689 49.186 249.303 50.012 250.832C51.627 253.82 54.403 253.419 54.277 258.897C54.159 263.998 49.337 268.219 49.337 268.219L30.706 278.974Z" fill="#3F3D56"/>
<path d="M39.998 274.108C39.748 274.108 39.533 273.922 39.502 273.668C38.071 261.819 41.481 241.361 44.302 235.28C44.418 235.029 44.713 234.918 44.966 235.037C45.217 235.153 45.325 235.45 45.209 235.7C42.438 241.676 39.126 262.222 40.495 273.549C40.528 273.822 40.332 274.071 40.058 274.105C40.038 274.107 40.018 274.108 39.998 274.108Z" fill="white"/>
<path d="M39.7269 264.884C39.6529 264.884 39.5789 264.867 39.5079 264.833C36.0379 263.137 33.8389 257.111 33.7469 256.855C33.6539 256.595 33.7889 256.309 34.0479 256.215C34.3079 256.122 34.5939 256.256 34.6879 256.517C34.7089 256.576 36.8419 262.415 39.9469 263.934C40.1949 264.055 40.2979 264.355 40.1759 264.603C40.0899 264.781 39.9129 264.884 39.7269 264.884Z" fill="white"/>
<path d="M39.6711 268.877C39.4731 268.877 39.2851 268.758 39.2071 268.562C39.1051 268.306 39.2291 268.015 39.4851 267.913C45.3241 265.573 48.9641 258.615 49.0001 258.545C49.1271 258.3 49.4281 258.202 49.6731 258.33C49.9191 258.456 50.0151 258.758 49.8881 259.004C49.7341 259.303 46.0381 266.364 39.8561 268.841C39.7961 268.865 39.7331 268.877 39.6711 268.877Z" fill="white"/>
<path d="M243.802 215.083C243.802 215.083 239.429 208.011 239.007 200.311C238.585 192.612 240.275 189.416 242.593 188.498C244.911 187.581 245.087 190.406 246.284 192.081C247.482 193.756 249.904 192.797 250.799 187.59C251.694 182.384 254.977 173.56 261.768 171.876C269.269 170.018 265.246 178.816 263.363 182.249C261.479 185.682 260.011 190.357 261.254 191.63C262.495 192.903 264.42 190.551 266.267 192.732C268.496 195.364 261.567 204.827 257.59 207.123L243.802 215.083Z" fill="#3F3D56"/>
<path d="M249.792 212.105C249.783 212.105 249.774 212.105 249.766 212.104C249.49 212.089 249.279 211.854 249.293 211.579C250.394 191.102 260.387 176.921 260.488 176.78C260.649 176.554 260.962 176.504 261.185 176.665C261.41 176.825 261.461 177.138 261.3 177.362C261.201 177.501 251.375 191.46 250.29 211.632C250.277 211.898 250.057 212.105 249.792 212.105Z" fill="white"/>
<path d="M250.363 206.202C250.281 206.202 250.198 206.182 250.121 206.139C247.32 204.589 245.769 199.991 245.705 199.795C245.618 199.533 245.76 199.25 246.022 199.163C246.283 199.073 246.568 199.219 246.654 199.48C246.669 199.524 248.147 203.904 250.605 205.263C250.846 205.397 250.934 205.701 250.8 205.943C250.71 206.109 250.539 206.202 250.363 206.202Z" fill="white"/>
<path d="M250.853 203.171C250.629 203.171 250.425 203.021 250.369 202.794C250.301 202.525 250.463 202.254 250.73 202.187C257.948 200.362 260.448 196.579 260.472 196.541C260.621 196.309 260.931 196.242 261.162 196.389C261.394 196.537 261.464 196.845 261.315 197.077C261.209 197.246 258.611 201.225 250.975 203.155C250.935 203.166 250.894 203.171 250.853 203.171Z" fill="white"/>
<path d="M135.022 199.535C135.022 199.535 125.433 197.197 124.934 179.242C124.395 159.861 127.284 137.251 115.974 135.412C104.665 133.573 98.3191 147.44 98.4641 163.555C98.5911 177.704 104.289 208.404 135.021 214.421L135.022 199.535Z" fill="#3F3D56"/>
<path opacity="0.2" d="M135.022 199.535C135.022 199.535 125.433 197.197 124.934 179.242C124.395 159.861 127.284 137.251 115.974 135.412C104.665 133.573 98.3191 147.44 98.4641 163.555C98.5911 177.704 104.289 208.404 135.021 214.421L135.022 199.535Z" fill="black"/>
<path d="M135.021 212.575C134.991 212.575 134.961 212.572 134.931 212.567C128.016 211.307 122.388 207.503 118.202 201.26C105.778 182.726 109.692 148.13 110.977 142.087C111.035 141.816 111.299 141.646 111.57 141.702C111.84 141.76 112.012 142.025 111.955 142.295C110.684 148.271 106.802 182.46 119.032 200.704C123.061 206.714 128.47 210.374 135.109 211.583C135.381 211.633 135.561 211.894 135.511 212.165C135.469 212.406 135.258 212.575 135.021 212.575Z" fill="white"/>
<path d="M135.022 258.67C125.107 260.014 109.003 259.99 99.727 252.674C90.451 245.358 92.38 239.052 95.949 236.422C99.517 233.791 102.616 230.785 96.478 224.948C90.339 219.111 80.472 209.731 77.282 195.659C74.091 181.588 75.662 172.794 81.941 169.861C88.034 167.016 89.639 171.536 93.368 180.857C97.097 190.179 105.49 182.187 112.666 185.097C119.841 188.006 119.56 193.767 120.012 198.719C120.465 203.67 122.834 205.039 126.897 205.039C130.96 205.039 135.02 207.384 135.021 212.074L135.022 258.67Z" fill="#3F3D56"/>
<path d="M135.022 242.333C134.978 242.333 134.932 242.327 134.887 242.315C134.458 242.195 124.204 239.21 109.281 225.501C93.3829 210.897 85.8769 189.002 85.8029 188.783C85.7149 188.521 85.8549 188.237 86.1169 188.149C86.3789 188.063 86.6619 188.202 86.7499 188.462C86.8229 188.68 94.2529 210.338 109.957 224.764C124.681 238.289 135.054 241.322 135.157 241.351C135.423 241.426 135.577 241.701 135.503 241.968C135.441 242.189 135.241 242.333 135.022 242.333Z" fill="white"/>
<path d="M113.434 228.992C113.234 228.992 113.045 228.871 112.968 228.674C109.759 220.427 109.032 202.798 109.003 202.052C108.992 201.777 109.207 201.544 109.483 201.532C109.739 201.535 109.991 201.736 110.002 202.012C110.009 202.193 110.752 220.22 113.9 228.31C114 228.568 113.873 228.858 113.615 228.958C113.555 228.981 113.494 228.992 113.434 228.992Z" fill="white"/>
<path d="M113.35 240.853C111.796 240.853 110.721 240.731 110.591 240.715C110.317 240.683 110.121 240.434 110.153 240.159C110.186 239.886 110.432 239.682 110.709 239.722C110.802 239.731 120.106 240.783 124.379 236.425C124.571 236.226 124.889 236.226 125.086 236.417C125.283 236.61 125.286 236.928 125.093 237.124C121.966 240.315 116.608 240.853 113.35 240.853Z" fill="white"/>
<path d="M106.148 51.494L105.074 45.259L99.5099 48.92C98.9529 47.854 98.2369 46.998 97.3949 46.352L100.057 39.151L95.1009 38.043L91.4389 45.021C90.2259 45.208 88.9449 45.617 87.6249 46.263L86.0399 41.004L80.1039 45.671L80.4929 51.871C79.2909 53.208 78.1919 54.67 77.2109 56.208L72.3059 55.966L68.8669 63.674L73.0789 65.47C72.6339 67.128 72.3479 68.773 72.2469 70.355L66.8999 75.272L67.9739 81.507L73.5369 77.846C74.0939 78.912 74.8099 79.768 75.6529 80.414L72.9899 87.615L77.9469 88.723L83.1849 83.616C84.3989 83.43 84.1029 81.15 85.4229 80.504L87.0069 85.763L92.9439 81.096L92.7909 78.657C93.9919 77.321 98.5289 74.371 99.5099 72.833L100.742 70.801L104.181 63.093L102.579 60.191L100.801 56.412L106.148 51.494ZM88.0159 72.044C83.4619 75.624 82.0749 76.405 81.2509 71.622C80.4269 66.839 83.0909 59.545 87.6459 55.965C92.1999 52.384 93.9479 52.117 94.7709 56.9C95.5939 61.683 92.5699 68.463 88.0159 72.044Z" fill="#E0E0E0"/>
<path d="M95.102 38.043L101.586 41.782L97.925 48.76L91.439 45.02L95.102 38.043Z" fill="#F5F5F5"/>
<path d="M111.56 48.999L105.997 52.66L99.511 48.92L105.075 45.259L111.56 48.999Z" fill="#F5F5F5"/>
<path d="M110.666 66.833L106.455 65.036L99.97 61.296L104.181 63.093L110.666 66.833Z" fill="#E0E0E0"/>
<path d="M72.99 87.6149L79.476 91.3549L82.138 84.1539L75.653 80.4139L72.99 87.6149Z" fill="#E0E0E0"/>
<path d="M93.4938 89.5029L87.0078 85.7629L85.4238 80.5039L91.9088 84.2439L93.4938 89.5029Z" fill="#E0E0E0"/>
<path d="M112.633 55.234L111.559 48.999L105.996 52.66C105.439 51.594 104.722 50.738 103.88 50.092L106.543 42.891L101.586 41.783L97.9238 48.761C96.7108 48.948 95.4288 49.357 94.1088 50.003L92.5238 44.744L86.5878 49.411L86.9768 55.611C85.7758 56.947 84.6758 58.41 83.6948 59.948L78.7898 59.706L75.3508 67.414L79.5628 69.21C79.1178 70.868 78.8328 72.513 78.7308 74.096L73.3838 79.013L74.4578 85.248L80.0208 81.587C80.5778 82.652 81.2938 83.509 82.1358 84.155L79.4738 91.356L84.4308 92.464L88.0928 85.486C89.3058 85.3 90.5868 84.89 91.9068 84.244L93.4918 89.503L99.4278 84.836L99.0388 78.636C100.241 77.3 101.34 75.837 102.321 74.299L107.226 74.541L110.664 66.833L106.452 65.037C106.897 63.379 107.183 61.734 107.283 60.152L112.633 55.234ZM94.5008 75.784C89.9468 79.365 85.5868 78.389 84.7628 73.606C83.9388 68.823 86.9638 62.042 91.5178 58.462C96.0718 54.881 100.431 55.856 101.255 60.639C102.079 65.423 99.0548 72.203 94.5008 75.784Z" fill="#EBEBEB"/>
<path d="M92.525 44.7429L86.04 41.0029L80.104 45.6699L86.589 49.4099L92.525 44.7429Z" fill="#F5F5F5"/>
<path d="M80.104 45.6699L80.493 51.8699L86.977 55.6089L86.589 49.4099L80.104 45.6699Z" fill="#E0E0E0"/>
<path d="M83.6959 59.947L77.2099 56.207L72.3059 55.965L78.7909 59.705L83.6959 59.947Z" fill="#F5F5F5"/>
<path d="M72.3059 55.965L68.8669 63.673L75.3519 67.413L78.7909 59.705L72.3059 55.965Z" fill="#E0E0E0"/>
<path d="M78.7319 74.095L72.2469 70.355L66.8999 75.272L73.3849 79.012L78.7319 74.095Z" fill="#F5F5F5"/>
<path d="M74.4589 85.247L67.9739 81.507L66.8999 75.272L73.3849 79.012L74.4589 85.247Z" fill="#E0E0E0"/>
<path d="M101.586 41.782L95.1018 38.043L100.058 39.151L106.543 42.891L101.586 41.782Z" fill="#F5F5F5"/>
<path d="M77.093 23.215V13.902L69.682 17.243C69.235 15.523 68.555 14.049 67.68 12.832L72.349 3.41702L66.646 0.124023L60.827 8.87602C59.336 8.72702 57.719 8.87402 56.006 9.34802L55.193 1.25903L47.129 5.91502L46.316 14.942C44.603 16.447 42.986 18.167 41.495 20.037L35.676 18.005L29.973 27.882L34.642 31.905C33.768 34.131 33.087 36.392 32.64 38.628L25.229 43.845V53.157L32.64 49.816C33.087 51.536 33.768 53.01 34.642 54.227L29.973 63.642L35.676 66.934L41.495 58.183C42.986 58.332 44.603 58.184 46.316 57.711L47.129 65.8L55.193 61.144L56.006 52.117C58.409 51.315 60.981 49.455 62.471 47.585L66.645 49.055L72.348 39.178L68.849 36.163C69.723 33.937 69.816 30.378 69.68 28.433L77.093 23.215ZM51.162 46.465C44.975 50.037 41.129 47.503 41.129 40.359C41.129 33.215 46.242 24.463 52.429 20.891C58.616 17.319 62.364 19.917 62.364 27.061C62.365 34.206 57.349 42.893 51.162 46.465Z" fill="#E0E0E0"/>
<path d="M73.1321 3.865L66.6461 0.125L60.8281 8.877L67.3131 12.616L73.1321 3.865Z" fill="#F5F5F5"/>
<path d="M83.5781 17.642L77.0931 13.902L69.6821 17.243L76.1671 20.983L83.5781 17.642Z" fill="#F5F5F5"/>
<path d="M53.6149 69.5401L47.1299 65.8001L46.3169 57.7111L52.8029 61.4511L53.6149 69.5401Z" fill="#E0E0E0"/>
<path d="M29.9751 63.642L36.4601 67.382L41.1291 57.967L34.6441 54.2271L29.9751 63.642Z" fill="#E0E0E0"/>
<path d="M83.5781 26.955V17.642L76.1671 20.983C75.7201 19.263 75.0391 17.789 74.1651 16.572L78.8341 7.15701L73.1311 3.86401L67.3121 12.616C65.8221 12.467 64.2051 12.614 62.4921 13.088L61.6791 5.00002L53.6151 9.65601L52.8021 18.683C51.0891 20.188 49.4721 21.908 47.9811 23.778L42.1621 21.746L36.4591 31.624L41.1281 35.647C40.2541 37.873 39.5731 40.133 39.1261 42.369L31.7151 47.586V56.898L39.1261 53.557C39.5731 55.277 40.2541 56.751 41.1281 57.968L36.4591 67.383L42.1621 70.675L47.9811 61.924C49.4721 62.072 51.0891 61.925 52.8021 61.452L53.6151 69.541L61.6791 64.885L62.4921 55.858C64.2051 54.354 65.8221 52.633 67.3121 50.764L73.1311 52.796L78.8341 42.919L74.1651 38.896C75.0391 36.67 75.7201 34.41 76.1671 32.174L83.5781 26.955ZM57.6471 50.205C51.4601 53.777 46.4441 50.881 46.4441 43.737C46.4441 36.593 51.4601 27.905 57.6471 24.333C63.8341 20.761 68.8501 23.657 68.8501 30.801C68.8501 37.946 63.8341 46.633 57.6471 50.205Z" fill="#EBEBEB"/>
<path d="M41.497 20.037L47.982 23.777L42.163 21.745L35.678 18.005L41.497 20.037Z" fill="#F0F0F0"/>
<path d="M35.6679 18.0061L29.97 27.8851L36.4543 31.6251L42.1523 21.7461L35.6679 18.0061Z" fill="#F5F5F5"/>
<path d="M29.9751 27.8821L36.4601 31.6221L41.1291 35.6461L34.6441 31.9051L29.9751 27.8821Z" fill="#E0E0E0"/>
<path d="M32.643 38.6281L39.128 42.368L31.717 47.5851L25.231 43.8451L32.643 38.6281Z" fill="#F5F5F5"/>
<path d="M25.231 43.845L31.717 47.585V56.896L25.231 53.157V43.845Z" fill="#E0E0E0"/>
<path d="M61.6799 4.99903L55.1939 1.25903L47.1299 5.91503L53.6149 9.65503L61.6799 4.99903Z" fill="#F5F5F5"/>
<path d="M144.878 272.052L238.903 217.767C239.859 217.214 239.86 216.319 238.904 215.765L230.206 210.733C229.25 210.179 227.699 210.178 226.742 210.731L132.692 265.016C131.735 265.569 131.735 266.464 132.692 267.016L141.414 272.052C142.371 272.603 143.922 272.603 144.878 272.052Z" fill="#E0E0E0"/>
<path d="M236.304 8.19603L151.537 57.136C149.146 58.517 147.207 61.875 147.207 64.636V265.706C147.207 268.468 149.146 269.587 151.537 268.206L236.305 219.267C238.697 217.886 240.635 214.528 240.635 211.767L240.634 10.697C240.634 7.93503 238.695 6.81503 236.304 8.19603Z" fill="#455A64"/>
<path d="M151.537 57.136L236.304 8.19601C238.443 6.96201 240.214 7.73001 240.567 9.88001C240.242 7.30301 238.465 4.44401 236.304 3.19601L232.779 1.16002C230.387 -0.220982 226.509 -0.220982 224.118 1.16002L139.352 50.1C138.156 50.79 137.074 51.975 136.29 53.332L148.476 60.367C149.259 59.011 150.342 57.827 151.537 57.136Z" fill="#37474F"/>
<path d="M135.022 258.67C135.022 261.432 136.96 264.79 139.352 266.17L142.878 268.206C145.04 269.454 148.407 269.562 150.802 268.554C148.762 269.328 147.207 268.178 147.207 265.706V64.636C147.207 63.255 147.692 61.725 148.476 60.368L136.29 53.333C135.506 54.69 135.022 56.22 135.022 57.601V258.67Z" fill="#263238"/>
<path d="M153.868 83.934L233.974 37.6849C235.41 36.8559 236.573 37.5279 236.573 39.1849L236.574 187.97C236.574 189.627 235.41 191.642 233.975 192.47L153.869 238.72C152.434 239.548 151.271 238.876 151.271 237.22L151.27 88.4349C151.269 86.7769 152.433 84.762 153.868 83.934Z" fill="white"/>
<path d="M193.921 40.294C193.08 40.78 192.398 41.961 192.398 42.932C192.398 43.904 193.081 44.297 193.921 43.811C194.763 43.326 195.444 42.145 195.444 41.173C195.444 40.202 194.763 39.808 193.921 40.294Z" fill="#37474F"/>
<path d="M193.923 222.738C190.601 224.656 187.908 229.32 187.908 233.156C187.908 236.991 190.6 238.546 193.923 236.628C197.244 234.711 199.937 230.047 199.937 226.211C199.936 222.376 197.244 220.821 193.923 222.738Z" fill="#37474F"/>
<path d="M179.533 55.771C177.851 56.743 176.487 59.105 176.487 61.048C176.487 62.991 177.851 63.778 179.534 62.807C181.217 61.836 182.58 59.474 182.58 57.531C182.58 55.587 181.216 54.8 179.533 55.771Z" fill="#37474F"/>
<path d="M186.982 55.112C186.982 56.407 187.952 56.898 189.147 56.207L209.19 44.636C210.385 43.946 211.355 42.336 211.355 41.041C211.354 39.746 210.385 39.255 209.189 39.946L189.147 51.517C187.952 52.208 186.982 53.817 186.982 55.112Z" fill="#37474F"/>
<path d="M141.763 90.372C143.109 91.149 144.2 93.039 144.2 94.594C144.2 96.148 143.109 96.778 141.763 96.001C140.417 95.224 139.325 93.334 139.325 91.78C139.325 90.226 140.417 89.595 141.763 90.372Z" fill="#37474F"/>
<path d="M141.763 109.148C143.109 109.925 144.2 111.815 144.2 113.37C144.2 114.925 143.109 115.554 141.763 114.777C140.417 114 139.325 112.11 139.325 110.555C139.326 109.001 140.417 108.372 141.763 109.148Z" fill="#37474F"/>
<path d="M141.01 90.7491C142.356 91.5261 143.448 93.4161 143.448 94.9701C143.448 96.5241 142.357 97.1551 141.01 96.3771C139.664 95.6001 138.573 93.7101 138.573 92.1561C138.573 90.6011 139.665 89.9711 141.01 90.7491Z" fill="#455A64"/>
<path d="M141.01 109.525C142.356 110.302 143.448 112.192 143.448 113.747C143.448 115.301 142.357 115.931 141.01 115.154C139.664 114.377 138.573 112.487 138.573 110.932C138.573 109.377 139.665 108.748 141.01 109.525Z" fill="#455A64"/>
<path d="M252.821 43.8891C252.821 42.2321 251.658 41.5611 250.222 42.3891L240.634 47.9251L170.116 88.6391C168.681 89.4681 167.518 91.4821 167.518 93.1391L167.519 241.924C167.519 243.581 168.682 244.252 170.117 243.424L240.66 202.695L250.223 197.174C251.658 196.345 252.822 194.33 252.822 192.674L252.821 43.8891Z" fill="white" stroke="#3F3D56" stroke-miterlimit="10"/>
<path d="M168.956 244.279C168.623 244.279 168.31 244.199 168.03 244.038C167.378 243.661 167.019 242.91 167.019 241.923L167.018 93.1381C167.018 91.2941 168.269 89.1271 169.866 88.2051L240.384 47.4911L240.884 48.3571L170.366 89.0711C169.093 89.8061 168.018 91.6681 168.018 93.1381L168.019 241.923C168.019 242.529 168.205 242.984 168.53 243.172C168.855 243.36 169.342 243.292 169.867 242.99L240.41 202.261L240.91 203.126L170.367 243.854C169.879 244.138 169.399 244.279 168.956 244.279Z" fill="#3F3D56" stroke="#3F3D56" stroke-miterlimit="10"/>
<path d="M240.91 203.127L240.41 202.262L249.973 196.742C251.246 196.006 252.322 194.143 252.322 192.675L252.321 43.8901C252.321 43.2841 252.135 42.8291 251.81 42.6411C251.487 42.4541 250.999 42.5191 250.472 42.8231L240.884 48.3591L240.384 47.4931L249.972 41.9571C250.826 41.4641 251.657 41.3981 252.31 41.7751C252.961 42.1521 253.321 42.9021 253.321 43.8901L253.322 192.675C253.322 194.518 252.071 196.685 250.473 197.608L240.91 203.127Z" fill="#3F3D56" stroke="#3F3D56" stroke-miterlimit="10"/>
<path d="M210.17 78.464C219.144 73.283 226.418 77.483 226.418 87.845C226.418 98.207 219.144 110.806 210.17 115.988C201.196 121.169 193.922 116.969 193.922 106.607C193.922 96.245 201.196 83.645 210.17 78.464Z" fill="#3F3D56"/>
<path d="M210.17 86.619C213.081 84.938 215.441 86.301 215.441 89.662C215.441 93.024 213.081 97.112 210.17 98.792C207.259 100.473 204.898 99.11 204.898 95.748C204.898 92.387 207.259 88.3 210.17 86.619Z" fill="#3F3D56"/>
<path d="M220.444 104.544C220.444 99.021 216.566 96.782 211.784 99.544L208.794 101.27C204.012 104.031 200.134 110.747 200.134 116.27V117.756C202.899 118.674 206.379 118.177 210.17 115.987C214.068 113.736 217.645 110.083 220.444 105.824V104.544Z" fill="#3F3D56"/>
<path opacity="0.7" d="M210.17 86.619C213.081 84.938 215.441 86.301 215.441 89.662C215.441 93.024 213.081 97.112 210.17 98.792C207.259 100.473 204.898 99.11 204.898 95.748C204.898 92.387 207.259 88.3 210.17 86.619Z" fill="white"/>
<path opacity="0.7" d="M220.444 104.544C220.444 99.021 216.566 96.782 211.784 99.544L208.794 101.27C204.012 104.031 200.134 110.747 200.134 116.27V117.756C202.899 118.674 206.379 118.177 210.17 115.987C214.068 113.736 217.645 110.083 220.444 105.824V104.544Z" fill="white"/>
<path d="M178.731 138.839L199.639 126.768C200.596 126.216 201.372 126.664 201.372 127.768V128.458C201.372 129.563 200.597 130.906 199.639 131.458L178.731 143.529C177.775 144.082 176.999 143.634 176.999 142.529V141.839C176.999 140.734 177.775 139.391 178.731 138.839Z" fill="#3F3D56"/>
<path opacity="0.1" d="M178.731 138.839L199.639 126.768C200.596 126.216 201.372 126.664 201.372 127.768V128.458C201.372 129.563 200.597 130.906 199.639 131.458L178.731 143.529C177.775 144.082 176.999 143.634 176.999 142.529V141.839C176.999 140.734 177.775 139.391 178.731 138.839Z" fill="black"/>
<path d="M177.866 153.41L241.126 116.887C241.604 116.611 241.992 116.834 241.992 117.387V124.768C241.992 125.32 241.604 125.992 241.126 126.268L177.866 162.791C177.388 163.067 177 162.843 177 162.291V154.91C177 154.358 177.388 153.686 177.866 153.41Z" fill="#3F3D56"/>
<path opacity="0.2" d="M177.866 153.41L241.126 116.887C241.604 116.611 241.992 116.834 241.992 117.387V124.768C241.992 125.32 241.604 125.992 241.126 126.268L177.866 162.791C177.388 163.067 177 162.843 177 162.291V154.91C177 154.358 177.388 153.686 177.866 153.41Z" fill="white"/>
<path d="M178.731 171.672L199.639 159.601C200.596 159.049 201.372 159.496 201.372 160.601V161.291C201.372 162.395 200.597 163.739 199.639 164.291L178.731 176.362C177.775 176.915 176.999 176.466 176.999 175.362V174.672C176.999 173.567 177.775 172.225 178.731 171.672Z" fill="#3F3D56"/>
<path opacity="0.1" d="M178.731 171.672L199.639 159.601C200.596 159.049 201.372 159.496 201.372 160.601V161.291C201.372 162.395 200.597 163.739 199.639 164.291L178.731 176.362C177.775 176.915 176.999 176.466 176.999 175.362V174.672C176.999 173.567 177.775 172.225 178.731 171.672Z" fill="black"/>
<path d="M177.866 186.243L241.126 149.72C241.604 149.444 241.992 149.668 241.992 150.22V157.601C241.992 158.153 241.604 158.825 241.126 159.101L177.866 195.624C177.388 195.9 177 195.677 177 195.124V187.743C177 187.191 177.388 186.52 177.866 186.243Z" fill="#3F3D56"/>
<path opacity="0.2" d="M177.866 186.243L241.126 149.72C241.604 149.444 241.992 149.668 241.992 150.22V157.601C241.992 158.153 241.604 158.825 241.126 159.101L177.866 195.624C177.388 195.9 177 195.677 177 195.124V187.743C177 187.191 177.388 186.52 177.866 186.243Z" fill="white"/>
<path d="M203.104 190.434L228.074 176.018C229.031 175.465 229.806 175.913 229.806 177.018V184.744C229.806 185.848 229.031 187.192 228.074 187.744L203.104 202.161C202.147 202.713 201.372 202.265 201.372 201.161V193.434C201.372 192.329 202.147 190.986 203.104 190.434Z" fill="#3F3D56"/>
<path opacity="0.1" d="M203.104 190.434L228.074 176.018C229.031 175.465 229.806 175.913 229.806 177.018V184.744C229.806 185.848 229.031 187.192 228.074 187.744L203.104 202.161C202.147 202.713 201.372 202.265 201.372 201.161V193.434C201.372 192.329 202.147 190.986 203.104 190.434Z" fill="black"/>
<path d="M262.303 157.855C262.303 157.855 250.018 140.908 249.269 138.892C248.704 137.372 249.308 135.111 249.448 134.06C249.589 133.01 249.792 130.67 249.966 130.019C250.272 128.883 248.799 129.116 247.973 130.149C247.127 131.207 246.856 133.273 246.435 133.612C246.015 133.951 242.732 129.183 241.019 126.976C239.307 124.768 238.236 123.439 237.195 124.257C236.445 124.846 237.004 126.132 238.245 128.011C239.486 129.89 240.037 130.761 240.224 131.164C240.412 131.568 239.39 131.6 238.839 132.448C238.409 133.11 238.81 134.181 238.24 134.692C237.67 135.203 237.138 136.122 237.763 137.158C238.559 138.477 240.156 140.363 241.992 141.635C243.829 142.908 244.573 143.355 245.656 145.087C246.74 146.818 256.528 164.49 257.185 165.55C257.841 166.611 259.118 168.771 261.048 168.832C262.98 168.895 278.776 155.293 279.59 154.614C282.193 152.443 283.015 152.124 283.464 154.08C283.605 154.692 283.697 155.389 283.795 156.178C284.108 158.654 285.794 167.515 285.794 167.515C285.794 167.515 293.784 171.387 300.362 169.479C306.941 167.571 309.147 164.822 309.147 164.822L305.856 159.459C306.752 157.244 310.89 148.291 312.189 142.016L291.589 138.69C291.166 138.598 290.491 138.428 289.629 138.201C288.498 137.903 285.654 136.905 283.462 138.811C276.375 144.979 262.303 157.855 262.303 157.855Z" fill="#FFA8A7"/>
<path d="M303.144 261.792L299.451 266.924C299.451 266.924 301.162 267.927 304.815 268.066C308.12 268.192 309.028 267.107 309.15 266.846C309.708 265.65 308.837 263.491 308.598 261.635L303.144 261.792Z" fill="#37474F"/>
<path d="M299.658 264.46C299.658 264.46 295.183 264.175 292.089 263.785C288.994 263.394 286.546 264.905 287.274 266.18C288.002 267.453 289.704 268.513 292.355 269.405C294.627 270.17 297.35 270.725 299.722 271.435C302.153 272.163 303.709 272.995 305.086 272.522C306.621 271.993 307.28 271.379 307.15 270.261C307.02 269.143 305.907 265.543 305.907 265.543L299.658 264.46Z" fill="#37474F"/>
<path d="M309.149 256.636C309.149 256.636 308.589 261.297 308.546 262.298C308.503 263.298 303.997 263.619 303.143 261.792L303.003 256.093L309.149 256.636Z" fill="#F28F8F"/>
<path d="M304.605 259.504L306.217 266.575C306.217 266.575 306.369 267.437 302.685 267.986C299.002 268.536 293.226 266.059 292.243 265.556C291.26 265.052 291.142 264.051 294.76 264.251C298.377 264.452 299.658 264.459 299.658 264.459L298.484 261.324L304.605 259.504Z" fill="#FFA8A7"/>
<path d="M312.19 142.017L314.736 141.314C314.736 141.314 320.071 158.18 320.661 159.805C321.251 161.429 321.916 163.162 320.769 165.172C319.402 167.565 312.191 177.195 312.191 177.195L307.614 172.715L312.806 163.201L308.213 153.895L312.19 142.017Z" fill="#F28F8F"/>
<path d="M285.973 120.093C285.973 120.093 283.931 116.825 286.081 112.823C288.615 108.108 294.281 105.807 301.024 106.69C304.139 107.098 307.816 109.655 309.833 113.56C312.049 117.848 312.256 126.492 312.806 129.76L285.973 120.093Z" fill="#37474F"/>
<path d="M285.819 121.939C285.819 121.939 284.217 124.989 284.495 125.267C284.772 125.544 285.841 125.769 285.841 125.769L285.819 121.939Z" fill="#FFA8A7"/>
<path d="M290.681 112.295C288.939 113.431 285.94 115.507 285.808 122.361C285.673 129.397 286.667 131.665 287.707 132.481C288.409 133.031 292.516 132.752 294.279 132.338C296.043 131.924 301.114 129.419 302.939 125.609C305.085 121.128 304.651 114.566 301.457 112.661C296.962 109.98 292.155 111.334 290.681 112.295Z" fill="#FFA8A7"/>
<path d="M309.148 164.824C312.232 169.623 315.164 173.85 315.789 179.243C317.109 190.633 312.776 203.654 311.857 212.076C311.857 212.076 314.767 215.859 314.764 220.304C314.762 223.784 309.149 256.635 309.149 256.635C309.149 256.635 305.066 257.879 303.003 256.092L299.145 195.658L301.177 188.301L309.148 164.824Z" fill="#3F3D56"/>
<path opacity="0.2" d="M309.148 164.824C312.232 169.623 315.164 173.85 315.789 179.243C317.109 190.633 312.776 203.654 311.857 212.076C311.857 212.076 314.767 215.859 314.764 220.304C314.762 223.784 309.149 256.635 309.149 256.635C309.149 256.635 305.066 257.879 303.003 256.092L299.145 195.658L301.177 188.301L309.148 164.824Z" fill="black"/>
<path d="M299.145 195.659L301.177 188.302C301.177 188.302 306.811 186.941 312.19 183.934C312.19 183.934 310.105 187.72 304.134 189.796L301.024 199.254L300.756 220.898L299.145 195.659Z" fill="#3F3D56"/>
<path opacity="0.3" d="M299.145 195.659L301.177 188.302C301.177 188.302 306.811 186.941 312.19 183.934C312.19 183.934 310.105 187.72 304.134 189.796L301.024 199.254L300.756 220.898L299.145 195.659Z" fill="black"/>
<path d="M309.148 164.824C310.798 167.517 314.742 172.122 313.904 176.547C312.887 181.909 310.003 185.678 301.177 188.302L292.9 218.278C292.9 218.278 297.21 222.311 298.528 226.148C299.844 229.984 304.605 259.504 304.605 259.504C304.605 259.504 303.133 261.907 298.484 261.325C298.484 261.325 282.274 224.301 281.129 221.917C279.984 219.533 279.242 217.751 279.757 213.868C280.273 209.986 285.795 167.516 285.795 167.516L309.148 164.824Z" fill="#3F3D56"/>
<path opacity="0.2" d="M309.148 164.824C310.798 167.517 314.742 172.122 313.904 176.547C312.887 181.909 310.003 185.678 301.177 188.302L292.9 218.278C292.9 218.278 297.21 222.311 298.528 226.148C299.844 229.984 304.605 259.504 304.605 259.504C304.605 259.504 303.133 261.907 298.484 261.325C298.484 261.325 282.274 224.301 281.129 221.917C279.984 219.533 279.242 217.751 279.757 213.868C280.273 209.986 285.795 167.516 285.795 167.516L309.148 164.824Z" fill="black"/>
<path d="M312.19 142.017L291.59 138.691C291.168 138.599 290.487 138.428 289.627 138.201L289.625 138.2C289.625 138.2 288.747 151.115 283.464 154.08C283.589 154.696 283.696 155.389 283.795 156.178C284.108 158.654 285.794 167.515 285.794 167.515C285.794 167.515 293.784 171.387 300.362 169.479C306.941 167.571 309.147 164.822 309.147 164.822L305.856 159.459C306.754 157.246 310.892 148.292 312.19 142.017Z" fill="#3F3D56"/>
<path opacity="0.7" d="M312.19 142.017L291.59 138.691C291.168 138.599 290.487 138.428 289.627 138.201L289.625 138.2C289.625 138.2 288.747 151.115 283.464 154.08C283.589 154.696 283.696 155.389 283.795 156.178C284.108 158.654 285.794 167.515 285.794 167.515C285.794 167.515 293.784 171.387 300.362 169.479C306.941 167.571 309.147 164.822 309.147 164.822L305.856 159.459C306.754 157.246 310.892 148.292 312.19 142.017Z" fill="white"/>
<path d="M306.756 157.351C306.672 157.545 300.134 161.048 298.191 161.584C301.254 161.432 303.798 160.712 305.857 159.46L306.756 157.351Z" fill="#3F3D56"/>
<path d="M290.167 112.641C290.167 112.641 289.207 119.144 291.532 122.958C291.532 122.958 292.405 120.37 294.604 120.864C296.818 121.362 296.911 124.237 295.374 125.867C293.836 127.497 292.125 126.908 292.125 126.908C292.125 126.908 291.779 131.608 291.594 135.549C291.415 139.346 290.356 148.077 294.79 151.588C299.225 155.099 310.339 156.284 315.548 149.002C318.446 144.951 314.596 137.79 312.806 129.76C311.159 122.377 310.233 111.436 302.399 109.68C294.565 107.925 290.167 112.641 290.167 112.641Z" fill="#37474F"/>
<path d="M318.903 23.825L317.252 24.779C317.384 24.171 317.477 23.568 317.477 22.987C317.477 19.642 315.128 18.286 312.231 19.959C311.388 20.445 310.604 21.149 309.898 21.964C309.898 21.956 309.899 21.947 309.899 21.939C309.899 17.436 306.738 15.61 302.838 17.862C298.938 20.114 295.775 25.59 295.775 30.094C295.775 30.323 295.789 30.541 295.805 30.756C294.98 30.609 293.995 30.811 292.936 31.423C290.039 33.096 287.69 37.163 287.69 40.509C287.69 40.97 287.739 41.388 287.823 41.77L286.943 42.278C284.551 43.659 282.613 46.353 282.613 48.296C282.613 50.238 284.552 50.694 286.943 49.314L318.903 30.862C321.295 29.481 323.233 26.787 323.233 24.844C323.233 22.9 321.295 22.444 318.903 23.825Z" fill="#EBEBEB"/>
</svg>
